<?xml version="1.0" standalone="no"?>
<!DOCTYPE svg PUBLIC "-//W3C//DTD SVG 1.1//EN" "http://www.w3.org/Graphics/SVG/1.1/DTD/svg11.dtd" >
<svg>
<metadata>
Created by FontForge 20090914 at Tue Dec 22 17:38:48 2015
 By www-data
Copyright (c) 2013 by BPG-InfoTech. All rights reserved.
</metadata>
<defs>
<font id="!BPGAnnaCaps" horiz-adv-x="500" >
  <font-face 
    font-family="! BPG Anna Caps"
    font-weight="400"
    font-variant="small-caps"
    font-stretch="normal"
    units-per-em="1000"
    panose-1="2 0 2 6 0 0 0 2 0 4"
    ascent="750"
    descent="-250"
    x-height="514"
    cap-height="714"
    bbox="-353 -201 1054 922"
    underline-thickness="50"
    underline-position="-75"
    unicode-range="U+0020-U+2212"
  />
<missing-glyph 
d="M415 483h-339v-447h339v447zM451 521v-521h-413v521h413z" />
    <glyph glyph-name=".notdef" 
d="M415 483h-339v-447h339v447zM451 521v-521h-413v521h413z" />
    <glyph glyph-name="space" unicode=" " horiz-adv-x="278" 
 />
    <glyph glyph-name="exclam" unicode="!" horiz-adv-x="185" 
d="M67 703h48v-531h-48v531zM67 122h48v-122h-48v122z" />
    <glyph glyph-name="quotedbl" unicode="&#x22;" horiz-adv-x="278" 
d="M164 462v241h48v-241h-48zM58 462v241h48v-241h-48z" />
    <glyph glyph-name="numbersign" unicode="#" horiz-adv-x="556" 
d="M332 264c2 12.667 3.66699 25 5 37l4 36c1.33301 11.333 2.83301 22 4.5 32s3.16699 21 4.5 33h-133c-1.33301 -9.33301 -2.33301 -18.5 -3 -27.5s-1.66699 -18.167 -3 -27.5c-2 -14 -4.16699 -27.5 -6.5 -40.5s-4.5 -27.167 -6.5 -42.5h134zM226 450h132.993
c2.66699 18 4.83398 35.667 6.50098 53s3.83398 35 6.50098 53l8 58c2.66699 20 5.33398 39 8.00098 57h47l-28 -221h107v-48h-115c-1.33301 -8.66699 -2.66602 -16.667 -3.99902 -24s-2.66602 -15.333 -3.99902 -24c-2.66699 -15.333 -5 -30.166 -7 -44.499
s-4 -29.5 -6 -45.5h109v-48h-116l-14.5 -108l-14.5 -108h-48l29 216h-133c-2.66699 -18 -5 -36.167 -7 -54.5s-4.66699 -36.833 -8 -55.5c-2.66699 -17.333 -5.16699 -35.5 -7.5 -54.5s-4.16602 -36.167 -5.49902 -51.5h-50l31 216h-117v48h126
c1.33301 9.33301 2.33301 18 3 26s1.66699 16.333 3 25c2 15.333 3.66699 29.666 5 42.999s3.33301 28 6 44h-116v48h125c2.66699 18 5 35.667 7 53s4.33301 35 7 53l8 58c2.66699 20 5.33398 39 8.00098 57h48z" />
    <glyph glyph-name="dollar" unicode="$" horiz-adv-x="556" 
d="M291 31c23.333 0.666992 46.332 4.16797 68.999 10.501s43 15.5 61 27.5s32.5 27.167 43.5 45.5s16.5 40.166 16.5 65.499c0 26 -5.83301 47.667 -17.5 65s-26.5 31.5 -44.5 42.5s-38.167 19.833 -60.5 26.5s-44.166 12.667 -65.499 18h-2v-301zM290.999 7.00098v24h-28z
M46.999 241.001c0 -35.333 4.6709 -65.665 14.0039 -90.998s22.666 -46.5 39.999 -63.5s38 -29.833 62 -38.5s51 -14 81 -16v309c-1.33301 0 -2.83301 0.333008 -4.5 1s-3.16699 1.33398 -4.5 2.00098c-27.333 6 -54 12.833 -80 20.5s-49.167 18.167 -69.5 31.5
s-36.666 30.666 -48.999 51.999s-18.5 49 -18.5 83s6.83301 62.667 20.5 86s31.167 42.333 52.5 57s45.5 25.5 72.5 32.5s53.833 11.167 80.5 12.5v40h47v-41c31.333 -2 60.333 -7.83301 87 -17.5s49.834 -23.667 69.501 -42s35.667 -41.666 48 -69.999
s19.5 -62.5 21.5 -102.5h-49c-0.666992 30.667 -5.66699 57.167 -15 79.5s-22 41 -38 56s-34.667 26.333 -56 34s-44 12.5 -68 14.5c0 -48.667 0.166992 -96.834 0.5 -144.501s0.5 -95.834 0.5 -144.501c4.66699 -1.33301 9 -2.5 13 -3.5l10 -2.5c30 -8 58 -16 84 -24
s48.667 -18.833 68 -32.5s34.5 -31.334 45.5 -53.001s16.5 -50.167 16.5 -85.5c0 -33.333 -7 -61.833 -21 -85.5s-32.167 -43.5 -54.5 -59.5s-47.833 -28 -76.5 -36s-57.334 -12.667 -86.001 -14v-83h-47v84c-36.667 2 -70.334 8.66699 -101.001 20
s-56.834 27.833 -78.501 49.5s-38.334 48.667 -50.001 81s-16.834 70.833 -15.501 115.5h35zM66.0029 531.002c0 -24 4.83301 -43.835 14.5 -59.502s22.5 -28.667 38.5 -39s34.833 -18.666 56.5 -24.999s44.5 -11.833 68.5 -16.5v280
c-21.333 -1.33301 -42.5 -4.5 -63.5 -9.5s-40 -13 -57 -24s-30.833 -25.167 -41.5 -42.5s-16 -38.666 -16 -63.999zM244.003 698v-27h26z" />
    <glyph glyph-name="percent" unicode="%" horiz-adv-x="685" 
d="M590 703l-468 -734h-55l467 734h56zM332 163c0 26 3.50195 49.832 10.502 71.499s17.333 40.334 31 56.001s30.167 27.834 49.5 36.501s41.666 13 66.999 13c26 0 49.167 -4.33301 69.5 -13s37.166 -20.834 50.499 -36.501s23.5 -34.167 30.5 -55.5s10.5 -45 10.5 -71
c0 -24 -3.5 -46.5 -10.5 -67.5s-17.333 -39.5 -31 -55.5s-30.5 -28.667 -50.5 -38s-43 -14 -69 -14c-27.333 0 -50.833 4.66699 -70.5 14s-36 22 -49 38s-22.667 34.5 -29 55.5s-9.5 43.167 -9.5 66.5zM62.002 503.999c0 -17.333 2.33203 -33.498 6.99902 -48.498
s11.5 -28.333 20.5 -40s20.5 -20.834 34.5 -27.501s30.333 -10 49 -10s35 3.5 49 10.5s25.667 16.167 35 27.5s16.5 24.666 21.5 39.999s7.5 31.333 7.5 48c0 40 -9.16699 71.833 -27.5 95.5s-46.833 35.5 -85.5 35.5c-39.333 0 -67.666 -12.5 -84.999 -37.5
s-26 -56.167 -26 -93.5zM15.001 504.001c0 26 3.50195 49.833 10.502 71.5s17.333 40.334 31 56.001s30.167 28 49.5 37s41.666 13.5 66.999 13.5c26 0 49.167 -4.33301 69.5 -13s37.166 -20.834 50.499 -36.501s23.5 -34.334 30.5 -56.001s10.5 -45.5 10.5 -71.5
c0 -23.333 -3.5 -45.5 -10.5 -66.5s-17.333 -39.5 -31 -55.5s-30.5 -28.667 -50.5 -38s-43 -14 -69 -14c-27.333 0 -50.833 4.83301 -70.5 14.5s-36 22.5 -49 38.5s-22.667 34.333 -29 55s-9.5 42.334 -9.5 65.001zM380.003 163.001
c0 -17.333 2.16797 -33.6641 6.50098 -48.9971s11 -28.833 20 -40.5s20.5 -20.834 34.5 -27.501s30.333 -10 49 -10s35 3.5 49 10.5s25.833 16.167 35.5 27.5s17 24.666 22 39.999s7.5 31.666 7.5 48.999c0 39.333 -9.33301 70.666 -28 93.999s-47.334 35 -86.001 35
s-66.667 -12.167 -84 -36.5s-26 -55.166 -26 -92.499z" />
    <glyph glyph-name="ampersand" unicode="&#x26;" horiz-adv-x="574" 
d="M518 0l-75.999 93.999c-20.667 -32 -47.5 -58.167 -80.5 -78.5s-72.5 -30.5 -118.5 -30.5c-25.333 0 -50.333 4 -75 12s-46.834 19.833 -66.501 35.5s-35.5 34.667 -47.5 57s-18 47.833 -18 76.5c0 28 5.33301 53 16 75s24.5 42 41.5 60s35.833 34.167 56.5 48.5
s41.334 27.833 62.001 40.5c-1.33301 1.33301 -2.83301 3.16602 -4.5 5.49902s-3.16699 4.16602 -4.5 5.49902v-1c0.666992 -0.666992 -0.166016 0.5 -2.49902 3.5l-8.5 10.5c-8.66699 10.667 -17.334 22.167 -26.001 34.5s-16.667 24.833 -24 37.5s-13.333 25.5 -18 38.5
s-7 25.833 -7 38.5c0 24 4.5 44.833 13.5 62.5s20.667 32.167 35 43.5s30.666 19.833 48.999 25.5s36.833 8.5 55.5 8.5c20.667 0 40.167 -3.16699 58.5 -9.5s34.5 -15.5 48.5 -27.5s25 -26.667 33 -44s12 -37 12 -59c0 -20.667 -3.66699 -39.167 -11 -55.5
s-16.833 -31.166 -28.5 -44.499s-24.834 -25.666 -39.501 -36.999l-43 -33l-3 -3l-10 -5c-1.33301 -0.666992 -4 -2.66699 -8 -6l22.5 -29c7.66699 -10 15.167 -19.333 22.5 -28l52.5 -67l55.5 -70c4 13.333 7.16699 28.5 9.5 45.5s2.83301 36.833 1.5 59.5h49
c0.666992 -34 -1 -62.167 -5 -84.5s-10.667 -43.5 -20 -63.5l16.5 -19c5.66699 -6.66699 10.834 -13.667 15.501 -21l42 -53c14.667 -19.333 27.667 -35.666 39 -48.999h-62zM243.001 30.999c41.333 0 75.833 9.66797 103.5 29.001s49.5 45 65.5 77l-24.5 30.5l-25.5 31.5
l-62.5 76.5l-61.5 76.5c-1.33301 -0.666992 -3 -2 -5 -4l-53 -34c-18 -12 -34.167 -25.333 -48.5 -40s-26 -30.834 -35 -48.501s-13.5 -37.5 -13.5 -59.5s4.5 -41.5 13.5 -58.5s21 -31.167 36 -42.5s32.167 -19.833 51.5 -25.5s39 -8.5 59 -8.5zM414.001 140
c-0.666992 -0.666992 -1 -1.16699 -1 -1.5s-0.333008 -0.833008 -1 -1.5l2 -2v5zM228.001 372c1.33301 -2 2.16504 -3.83301 2.49805 -5.5s0.833008 -3.16699 1.5 -4.5c0.666992 -2 1 -3.33301 1 -4c0.666992 -0.666992 1.83398 -2 3.50098 -4s2.83398 -3.33301 3.50098 -4
l21 19zM165 565c0 -18 6.83203 -38.168 20.499 -60.501s34.834 -52.166 63.501 -89.499c1.33301 1.33301 2.83301 2.33301 4.5 3s3.16699 1.66699 4.5 3l38.5 27c13.667 10 26.334 21 38.001 33s21.167 24.833 28.5 38.5s11 28.167 11 43.5
c0 28.667 -10.333 51.167 -31 67.5s-45 24.5 -73 24.5c-28.667 0 -53.334 -8 -74.001 -24s-31 -38 -31 -66zM248.999 414.999c-0.666992 -0.666992 -1.33203 -1.16699 -1.99902 -1.5s-1.33398 -0.833008 -2.00098 -1.5l8 -1z" />
    <glyph glyph-name="quotesingle" unicode="'" horiz-adv-x="167" 
d="M106 703v-241h-48v241h48z" />
    <glyph glyph-name="parenleft" unicode="(" horiz-adv-x="222" 
d="M210 700c-36 -64 -63.167 -131.331 -81.5 -201.998s-27.5 -143 -27.5 -217c0 -76 10 -151.333 30 -226s50 -148.334 90 -221.001h-50c-19.333 38 -36.333 75 -51 111s-27 72 -37 108s-17.5 72.667 -22.5 110s-7.5 76.666 -7.5 117.999c0 74.667 10 149 30 223
s49 145.667 87 215h29z" />
    <glyph glyph-name="parenright" unicode=")" horiz-adv-x="222" 
d="M5 -148c36 64.667 63.3311 132.502 81.998 203.502s28 142.833 28 215.5c0 74.667 -10.167 149.667 -30.5 225s-50.166 149.666 -89.499 222.999h50c19.333 -38 36.333 -75 51 -111s26.834 -72 36.501 -108s17 -72.833 22 -110.5s7.5 -77.167 7.5 -118.5
c0 -75.333 -9.83301 -149.833 -29.5 -223.5s-48.5 -144.834 -86.5 -213.501h-30z" />
    <glyph glyph-name="asterisk" unicode="*" horiz-adv-x="352" 
d="M193 577c19.333 6.66699 39.6689 13.3291 61.002 19.9961s41.666 13.334 60.999 20.001l9 -49l-116 -38c7.33301 -11.333 15.166 -22 23.499 -32l25.5 -32c4 -5.33301 8.5 -11 13.5 -17s9.16699 -11.333 12.5 -16l-38 -29l-77 99
c-4 -5.33301 -8.33301 -10.666 -13 -15.999s-9 -10.666 -13 -15.999l-25 -32c-8.66699 -11.333 -17 -21.666 -25 -30.999l-37 30l77 93l-18 6c-6 2 -12 3.66699 -18 5l-40.5 14.5c-13.667 5 -26.167 9.16699 -37.5 12.5l13 46l115 -39v127h47v-126z" />
    <glyph glyph-name="plus" unicode="+" horiz-adv-x="600" 
d="M316 506v-229h228v-47h-228v-230h-48v230h-229v47h229v229h48z" />
    <glyph glyph-name="comma" unicode="," horiz-adv-x="278" 
d="M158 15c0 -31.333 -5 -57.8311 -15 -79.498s-28.333 -41.834 -55 -60.501v52c8 8.66699 13.833 19.667 17.5 33s5.5 31.666 5.5 54.999v107h47v-107z" />
    <glyph glyph-name="hyphen" unicode="-" horiz-adv-x="333" 
d="M259 291v-48h-194v48h194z" />
    <glyph glyph-name="period" unicode="." horiz-adv-x="278" 
d="M111 0v122h48v-122h-48z" />
    <glyph glyph-name="slash" unicode="/" horiz-adv-x="333" 
d="M297 719h51l-322 -734h-49z" />
    <glyph glyph-name="zero" unicode="0" horiz-adv-x="556" 
d="M527 335c0 -42 -4.16699 -83.667 -12.5 -125s-22.333 -78.333 -42 -111s-46 -59.167 -79 -79.5s-74.167 -30.5 -123.5 -30.5s-90.5 10.167 -123.5 30.5s-59.333 46.833 -79 79.5s-33.667 69.667 -42 111s-12.5 83 -12.5 125s4.16699 83.667 12.5 125
s22.333 78.5 42 111.5s46 59.667 79 80s74.167 30.5 123.5 30.5s90.5 -10.167 123.5 -30.5s59.333 -47 79 -80s33.667 -70.167 42 -111.5s12.5 -83 12.5 -125zM479 335c0 34 -3.16699 68.833 -9.5 104.5s-17.5 68 -33.5 97s-37.5 52.667 -64.5 71s-60.833 27.5 -101.5 27.5
c-41.333 0 -75.5 -9.16699 -102.5 -27.5s-48.5 -42 -64.5 -71s-27.167 -61.333 -33.5 -97s-9.5 -70.5 -9.5 -104.5s3.16699 -68.833 9.5 -104.5s17.5 -67.834 33.5 -96.501s37.5 -52.167 64.5 -70.5s61.167 -27.5 102.5 -27.5c40.667 0 74.5 9.16699 101.5 27.5
s48.5 41.833 64.5 70.5s27.167 60.834 33.5 96.501s9.5 70.5 9.5 104.5z" />
    <glyph glyph-name="one" unicode="1" horiz-adv-x="556" 
d="M273 0l-0.00292969 593.999c-21.333 -23.333 -47.166 -43 -77.499 -59s-62.166 -28.333 -95.499 -37v51c20.667 6.66699 39.167 13.834 55.5 21.501s31.333 16.334 45 26.001s26.834 20.667 39.501 33s25.667 26.166 39 41.499h42v-671h-48z" />
    <glyph glyph-name="two" unicode="2" horiz-adv-x="556" 
d="M507 0l-461 -0.00195312c-0.666992 30 4.16602 56.833 14.499 80.5s24 45.334 41 65.001s36.5 37.834 58.5 54.501l67 49l19 13c1.33301 0.666992 2.66602 1.66699 3.99902 3s2.66602 2.33301 3.99902 3h-1c24 16 47.333 32.5 70 49.5s42.834 34.833 60.501 53.5
s31.834 38.167 42.501 58.5s16 42.166 16 65.499c0 22.667 -4.16699 42.834 -12.5 60.501s-19.833 32.334 -34.5 44.001s-32 20.5 -52 26.5s-41.667 9 -65 9c-30.667 0 -57 -5.16699 -79 -15.5s-40 -24.5 -54 -42.5s-24.167 -39.333 -30.5 -64s-9.5 -51.667 -9.5 -81h-48
c0.666992 80 19.167 141.667 55.5 185s91.5 65 165.5 65c29.333 0 56.833 -3.83301 82.5 -11.5s48 -19.334 67 -35.001s34 -35.167 45 -58.5s16.5 -50.666 16.5 -81.999c0 -27.333 -7 -53.833 -21 -79.5s-31.667 -50.167 -53 -73.5s-45 -45.333 -71 -66
s-51.333 -39.667 -76 -57c-19.333 -13.333 -38.166 -27 -56.499 -41s-35.333 -28.167 -51 -42.5s-29.167 -28.833 -40.5 -43.5s-19.333 -29.334 -24 -44.001h411v-48z" />
    <glyph glyph-name="three" unicode="3" horiz-adv-x="556" 
d="M49 454c-0.666992 38 4.33301 71.167 15 99.5s26.334 52 47.001 71s45.5 33.333 74.5 43s61.167 14.5 96.5 14.5c27.333 0 54 -3.16699 80 -9.5s49 -16.333 69 -30s36.167 -31.334 48.5 -53.001s18.5 -48.167 18.5 -79.5c0 -36.667 -9 -67.667 -27 -93
s-40.333 -44.333 -67 -57c30 -12 55.167 -31.5 75.5 -58.5s30.5 -63.5 30.5 -109.5c0 -32 -6.16699 -60.667 -18.5 -86s-29 -46.666 -50 -63.999s-45.667 -30.5 -74 -39.5s-58.166 -13.5 -89.499 -13.5c-38.667 0 -73.667 5.66699 -105 17s-58 27.833 -80 49.5
s-38.5 48.5 -49.5 80.5s-14.833 68.667 -11.5 110h48c-2.66699 -34 0.333008 -64 9 -90s21.834 -48 39.501 -66s39.167 -31.5 64.5 -40.5s53.666 -13.5 84.999 -13.5c24 0 47.167 3.33301 69.5 10s42 16.5 59 29.5s30.667 29.333 41 49s15.5 42.167 15.5 67.5
c0 24.667 -4.33301 46 -13 64s-20.5 32.667 -35.5 44s-33 19.833 -54 25.5s-43.5 9.16699 -67.5 10.5h-61v48h61c18.667 0 37.5 2.16699 56.5 6.5s35.833 11.5 50.5 21.5s26.667 23 36 39s14 35.667 14 59c-0.666992 22.667 -5.83398 42 -15.501 58s-22.334 29 -38.001 39
s-33.5 17.167 -53.5 21.5s-40.333 6.5 -61 6.5c-58 0 -103.667 -16 -137 -48s-49.333 -80.333 -48 -145h-37z" />
    <glyph glyph-name="four" unicode="4" horiz-adv-x="556" 
d="M25 209l328 462h46v-456h116v-48h-116v-167h-48v167h-326v42zM351 215v372l-132.5 -186.5l-132.5 -185.5h265zM367 627l-16 15v-55l25 36l-5 6z" />
    <glyph glyph-name="five" unicode="5" horiz-adv-x="556" 
d="M115 416c20 16 42.665 28 67.998 36s52.666 12 81.999 12c35.333 0 67.5 -5.83301 96.5 -17.5s54 -28 75 -49s37.167 -45.833 48.5 -74.5s17 -60.334 17 -95.001c0 -36.667 -5.66699 -69.667 -17 -99s-27.5 -54.333 -48.5 -75s-46 -36.667 -75 -48s-61.167 -17 -96.5 -17
s-67.833 5.5 -97.5 16.5s-55 26.833 -76 47.5s-37.167 46.167 -48.5 76.5s-16.333 65.166 -15 104.499h48c-1.33301 -31.333 2.33398 -59.166 11.001 -83.499s21.5 -45 38.5 -62s37.333 -30 61 -39s49.834 -13.5 78.501 -13.5c58.667 0 104.834 17.333 138.501 52
s50.5 81.334 50.5 140.001c0 27.333 -4.5 52.5 -13.5 75.5s-21.833 42.833 -38.5 59.5s-36.667 29.667 -60 39s-49 14 -77 14c-35.333 0 -68.333 -8.16699 -99 -24.5s-54.667 -40.833 -72 -73.5h-50l75 353h356v-48h-317z" />
    <glyph glyph-name="six" unicode="6" horiz-adv-x="556" 
d="M451 500c-6 27.333 -15.335 49.6709 -28.002 67.0039s-26.667 31 -42 41s-31.5 17 -48.5 21s-32.833 6 -47.5 6c-37.333 0 -68.666 -8.33301 -93.999 -25s-45.833 -38.334 -61.5 -65.001s-27.334 -56.334 -35.001 -89.001s-12.5 -65.334 -14.5 -98.001
c20 30 47.333 54.667 82 74s72 29 112 29c30 0 59.167 -5.66699 87.5 -17s53.5 -27.333 75.5 -48s39.667 -45.5 53 -74.5s20 -61.167 20 -96.5c0 -34 -6.33301 -65.5 -19 -94.5s-29.834 -54 -51.501 -75s-46.834 -37.333 -75.501 -49s-58.667 -17.5 -90 -17.5
c-23.333 0 -45.166 3 -65.499 9s-39 14 -56 24s-32 21.333 -45 34s-23.833 25.667 -32.5 39c-19.333 31.333 -31.666 65.333 -36.999 102s-8 77 -8 121c0 41.333 4 83.666 12 126.999s21.833 82.5 41.5 117.5s45.834 63.667 78.501 86s74 33.5 124 33.5
c30 0 57.167 -5 81.5 -15s45.833 -23.5 64.5 -40.5s33.834 -37.167 45.501 -60.5s19.5 -48.333 23.5 -75h-37zM462.998 225.005c0 26 -5 50.5 -15 73.5s-23.667 43 -41 60s-37.333 30.5 -60 40.5s-47 15 -73 15s-50.5 -5 -73.5 -15s-43 -23.5 -60 -40.5s-30.5 -37 -40.5 -60
s-15 -47.5 -15 -73.5s5 -50.333 15 -73s23.5 -42.667 40.5 -60s37 -31 60 -41s47.5 -15 73.5 -15s50.333 5 73 15s42.667 23.667 60 41s31 37.333 41 60s15 47 15 73z" />
    <glyph glyph-name="seven" unicode="7" horiz-adv-x="556" 
d="M51 671l438.003 0.00195312v-47c-43.333 -44 -82.833 -88.833 -118.5 -134.5s-66.167 -93.834 -91.5 -144.501s-44.833 -104.334 -58.5 -161.001s-20.5 -118 -20.5 -184h-48c-0.666992 64 5.16602 124.5 17.499 181.5s30.166 111.167 53.499 162.5s51.666 100 84.999 146
s70.333 90.333 111 133h-368v48z" />
    <glyph glyph-name="eight" unicode="8" horiz-adv-x="556" 
d="M438 505c0 24.667 -4.83203 45.334 -14.499 62.001s-22.334 30 -38.001 40s-33.5 17.167 -53.5 21.5s-40.667 6.5 -62 6.5s-42 -2.16699 -62 -6.5s-37.833 -11.5 -53.5 -21.5s-28.167 -23.333 -37.5 -40s-14 -37.334 -14 -62.001c0 -20 5 -37.333 15 -52
s23 -26.834 39 -36.501s33.833 -16.667 53.5 -21s39.5 -6.5 59.5 -6.5s40 2.16699 60 6.5s38 11.333 54 21s29 21.834 39 36.501s15 32 15 52zM485.001 505c0 -32.667 -8.16602 -60.334 -24.499 -83.001s-38.5 -40 -66.5 -52c38 -14 68.167 -36 90.5 -66
s33.5 -66.667 33.5 -110c0 -36 -6.66699 -67 -20 -93s-31.333 -47.167 -54 -63.5s-49 -28.5 -79 -36.5s-61.667 -12 -95 -12s-65 4 -95 12s-56.333 20.167 -79 36.5s-40.667 37.5 -54 63.5s-20 57 -20 93c0 44 11 80.833 33 110.5s52 51.834 90 66.501
c-26.667 12 -48.334 29.333 -65.001 52s-25 50 -25 82s5.5 59.167 16.5 81.5s26.333 40.5 46 54.5s42.5 24.333 68.5 31s54 10 84 10s58 -3.33301 84 -10s48.833 -17 68.5 -31s35 -32.167 46 -54.5s16.5 -49.5 16.5 -81.5zM470.002 194c0 28 -5.66797 51.333 -17.001 70
s-26.166 33.834 -44.499 45.501s-39.5 19.834 -63.5 24.501s-49 7 -75 7s-51 -2.33301 -75 -7s-45.167 -12.834 -63.5 -24.501s-33.166 -26.834 -44.499 -45.501s-17 -42 -17 -70c0 -28.667 5.5 -53 16.5 -73s25.667 -36.333 44 -49s39.5 -21.834 63.5 -27.501
s49.333 -8.5 76 -8.5c26 0 51.167 2.83301 75.5 8.5s45.666 14.834 63.999 27.501s33 29 44 49s16.5 44.333 16.5 73z" />
    <glyph glyph-name="nine" unicode="9" horiz-adv-x="556" 
d="M455 446c0 26 -5 50.333 -15 73s-23.5 42.667 -40.5 60s-37 31 -60 41s-47.5 15 -73.5 15s-50.5 -5 -73.5 -15s-43 -23.667 -60 -41s-30.333 -37.333 -40 -60s-14.5 -47 -14.5 -73s4.83301 -50.5 14.5 -73.5s23 -43 40 -60s37 -30.5 60 -40.5s47.5 -15 73.5 -15
s50.5 5 73.5 15s43 23.5 60 40.5s30.5 37 40.5 60s15 47.5 15 73.5zM89 171c6 -27.333 15.165 -49.668 27.498 -67.001s26.333 -31 42 -41s32 -17 49 -21s32.833 -6 47.5 -6c38 0 69.667 8.33301 95 25s45.833 38.334 61.5 65.001s27.334 56.5 35.001 89.5
s12.5 65.833 14.5 98.5c-20.667 -30 -48 -54.833 -82 -74.5s-71.667 -29.5 -113 -29.5c-29.333 0 -58.166 5.66699 -86.499 17s-53.5 27.333 -75.5 48s-39.833 45.5 -53.5 74.5s-20.5 61.167 -20.5 96.5c0 34 6.5 65.5 19.5 94.5s30.333 54 52 75s46.667 37.333 75 49
s58.166 17.5 89.499 17.5c22.667 0 44.167 -3.16699 64.5 -9.5s39 -14.666 56 -24.999s32.167 -21.833 45.5 -34.5s24.333 -25.334 33 -38.001c19.333 -30 31.833 -64 37.5 -102s8.5 -78 8.5 -120s-4 -84.5 -12 -127.5s-21.667 -82 -41 -117s-45.666 -63.667 -78.999 -86
s-75 -33.5 -125 -33.5c-29.333 0 -56.333 4.83301 -81 14.5s-46.167 23.167 -64.5 40.5s-33.333 37.5 -45 60.5s-19.5 48.167 -23.5 75.5h37z" />
    <glyph glyph-name="colon" unicode=":" horiz-adv-x="278" 
d="M111 514h48v-122h-48v122zM111 122h48v-122h-48v122z" />
    <glyph glyph-name="semicolon" unicode=";" horiz-adv-x="278" 
d="M111 514h47v-122h-47v122zM158 15c0 -31.333 -5 -57.8311 -15 -79.498s-28.333 -41.834 -55 -60.501v52c8 8.66699 13.833 19.667 17.5 33s5.5 31.666 5.5 54.999v107h47v-107z" />
    <glyph glyph-name="less" unicode="&#x3c;" horiz-adv-x="600" 
d="M37 233v40l508 249v-51l-447 -218l223.5 -109.5l223.5 -108.5v-50z" />
    <glyph glyph-name="equal" unicode="=" horiz-adv-x="600" 
d="M39 185h505v-47h-505v47zM39 369h505v-48h-505v48z" />
    <glyph glyph-name="greater" unicode="&#x3e;" horiz-adv-x="600" 
d="M37 471v51l508 -249v-40l-508 -248v50l447 218z" />
    <glyph glyph-name="question" unicode="?" 
d="M211 122h48v-122h-48v122zM26 477c-1.33301 36 2.66797 68.8389 12.001 98.5059s23.5 55.167 42.5 76.5s42.333 37.833 70 49.5s59.167 17.5 94.5 17.5c28 0 54.167 -3.83301 78.5 -11.5s45.5 -18.834 63.5 -33.501s32.167 -32.667 42.5 -54s15.5 -45.666 15.5 -72.999
c0 -23.333 -3 -44 -9 -62s-13.333 -33.833 -22 -47.5s-18.167 -25.334 -28.5 -35.001s-19.833 -18.167 -28.5 -25.5h1c-1.33301 -1.33301 -2.66602 -2.33301 -3.99902 -3s-2.33301 -1.33398 -3 -2.00098h2c-1.33301 -1.33301 -2.33301 -2.16602 -3 -2.49902
s-1.33398 -0.833008 -2.00098 -1.5c-16 -15.333 -29.667 -29.5 -41 -42.5s-20.5 -26.833 -27.5 -41.5s-12.167 -30.834 -15.5 -48.501s-5 -38.834 -5 -63.501h-48c0 24.667 1.5 47 4.5 67s8.33301 38.833 16 56.5s17.667 34.5 30 50.5s27.833 33 46.5 51h-1l1 1l4 2
c6.66699 5.33301 14.834 12.5 24.501 21.5s19 19.667 28 32s16.833 26.166 23.5 41.499s10 32.666 10 51.999c0 20 -3.83301 37.833 -11.5 53.5s-18.334 28.667 -32.001 39s-29.834 18.166 -48.501 23.499s-39 8 -61 8c-29.333 0 -55 -5 -77 -15s-40.167 -24 -54.5 -42
s-25 -39.5 -32 -64.5s-9.83301 -52.833 -8.5 -83.5h-36z" />
    <glyph glyph-name="at" unicode="@" horiz-adv-x="800" 
d="M613 545l-112.997 -292.001c-4 -11.333 -7.5 -22.333 -10.5 -33s-4.5 -19.334 -4.5 -26.001c0 -14 8.66699 -21 26 -21c18 0 36.833 5.83301 56.5 17.5s37.834 27.834 54.501 48.501s30.5 45 41.5 73s16.5 58 16.5 90c0 36.667 -6.83301 70.5 -20.5 101.5
s-32.834 57.5 -57.501 79.5s-53.667 39.167 -87 51.5s-69.333 18.5 -108 18.5c-44 0 -84.833 -8 -122.5 -24s-70.334 -37.833 -98.001 -65.5s-49.334 -60 -65.001 -97s-23.5 -76.833 -23.5 -119.5c0 -51.333 8.33301 -96.333 25 -135s39.167 -71 67.5 -97
s61.166 -45.667 98.499 -59s76.666 -20 117.999 -20c27.333 0 53.833 3.83301 79.5 11.5s49.834 18.167 72.501 31.5s43.667 29 63 47s36.333 37.667 51 59h55c-18 -29.333 -39.333 -56.166 -64 -80.499s-51 -45 -79 -62s-57.167 -30.167 -87.5 -39.5s-60.5 -14 -90.5 -14
c-44 0 -87.333 7 -130 21s-80.667 35.5 -114 64.5s-60.333 66.167 -81 111.5s-31 99 -31 161c0 50.667 9.33301 97.667 28 141s44.167 80.833 76.5 112.5s70.166 56.334 113.499 74.001s89.333 26.5 138 26.5c44 0 85.5 -7 124.5 -21s73 -33.833 102 -59.5
s51.833 -57 68.5 -94s25 -78.5 25 -124.5c0 -38.667 -6.83301 -74.834 -20.5 -108.501s-31 -63 -52 -88s-44.5 -44.667 -70.5 -59s-51 -21.5 -75 -21.5c-16 0 -30.167 3.33301 -42.5 10s-21.166 16.334 -26.499 29.001c-17.333 -16.667 -36 -27.334 -56 -32.001
s-40.333 -7 -61 -7s-39.667 3.83301 -57 11.5s-32.333 18.334 -45 32.001s-22.667 29.667 -30 48s-11 38.166 -11 59.499c0 30.667 5.66699 62.834 17 96.501s27.5 64.667 48.5 93s46 51.666 75 69.999s61.5 27.5 97.5 27.5c28.667 0 54 -4.83301 76 -14.5
s39.667 -24.5 53 -44.5l7.5 21.5c2.33301 7 4.83301 13.5 7.5 19.5h51zM459.003 276.999c4 11.333 8.33301 22.499 13 33.499s9 22.167 13 33.5c7.33301 17.333 14 34.5 20 51.5l18 49.5c-4 12.667 -10 23.667 -18 33s-17 16.666 -27 21.999s-20.5 9.33301 -31.5 12
s-21.833 4 -32.5 4c-27.333 0 -52.5 -7.83301 -75.5 -23.5s-42.833 -35.5 -59.5 -59.5s-29.5 -50 -38.5 -78s-13.5 -54.333 -13.5 -79c0 -14.667 2.5 -28.167 7.5 -40.5s12 -23.166 21 -32.499s19.5 -16.666 31.5 -21.999s25 -8 39 -8c11.333 0 23 1.5 35 4.5
s24 8.5 36 16.5s23.333 18.667 34 32s20 30.333 28 51zM535.003 447.998l-9 3l-1 -3l8 -4z" />
    <glyph glyph-name="A" unicode="A" horiz-adv-x="575" 
d="M27 0h-54l289 714h46l283 -714h-55l-90 226h-328zM284 639l-44.5 -110.5l-44.5 -108.5l-29 -72.5l-30 -73.5h292z" />
    <glyph glyph-name="B" unicode="B" horiz-adv-x="611" 
d="M346 395c20.667 0 40.6641 2.83301 59.9971 8.5s36.333 14.167 51 25.5s26.334 25.333 35.001 42s13 36 13 58c0 23.333 -4.16699 43.5 -12.5 60.5s-19.666 31.167 -33.999 42.5s-31.166 19.833 -50.499 25.5s-40 8.5 -62 8.5h-261v-271h261zM345.997 714
c28.667 0 55.6641 -3.83398 80.9971 -11.501s47.333 -19.167 66 -34.5s33.334 -34.666 44.001 -57.999s16 -50.333 16 -81c0 -34.667 -8.33301 -66 -25 -94s-40 -48.667 -70 -62c33.333 -13.333 61 -34.5 83 -63.5s33 -65.5 33 -109.5c0 -33.333 -5.83301 -62.333 -17.5 -87
s-28.167 -45.5 -49.5 -62.5s-46.666 -29.667 -75.999 -38s-61.666 -12.5 -96.999 -12.5h-297v714h309zM342.994 47.999c26 0 50 2.99902 72 8.99902s41.333 15.333 58 28s29.667 28.5 39 47.5s14 41.167 14 66.5c0 27.333 -5.16699 50.333 -15.5 69s-24 33.834 -41 45.501
s-36.167 20.167 -57.5 25.5s-43.333 8 -66 8h-261v-299h258z" />
    <glyph glyph-name="C" unicode="C" horiz-adv-x="685" 
d="M656 285c-6 -44 -17.168 -84.498 -33.501 -121.498s-37.833 -68.667 -64.5 -95s-58.167 -47 -94.5 -62s-77.166 -22.5 -122.499 -22.5c-47.333 0 -91 9.16699 -131 27.5s-74.333 43.666 -103 75.999s-51 71 -67 116s-24 94.167 -24 147.5
c0 43.333 6.16699 87.5 18.5 132.5s32 85.833 59 122.5s61.833 66.667 104.5 90s94.334 35 155.001 35c48 0 89.833 -8.5 125.5 -25.5s65.334 -38.333 89.001 -64s41.667 -53.167 54 -82.5s18.833 -56 19.5 -80h-47c-2 24.667 -9.16699 49.167 -21.5 73.5
s-28.833 46.166 -49.5 65.499s-45.5 34.833 -74.5 46.5s-60.833 17.5 -95.5 17.5c-54 0 -99.333 -10.833 -136 -32.5s-66.334 -49 -89.001 -82s-39 -68.833 -49 -107.5s-15 -75 -15 -109c0 -41.333 6.16699 -81.333 18.5 -120s30.166 -72.667 53.499 -102
s52.333 -52.833 87 -70.5s74 -26.5 118 -26.5c38.667 0 73.5 6.66699 104.5 20s57.833 32 80.5 56s41 52.167 55 84.5s23.667 67.5 29 105.5h34z" />
    <glyph glyph-name="D" unicode="D" horiz-adv-x="648" 
d="M273 48c38.667 0 75.1689 6.16602 109.502 18.499s64.333 31.333 90 57s46 57.834 61 96.501s22.5 84.334 22.5 137.001c0 61.333 -7.5 111.833 -22.5 151.5s-34.833 71.167 -59.5 94.5s-52.834 39.666 -84.501 48.999s-63.834 14 -96.501 14h-201v-618h181z
M298.002 713.999c36 0 72.1689 -5.50195 108.502 -16.502s69.166 -30 98.499 -57s53.333 -63.5 72 -109.5s28 -104 28 -174c0 -64 -9.5 -118.667 -28.5 -164s-44 -82.166 -75 -110.499s-66.833 -49.166 -107.5 -62.499s-82.334 -20 -125.001 -20h-225v714h254z" />
    <glyph glyph-name="E" unicode="E" horiz-adv-x="537" 
d="M531 48v-48h-488v714h484v-48h-435v-271h409v-48h-409v-299h439z" />
    <glyph glyph-name="F" unicode="F" horiz-adv-x="481" 
d="M456 395v-48h-365v-347h-48v714h451v-48h-403v-271h365z" />
    <glyph glyph-name="G" unicode="G" horiz-adv-x="722" 
d="M354 349l314.003 -0.00292969v-349h-48l-2 117c-25.333 -42.667 -60.166 -75.5 -104.499 -98.5s-95.833 -34.5 -154.5 -34.5c-55.333 0 -104 9.83301 -146 29.5s-77 46.5 -105 80.5s-49.167 73.5 -63.5 118.5s-21.5 93.167 -21.5 144.5c0 52 7.66699 100.833 23 146.5
s37.5 85.334 66.5 119.001s64.167 60.167 105.5 79.5s88.333 29 141 29c40 0 77 -6.16699 111 -18.5s64 -29.833 90 -52.5s47.667 -50 65 -82s29 -67.667 35 -107h-48c-6 32 -16.333 61 -31 87s-32.834 48.167 -54.501 66.5s-46.667 32.5 -75 42.5s-59.166 15 -92.499 15
c-46 0 -86.833 -8.66699 -122.5 -26s-65.667 -40.666 -90 -69.999s-43 -63.666 -56 -102.999s-19.5 -81.333 -19.5 -126s6.16699 -86.667 18.5 -126s30.666 -73.833 54.999 -103.5s54.666 -53 90.999 -70s78.5 -25.5 126.5 -25.5c36 0 69.667 6.16699 101 18.5
s58.666 29.5 81.999 51.5s41.666 48.167 54.999 78.5s20 63.5 20 99.5v21h-266v48z" />
    <glyph glyph-name="H" unicode="H" horiz-adv-x="648" 
d="M92 0h-48v714h48v-319h451v319h48v-714h-48v347h-451v-347z" />
    <glyph glyph-name="I" unicode="I" horiz-adv-x="138" 
d="M93 714v-714h-48v714h48z" />
    <glyph glyph-name="J" unicode="J" horiz-adv-x="463" 
d="M407 714v-521c0 -31.333 -3.66699 -59.666 -11 -84.999s-19 -47.333 -35 -66s-36.833 -33 -62.5 -43s-57.167 -15 -94.5 -15c-35.333 0 -65.5 5 -90.5 15s-45.333 24 -61 42s-27.167 39.167 -34.5 63.5s-11 51.166 -11 80.499v56h49v-56c0 -102 49.333 -153 148 -153
c24.667 0 46.667 3 66 9s35.5 15.833 48.5 29.5s22.833 31.667 29.5 54s10 49.833 10 82.5v507h49z" />
    <glyph glyph-name="K" unicode="K" horiz-adv-x="593" 
d="M92 0h-48v714h48v-398l94.5 83l94.5 83l132.5 116.5l132.5 115.5h75l-350 -308l114 -128.5l117 -131.5l66.5 -74l64.5 -72h-64l-335 376l-27.5 -25l-27.5 -24c-14.667 -12 -29 -24.333 -43 -37l-44 -39v-251z" />
    <glyph glyph-name="L" unicode="L" horiz-adv-x="481" 
d="M491 0h-448v714h48v-666h400v-48z" />
    <glyph glyph-name="M" unicode="M" horiz-adv-x="780" 
d="M719 714v-714h-49l-2 605l-50.5 -113.5l-49.5 -113.5l-83 -189.5l-83 -188.5h-40l-269 606v-606h-48v714h56l282 -638l84 190.5l84 192.5l56.5 127.5l55.5 127.5h56z" />
    <glyph glyph-name="N" unicode="N" horiz-adv-x="648" 
d="M95 714l448 -631v631h48v-714h-51l-448 631v-631h-48v714h51z" />
    <glyph glyph-name="O" unicode="O" horiz-adv-x="721" 
d="M23 357c0 50.667 7.33301 98.667 22 144s36 85 64 119s62.5 61 103.5 81s88.167 30 141.5 30s100.5 -10 141.5 -30s75.5 -47 103.5 -81s49.167 -73.667 63.5 -119s21.5 -93.333 21.5 -144s-7.16699 -98.667 -21.5 -144s-35.5 -85 -63.5 -119s-62.5 -60.833 -103.5 -80.5
s-88.167 -29.5 -141.5 -29.5s-100.5 9.83301 -141.5 29.5s-75.5 46.5 -103.5 80.5s-49.333 73.667 -64 119s-22 93.333 -22 144zM71 357c0.666992 -47.333 7.5 -90.833 20.5 -130.5s31.667 -73.834 56 -102.501s53.833 -51.167 88.5 -67.5s74 -24.5 118 -24.5
s83.167 8.16699 117.5 24.5s63.666 38.833 87.999 67.5s43 62.834 56 102.501s19.833 83.167 20.5 130.5c-0.666992 46.667 -7.5 90 -20.5 130s-31.667 74.333 -56 103s-53.666 51.167 -87.999 67.5s-73.5 24.5 -117.5 24.5s-83.333 -8.16699 -118 -24.5
s-64.167 -38.833 -88.5 -67.5s-43 -63 -56 -103s-19.833 -83.333 -20.5 -130z" />
    <glyph glyph-name="P" unicode="P" horiz-adv-x="574" 
d="M44 0l-0.000976562 714.001h291c70.667 0 125.5 -16.833 164.5 -50.5s58.5 -83.834 58.5 -150.501c0 -32.667 -5.83301 -61.5 -17.5 -86.5s-27.667 -46 -48 -63s-44.666 -29.833 -72.999 -38.5s-59.5 -13 -93.5 -13h-234v-312h-48zM334.999 360.001
c24.667 0 47.667 3.33301 69 10s39.833 16.5 55.5 29.5s28 29 37 48s13.5 40.833 13.5 65.5c0 50 -14.333 88 -43 114s-72.667 39 -132 39h-243v-306h243z" />
    <glyph glyph-name="Q" unicode="Q" horiz-adv-x="721" 
d="M555 52c-26 -21.333 -55.668 -38.002 -89.001 -50.002s-70.666 -18 -111.999 -18c-53.333 0 -100.5 9.83301 -141.5 29.5s-75.5 46.5 -103.5 80.5s-49.333 73.667 -64 119s-22 93.333 -22 144s7.33301 98.667 22 144s36 85 64 119s62.5 61 103.5 81s88.167 30 141.5 30
s100.5 -10 141.5 -30s75.5 -47 103.5 -81s49.167 -73.667 63.5 -119s21.5 -93.333 21.5 -144c0 -53.333 -7.83301 -103.5 -23.5 -150.5s-39.5 -87.833 -71.5 -122.5c11.333 -8 23 -15.833 35 -23.5s23.667 -15.5 35 -23.5c6 -3.33301 12.833 -7.66602 20.5 -12.999
s14.167 -9.66602 19.5 -12.999l-28 -37zM423.999 199.998l125.998 -86.999c56.667 58 85.334 139.333 86.001 244c-0.666992 46.667 -7.5 90 -20.5 130s-31.667 74.333 -56 103s-53.666 51.167 -87.999 67.5s-73.5 24.5 -117.5 24.5s-83.333 -8.16699 -118 -24.5
s-64 -38.833 -88 -67.5s-42.5 -63 -55.5 -103s-19.833 -83.333 -20.5 -130c0.666992 -47.333 7.5 -90.833 20.5 -130.5s31.5 -73.834 55.5 -102.501s53.333 -51.167 88 -67.5s74 -24.5 118 -24.5c30 0 58.5 4.33301 85.5 13s51.167 20.667 72.5 36l-52 36l-52 36
c-4 2 -7.66699 4.66699 -11 8z" />
    <glyph glyph-name="R" unicode="R" horiz-adv-x="611" 
d="M44 0v714.001h294c76.667 0 132.834 -15.333 168.501 -46s54.167 -78.667 55.5 -144c1.33301 -40.667 -7.33398 -75.834 -26.001 -105.501s-45.667 -53.167 -81 -70.5c20 -6.66699 36.167 -15.834 48.5 -27.501s22 -25.5 29 -41.5s11.667 -34.333 14 -55
s3.5 -43.334 3.5 -68.001c0 -9.33301 0.5 -21.166 1.5 -35.499s2.83301 -29.166 5.5 -44.499s5.83398 -29.833 9.50098 -43.5s8.5 -24.5 14.5 -32.5h-59c-4 9.33301 -7.33301 20.833 -10 34.5s-4.83398 27.667 -6.50098 42s-2.66699 28.833 -3 43.5s-0.5 27.667 -0.5 39
c0 26 -1.83301 49 -5.5 69s-11.5 36.833 -23.5 50.5s-29 24.167 -51 31.5s-51 11 -87 11h-243v-321h-48zM334 370.001c23.333 0 45.832 2.99902 67.499 8.99902s40.834 15.333 57.501 28s30 28.834 40 48.501s15 43.167 15 70.5c-0.666992 44 -14.167 78.333 -40.5 103
s-69.833 37 -130.5 37h-251v-296h242z" />
    <glyph glyph-name="S" unicode="S" horiz-adv-x="611" 
d="M501 505c-1.33301 33.333 -7.33398 61.3271 -18.001 83.9941s-25.334 40.834 -44.001 54.501s-40.5 23.5 -65.5 29.5s-51.833 9 -80.5 9c-22.667 0 -45.834 -2.16699 -69.501 -6.5s-45.167 -12 -64.5 -23s-35.166 -25.667 -47.499 -44s-18.5 -41.5 -18.5 -69.5
c0 -24 5.33301 -44.167 16 -60.5s25 -29.666 43 -39.999s38.5 -18.833 61.5 -25.5s46.5 -12.667 70.5 -18c2.66699 -0.666992 5.33398 -1.16699 8.00098 -1.5s5.33398 -0.833008 8.00098 -1.5c3.33301 -0.666992 6.66602 -1.16699 9.99902 -1.5s6.33301 -1.16602 9 -2.49902
c5.33301 -2 10.333 -3.66699 15 -5s8.33398 -2.33301 11.001 -3c30.667 -8 59.167 -16.167 85.5 -24.5s49.333 -19.333 69 -33s35 -31.5 46 -53.5s16.5 -51 16.5 -87c0 -35.333 -7.5 -65.5 -22.5 -90.5s-34.5 -45.5 -58.5 -61.5s-51.333 -27.667 -82 -35
s-61.334 -11 -92.001 -11c-41.333 0 -79.5 5 -114.5 15s-65.167 26 -90.5 48s-44.833 50.167 -58.5 84.5s-20.167 75.833 -19.5 124.5h48c0 -40.667 5.83301 -75.167 17.5 -103.5s27.834 -51.5 48.501 -69.5s45.5 -31 74.5 -39s60.5 -12 94.5 -12
c24.667 0 49.5 2.83301 74.5 8.5s47.167 14.5 66.5 26.5s35.166 27.5 47.499 46.5s18.5 42.167 18.5 69.5c0 28 -5.66699 50.667 -17 68s-26 31.333 -44 42s-38.167 19 -60.5 25s-44.833 11.667 -67.5 17l-42 10c-1.33301 0.666992 -1.66602 0.5 -0.999023 -0.5
s0.333984 -1.16699 -0.999023 -0.5c-5.33301 2.66699 -9.33301 4 -12 4c-28 6 -55.5 12.833 -82.5 20.5s-51 18.334 -72 32.001s-38 31.5 -51 53.5s-19.5 50.333 -19.5 85c0 36.667 7.5 67.334 22.5 92.001s34.333 44.334 58 59.001s50.334 25.167 80.001 31.5
s59.167 9.5 88.5 9.5c35.333 0 68.166 -4.16699 98.499 -12.5s56.666 -22 78.999 -41s40.5 -43.5 54.5 -73.5s22 -67 24 -111h-36z" />
    <glyph glyph-name="T" unicode="T" 
d="M-25 714h541v-48h-247v-666h-48v666h-246v48z" />
    <glyph glyph-name="U" unicode="U" horiz-adv-x="632" 
d="M575 714v-445c0 -97.333 -22.333 -169.166 -67 -215.499s-110.667 -69.5 -198 -69.5s-153.5 23.167 -198.5 69.5s-67.5 118.166 -67.5 215.499v445h48v-445c0 -78 17.667 -137 53 -177s90.333 -60 165 -60s129.5 20 164.5 60s52.5 99 52.5 177v445h48z" />
    <glyph glyph-name="V" unicode="V" horiz-adv-x="538" 
d="M560 714l-271 -714h-43l-278 714h50l250 -635l40.5 106.5l40.5 106.5l80 211.5l80 210.5h51z" />
    <glyph glyph-name="W" unicode="W" horiz-adv-x="870" 
d="M874 714l-208 -714h-49l-192 622l-92.5 -311.5l-93.5 -310.5h-49l-210 714h51l184 -621l93 311.5l93 309.5h51l191 -622l89 311.5l90 310.5h52z" />
    <glyph glyph-name="X" unicode="X" horiz-adv-x="520" 
d="M547 714l-260 -347l65 -88l67 -91l71 -95l69 -93h-61l-243 327l-89.5 -120l-90.5 -122l-33 -42.5l-31 -42.5h-60l275 367l-22 28.5l-22 28.5l-109.5 147l-107.5 143h61l229 -308l117 154l116 154h59z" />
    <glyph glyph-name="Y" unicode="Y" horiz-adv-x="538" 
d="M579 714l-291 -415v-299h-48v300l-74 105l-75 108l-72 102l-69 99h60l253 -366l128.5 183.5l128.5 182.5h59z" />
    <glyph glyph-name="Z" unicode="Z" 
d="M507 0h-534v45l464 621h-438v48h500v-45l-465 -621h473v-48z" />
    <glyph glyph-name="bracketleft" unicode="[" horiz-adv-x="222" 
d="M216 671h-88v-790h88v-47h-135v885h135v-48z" />
    <glyph glyph-name="backslash" unicode="\" horiz-adv-x="333" 
d="M-23 719h49l322 -734h-51z" />
    <glyph glyph-name="bracketright" unicode="]" horiz-adv-x="222" 
d="M0 -119h88v790h-88v48h135v-885h-135v47z" />
    <glyph glyph-name="asciicircum" unicode="^" horiz-adv-x="600" 
d="M492 214l-201 391l-49 -95l-49 -95l-52 -101l-51 -100h-50l235 457h34l234 -457h-51z" />
    <glyph glyph-name="underscore" unicode="_" 
d="M-7 -41h501v-76h-501v76z" />
    <glyph glyph-name="grave" unicode="`" horiz-adv-x="130" 
d="M0 719l143 -165h-52l-158 165h67z" />
    <glyph glyph-name="a" unicode="a" horiz-adv-x="481" 
d="M44 347c0.666992 25.333 5.33203 48.835 13.999 70.502s21.334 40.5 38.001 56.5s37.167 28.667 61.5 38s52.833 14 85.5 14c23.333 0 45.5 -2.5 66.5 -7.5s39.333 -13.5 55 -25.5s28.334 -27.833 38.001 -47.5s14.834 -44.167 15.501 -73.5v-308
c0 -5.33301 2 -9.33301 6 -12s9 -4.33398 15 -5.00098s12.667 -0.833984 20 -0.500977s14 0.833008 20 1.5v-48h-42c-17.333 -0 -32.833 4.33301 -46.5 13s-20.5 25 -20.5 49v9c-17.333 -23.333 -41.333 -42.833 -72 -58.5s-66.667 -23.5 -108 -23.5
c-53.333 0 -96.166 12.167 -128.499 36.5s-48.5 60.5 -48.5 108.5c0 32 5.33301 58.167 16 78.5s24.667 36.333 42 48s36.666 19.834 57.999 24.501s42.666 7.66699 63.999 9c4 0.666992 8.66699 1 14 1h11c25.333 1.33301 47.5 3 66.5 5s34.833 5.16699 47.5 9.5
s22.167 10.166 28.5 17.499s9.5 17.666 9.5 30.999c0 12.667 -1.16699 26.167 -3.5 40.5s-7.83301 27.333 -16.5 39s-21.5 21.334 -38.5 29.001s-39.833 11.5 -68.5 11.5c-46.667 0 -82.834 -12.333 -108.501 -37s-40.167 -60 -43.5 -106h-36zM188.998 36.002
c29.333 0 55.1709 4.99902 77.5039 14.999s41.166 23 56.499 39s27 34.5 35 55.5s12 42.5 12 64.5v60c-17.333 -8.66699 -38.5 -14.167 -63.5 -16.5s-50.5 -4.16602 -76.5 -5.49902c-2.66699 0 -5.5 -0.166992 -8.5 -0.5s-6.16699 -0.5 -9.5 -0.5
c-6.66699 0 -11.334 -0.333008 -14.001 -1c-17.333 -1.33301 -34.333 -3.5 -51 -6.5s-31.334 -8.5 -44.001 -16.5s-22.834 -19 -30.501 -33s-11.5 -32.667 -11.5 -56c0 -12 2.16699 -24 6.5 -36s11.5 -22.5 21.5 -31.5s23.167 -16.333 39.5 -22s36.5 -8.5 60.5 -8.5z
M386.003 297.001l-16 15v-44l14 11.5c4.66699 3.66699 8.66699 8.16699 12 13.5l-5 6z" />
    <glyph glyph-name="b" unicode="b" horiz-adv-x="537" 
d="M93 430c18 29.333 42.3311 52.6699 72.998 70.0029s67 26 109 26c35.333 0 66.833 -7.33301 94.5 -22s50.834 -34.5 69.501 -59.5s32.834 -53.667 42.501 -86s14.5 -66.5 14.5 -102.5c0 -38.667 -5.16699 -74.334 -15.5 -107.001s-25 -60.834 -44 -84.501
s-42.167 -42.167 -69.5 -55.5s-58 -20 -92 -20c-40 0 -75.5 8.66699 -106.5 26s-56.167 40.666 -75.5 69.999v-85h-47v703h47v-273zM92.998 256.004c0 -29.333 4.00195 -57.333 12.002 -84s19.833 -50 35.5 -70s34.667 -36 57 -48s48.166 -18 77.499 -18
c28.667 0 54 6 76 18s40.167 28 54.5 48s25.166 43.333 32.499 70s11 54.667 11 84c0 26.667 -3.33301 53.167 -10 79.5s-17 50 -31 71s-32 38.167 -54 51.5s-48.333 20 -79 20c-55.333 0 -99.5 -19 -132.5 -57s-49.5 -93 -49.5 -165z" />
    <glyph glyph-name="c" unicode="c" 
d="M464 181c-2.66699 -29.333 -9.83203 -55.835 -21.499 -79.502s-26.834 -43.834 -45.501 -60.501s-40.5 -29.5 -65.5 -38.5s-51.833 -13.5 -80.5 -13.5c-36.667 0 -69.167 6.83301 -97.5 20.5s-52.333 32.334 -72 56.001s-34.5 51 -44.5 82s-15 63.833 -15 98.5
c0 36.667 4.83301 72 14.5 106s24.334 63.833 44.001 89.5s44.667 46.167 75 61.5s66.166 23 107.499 23c24.667 0 48.167 -4.16699 70.5 -12.5s42.5 -20.5 60.5 -36.5s33 -35.667 45 -59s19.667 -50 23 -80h-48c-7.33301 48 -25 83.333 -53 106s-60.667 34 -98 34
c-36 0 -66.5 -7 -91.5 -21s-45 -32.167 -60 -54.5s-25.833 -47.333 -32.5 -75s-10 -54.834 -10 -81.501c0 -27.333 4 -53.666 12 -78.999s19.667 -47.666 35 -66.999s34.333 -34.833 57 -46.5s48.667 -17.5 78 -17.5c22 0 42.667 3.66699 62 11s36.333 17.833 51 31.5
s26.667 30.334 36 50.001s15 41.5 17 65.5h35z" />
    <glyph glyph-name="d" unicode="d" horiz-adv-x="537" 
d="M470 703l-0.00390625 -703.002h-48l-2 85c-19.333 -28 -44.666 -51 -75.999 -69s-66 -27 -104 -27c-34 0 -64.667 6.66699 -92 20s-50.5 31.833 -69.5 55.5s-33.667 51.834 -44 84.501s-15.5 68.334 -15.5 107.001c0 36 4.83301 70.167 14.5 102.5s23.834 61 42.501 86
s41.834 44.833 69.501 59.5s59.167 22 94.5 22c40.667 0 76.334 -8.66699 107.001 -26s55.667 -40.333 75 -69v272h48zM421.996 255.998c0 72 -16.5 127 -49.5 165s-77.167 57 -132.5 57c-30.667 0 -56.834 -6.66699 -78.501 -20s-39.5 -30.5 -53.5 -51.5
s-24.333 -44.667 -31 -71s-10 -52.833 -10 -79.5c0 -29.333 3.5 -57.333 10.5 -84s17.833 -50 32.5 -70s32.667 -36 54 -48s46.666 -18 75.999 -18c28.667 0 54.334 6 77.001 18s41.834 28 57.501 48s27.5 43.333 35.5 70s12 54.667 12 84z" />
    <glyph glyph-name="e" unicode="e" 
d="M64 239c2 -28.667 6.50293 -55.334 13.5029 -80.001s17.5 -46.167 31.5 -64.5s31.833 -32.666 53.5 -42.999s47.834 -15.5 78.501 -15.5c48 0 87.667 13.333 119 40s50.666 67 57.999 121h48c-8.66699 -66 -33.167 -117.167 -73.5 -153.5s-90.166 -54.5 -149.499 -54.5
c-40 -0.666992 -74.333 5.83301 -103 19.5s-52.167 32.5 -70.5 56.5s-31.833 52.5 -40.5 85.5s-13 68.5 -13 106.5c0 42.667 6.33301 80.667 19 114s29.5 61.5 50.5 84.5s45.167 40.5 72.5 52.5s55.666 18 84.999 18c40 0 74.667 -8.16699 104 -24.5
s53.166 -37.833 71.499 -64.5s31.666 -57.167 39.999 -91.5s12.166 -69.833 11.499 -106.5h-406zM245.003 478c-23.333 0 -45.1699 -4.66309 -65.5029 -13.9961s-38.333 -22.333 -54 -39s-28.667 -36.834 -39 -60.501s-17.166 -49.834 -20.499 -78.501h356
c-1.33301 26 -6.16602 50.667 -14.499 74s-20 43.666 -35 60.999s-33.167 31.166 -54.5 41.499s-45.666 15.5 -72.999 15.5zM449.999 286.004h-28v-27z" />
    <glyph glyph-name="f" unicode="f" horiz-adv-x="204" 
d="M-11 514l82 0.000976562v93c0 22.667 3.5 40.5 10.5 53.5s16 22.667 27 29s22.833 10.166 35.5 11.499s25 2 37 2c11.333 0 20.333 -0.666992 27 -2c1.33301 0 2.5 -0.166992 3.5 -0.5s2.16699 -0.5 3.5 -0.5c2 -0.666992 5 -1 9 -1h12v-51
c-16 3.33301 -28.333 5.33301 -37 6s-16 1 -22 1c-24.667 0 -40.5 -4.33301 -47.5 -13s-10.5 -22.667 -10.5 -42v-86h105v-48h-105v-466h-48v466h-82v48z" />
    <glyph glyph-name="g" unicode="g" horiz-adv-x="519" 
d="M244 -129c54.667 0 96.5029 12.668 125.503 38.001s43.5 65.666 43.5 120.999v85c-20 -27.333 -46.333 -49 -79 -65s-65.334 -24 -98.001 -24c-36 0 -67.667 6.66699 -95 20s-50 31.166 -68 53.499s-31.5 48.5 -40.5 78.5s-13.5 61.667 -13.5 95
c0 34.667 4.66699 67.334 14 98.001s23.333 57.5 42 80.5s42 41.167 70 54.5s60.333 20 97 20c36 0 69 -8.33301 99 -25s54 -38 72 -64v77h48v-484c0 -71.333 -18.833 -123.833 -56.5 -157.5s-90.834 -50.5 -159.501 -50.5c-26.667 0 -51.834 3.33301 -75.501 10
s-44.5 17.334 -62.5 32.001s-32.667 33.5 -44 56.5s-17.333 50.833 -18 83.5h48c0.666992 -24 5.16699 -44.333 13.5 -61s19.333 -30.334 33 -41.001s29.5 -18.5 47.5 -23.5s37 -7.5 57 -7.5zM412.003 273.001c0 26 -3.66699 51.334 -11 76.001s-18 46.5 -32 65.5
s-31.667 34.333 -53 46s-46 17.5 -74 17.5c-29.333 0 -54.833 -5.5 -76.5 -16.5s-40 -25.833 -55 -44.5s-26.167 -40.334 -33.5 -65.001s-11 -51 -11 -79s3.66699 -54 11 -78s18.166 -45 32.499 -63s32 -32.167 53 -42.5s45.167 -15.5 72.5 -15.5
c28.667 0 54.167 5.33301 76.5 16s40.833 25 55.5 43s25.834 39 33.501 63s11.5 49.667 11.5 77z" />
    <glyph glyph-name="h" unicode="h" 
d="M92 703l2 -253.999c16 24.667 37.333 43.667 64 57s58.667 20 96 20c27.333 0 52.5 -4.16699 75.5 -12.5s42.833 -20.5 59.5 -36.5s29.667 -35.833 39 -59.5s14 -50.834 14 -81.501v-336h-48v334c0 25.333 -3.66699 47.166 -11 65.499s-17.5 33.333 -30.5 45
s-28 20.167 -45 25.5s-34.833 8 -53.5 8c-26.667 0 -50 -5.16699 -70 -15.5s-36.833 -24.166 -50.5 -41.499s-24 -37.333 -31 -60s-10.5 -46.667 -10.5 -72v-289h-47v703h47z" />
    <glyph glyph-name="i" unicode="i" horiz-adv-x="130" 
d="M40 579v124h47v-124h-47zM40 0v514h47v-514h-47z" />
    <glyph glyph-name="j" unicode="j" horiz-adv-x="130" 
d="M38 579v124h47v-124h-47zM85 -56c0 -25.333 -3.16797 -45.333 -9.50098 -60s-15.833 -25.667 -28.5 -33s-28 -12 -46 -14s-38.333 -3 -61 -3v47c18 0 33.333 0.5 46 1.5s22.834 3.83301 30.501 8.5s13.167 11.667 16.5 21s5 22.333 5 39v563h47v-570z" />
    <glyph glyph-name="k" unicode="k" horiz-adv-x="444" 
d="M93 0l-48 0.00195312v703h48v-451l76 63l77 64l81 68l81 67h73l-243 -201l43 -53.5l44 -56.5l82 -103l79 -100h-62l-223 282c-3.33301 -2.66699 -6.33301 -5.33398 -9 -8.00098s-5.66699 -5.33398 -9 -8.00098l-45 -38l-45 -37v-191z" />
    <glyph glyph-name="l" unicode="l" horiz-adv-x="137" 
d="M92 703v-703h-47v703h47z" />
    <glyph glyph-name="m" unicode="m" horiz-adv-x="778" 
d="M96 514l2.00195 -66.002c15.333 23.333 35.166 42.166 59.499 56.499s51.166 21.5 80.499 21.5c33.333 1.33301 63 -6.5 89 -23.5s46 -38.5 60 -64.5c15.333 26 36.166 47.167 62.499 63.5s56.166 24.5 89.499 24.5c32 0 58.833 -4.66699 80.5 -14s39 -22.5 52 -39.5
s22.333 -37.333 28 -61s8.5 -49.5 8.5 -77.5v-334h-48v334c0 21.333 -1.83301 40.833 -5.5 58.5s-10.167 32.834 -19.5 45.501s-21.833 22.5 -37.5 29.5s-35.167 10.5 -58.5 10.5c-21.333 0 -40.5 -4.16699 -57.5 -12.5s-31.333 -19.666 -43 -33.999s-20.667 -31 -27 -50
s-9.5 -38.833 -9.5 -59.5v-322h-48v326c0 20.667 -1.5 40.167 -4.5 58.5s-8.66699 34.5 -17 48.5s-20.166 25 -35.499 33s-35 12 -59 12c-22 0 -41.667 -5.16699 -59 -15.5s-32.166 -24.166 -44.499 -41.499s-21.833 -37.333 -28.5 -60s-10 -46.667 -10 -72v-289h-47v514h47
z" />
    <glyph glyph-name="n" unicode="n" 
d="M92 514l2 -66c16 24.667 37.5 43.834 64.5 57.501s58.833 20.5 95.5 20.5c27.333 0 52.5 -4.16699 75.5 -12.5s42.833 -20.5 59.5 -36.5s29.667 -35.833 39 -59.5s14 -50.834 14 -81.501v-336h-48v334c0 25.333 -3.66699 47.166 -11 65.499s-17.5 33.333 -30.5 45
s-28 20.167 -45 25.5s-34.833 8 -53.5 8c-26.667 0 -50 -5.16699 -70 -15.5s-36.833 -24.166 -50.5 -41.499s-24 -37.333 -31 -60s-10.5 -46.667 -10.5 -72v-289h-47v514h47z" />
    <glyph glyph-name="o" unicode="o" horiz-adv-x="519" 
d="M67 257c0 -29.333 4 -57.166 12 -83.499s19.833 -49.833 35.5 -70.5s35 -37 58 -49s49.833 -18 80.5 -18c30 0 56.5 6 79.5 18s42.333 28.333 58 49s27.5 44.167 35.5 70.5s12 54.166 12 83.499c0 28 -4 55.333 -12 82s-19.833 50.334 -35.5 71.001s-35 37.167 -58 49.5
s-49.5 18.5 -79.5 18.5c-30.667 0 -57.5 -6.16699 -80.5 -18.5s-42.333 -28.833 -58 -49.5s-27.5 -44.334 -35.5 -71.001s-12 -54 -12 -82zM19 257c0 34.667 4.99902 68.334 14.999 101.001s25 61.334 45 86.001s44.5 44.5 73.5 59.5s62.5 22.5 100.5 22.5
c37.333 0 70.333 -7.5 99 -22.5s52.834 -34.833 72.501 -59.5s34.667 -53.334 45 -86.001s15.5 -66.334 15.5 -101.001c0 -35.333 -5 -69.166 -15 -101.499s-24.833 -60.833 -44.5 -85.5s-44 -44.334 -73 -59.001s-62.5 -22 -100.5 -22c-37.333 0 -70.5 7.33301 -99.5 22
s-53.333 34.334 -73 59.001s-34.667 53.167 -45 85.5s-15.5 66.166 -15.5 101.499z" />
    <glyph glyph-name="p" unicode="p" horiz-adv-x="537" 
d="M46 -166l0.00195312 680.001h47l2 -84c18.667 30 43.334 53.5 74.001 70.5s66 25.5 106 25.5c34 0 64.667 -6.66699 92 -20s50.5 -32 69.5 -56s33.667 -52.333 44 -85s15.5 -68.334 15.5 -107.001c0 -36 -4.83301 -70.333 -14.5 -103s-23.834 -61.167 -42.501 -85.5
s-41.834 -43.833 -69.501 -58.5s-59.167 -22 -94.5 -22c-40.667 0 -76.334 8.5 -107.001 25.5s-55.667 39.833 -75 68.5v-249h-47zM275.002 36.001c30.667 0 56.998 6.66699 78.998 20s40 30.5 54 51.5s24.333 44.667 31 71s10 52.833 10 79.5
c0 29.333 -3.66699 57.333 -11 84s-18.166 50 -32.499 70s-32.5 36 -54.5 48s-47.333 18 -76 18c-29.333 0 -55.166 -6 -77.499 -18s-41.333 -28 -57 -48s-27.5 -43.333 -35.5 -70s-12 -54.667 -12 -84c0 -72 16.5 -127 49.5 -165s77.167 -57 132.5 -57z" />
    <glyph glyph-name="q" unicode="q" horiz-adv-x="537" 
d="M422 258c0 29.333 -4 57.333 -12 84s-19.833 50 -35.5 70s-34.834 36 -57.501 48s-48.334 18 -77.001 18c-29.333 0 -54.666 -6 -75.999 -18s-39.333 -28 -54 -48s-25.5 -43.333 -32.5 -70s-10.5 -54.667 -10.5 -84c0 -26.667 3.33301 -53.167 10 -79.5s17 -50 31 -71
s31.833 -38.167 53.5 -51.5s47.834 -20 78.501 -20c55.333 0 99.5 19 132.5 57s49.5 93 49.5 165zM470 514l0.00195312 -680.001h-48l-2 247c-18.667 -28 -43.334 -50.333 -74.001 -67s-66 -25 -106 -25c-35.333 0 -66.833 7.33301 -94.5 22s-50.834 34.167 -69.501 58.5
s-32.834 52.833 -42.501 85.5s-14.5 67 -14.5 103c0 38.667 5.16699 74.334 15.5 107.001s25 61 44 85s42.167 42.667 69.5 56s58 20 92 20c40.667 0 76.334 -8.66699 107.001 -26s55.667 -41 75 -71v85h48z" />
    <glyph glyph-name="r" unicode="r" horiz-adv-x="259" 
d="M42 0l0.000976562 513.999h48l2 -69c17.333 24 41.333 43.833 72 59.5s70 22.834 118 21.501v-49c-33.333 2 -62 -2 -86 -12s-43.833 -24 -59.5 -42s-27.334 -38.667 -35.001 -62s-11.5 -47.333 -11.5 -72v-289h-48z" />
    <glyph glyph-name="s" unicode="s" horiz-adv-x="463" 
d="M360 353c0 44.667 -13.165 76.6641 -39.498 95.9971s-60.5 29 -102.5 29c-30.667 0 -54.834 -4 -72.501 -12s-30.834 -17 -39.501 -27s-14.167 -19.833 -16.5 -29.5s-3.5 -16.5 -3.5 -20.5c0 -20.667 4.33301 -36.167 13 -46.5s19.667 -18.5 33 -24.5
c11.333 -5.33301 24 -9.83301 38 -13.5l44 -11.5c6 -1.33301 12.5 -3 19.5 -5s13.833 -3.66699 20.5 -5c19.333 -5.33301 39 -11.166 59 -17.499s38 -14.833 54 -25.5s29 -24.167 39 -40.5s15 -36.833 15 -61.5c0 -27.333 -5.66699 -50.5 -17 -69.5s-26 -34.333 -44 -46
s-38.333 -20.167 -61 -25.5s-45.334 -8 -68.001 -8c-70 0 -122.5 16.5 -157.5 49.5s-52.5 85.167 -52.5 156.5h47c0 -55.333 14 -95.666 42 -120.999s68.333 -38 121 -38c16 0 32.333 1.83301 49 5.5s32 9.5 46 17.5s25.333 18.333 34 31s13 28 13 46
c0 16.667 -4 30.5 -12 41.5s-18.667 20.333 -32 28s-28.333 14 -45 19s-33.667 9.5 -51 13.5l-15 3c-23.333 6 -44.166 11.833 -62.499 17.5s-34.833 11.5 -49.5 17.5c-44.667 20 -67 57.667 -67 113c0 14.667 3.16699 30 9.5 46s16.5 30.833 30.5 44.5
s32.333 24.834 55 33.501s50.667 13 84 13c58.667 0 105 -14.5 139 -43.5s51 -76.167 51 -141.5h-36z" />
    <glyph glyph-name="t" unicode="t" horiz-adv-x="241" 
d="M122 109c0 -14.667 1.49707 -26.167 4.49707 -34.5s6.83301 -14.5 11.5 -18.5s10 -6.33301 16 -7s12 -1 18 -1c8 0 16 0.333008 24 1s18.667 3.66699 32 9v-55c-1.33301 0 -3.66602 -0.166992 -6.99902 -0.5s-5.66602 -0.5 -6.99902 -0.5h-7
c-4 -0.666992 -9.16699 -1.16699 -15.5 -1.5s-14.166 -0.5 -23.499 -0.5c-26.667 0 -49 7.5 -67 22.5s-27 42.5 -27 82.5v361h-89v48h89v153h48v-153h109v-48h-109v-357z" />
    <glyph glyph-name="u" unicode="u" 
d="M394 0l-2 68.001c-17.333 -24 -39.333 -43.167 -66 -57.5s-58 -21.5 -94 -21.5c-27.333 0 -52.5 4 -75.5 12s-42.833 20 -59.5 36s-29.5 35.667 -38.5 59s-13.5 50.666 -13.5 81.999v336h47v-334c0 -25.333 3.66699 -47.166 11 -65.499s17.5 -33.333 30.5 -45
s27.833 -20.167 44.5 -25.5s34.667 -8 54 -8c26.667 0 50 5.16699 70 15.5s36.833 24.166 50.5 41.499s24 37.333 31 60s10.5 46.667 10.5 72v289h48v-514h-48z" />
    <glyph glyph-name="v" unicode="v" horiz-adv-x="407" 
d="M423 514l-195 -514h-44l-211 514h54l180 -440l82.5 220l81.5 220h52z" />
    <glyph glyph-name="w" unicode="w" horiz-adv-x="685" 
d="M684 514l-164 -514h-46l-141 433l-65.5 -200l-66.5 -200v1c-1.33301 -4.66699 -3 -10.167 -5 -16.5s-3.66699 -12.166 -5 -17.499h-49l-159 514h50l134 -433l17 53l17 53l52.5 165l52.5 162h52l140 -432l14.5 49c5 17.333 10.167 33.666 15.5 48.999l53 169l53 165h50z
" />
    <glyph glyph-name="x" unicode="x" horiz-adv-x="407" 
d="M416 514l-188.998 -248l32.5 -42.5l33.5 -43.5l71.5 -92l68.5 -88h-59l-177 229c-8.66699 -10.667 -16.834 -21.5 -24.501 -32.5s-15.834 -21.833 -24.501 -32.5l-63.5 -83l-62.5 -81h-58l204 266l-57 74l-57 76l-37.5 50c-13 18 -25.167 34 -36.5 48h62l155 -211
l32.5 43l32.5 42l96 126h58z" />
    <glyph glyph-name="y" unicode="y" horiz-adv-x="407" 
d="M423 514l-232.001 -603c-7.33301 -18.667 -16.166 -33.167 -26.499 -43.5s-22.166 -18 -35.499 -23s-28 -8 -44 -9s-33 -1.5 -51 -1.5v47c17.333 0 32.166 0.5 44.499 1.5s22.833 3.33301 31.5 7s16 9 22 16s11.667 16.833 17 29.5l32 84l-35 84l-36 85l-69.5 165
l-67.5 161h52l183 -433l60 159.5l60 158.5l21.5 58l21.5 57h52z" />
    <glyph glyph-name="z" unicode="z" horiz-adv-x="407" 
d="M399 0h-403v43l325 423h-299v48h362v-43l-324 -423h339v-48z" />
    <glyph glyph-name="braceleft" unicode="{" horiz-adv-x="333" 
d="M222 -166c-32 0 -53.834 9.49805 -65.501 28.498s-17.5 49.167 -17.5 90.5v153c0 36 -4.5 66.333 -13.5 91s-27.167 46.334 -54.5 65.001v38c10.667 2 20.167 7.5 28.5 16.5s15.5 20.167 21.5 33.5s10.5 28.333 13.5 45s4.5 33.667 4.5 51v155
c0 41.333 5.83301 71.333 17.5 90s33.5 28 65.5 28h62v-48h-60c-13.333 0 -23 -6 -29 -18s-9 -34.667 -9 -68v-155c0 -12.667 -1.16699 -26.167 -3.5 -40.5s-5.66602 -28.5 -9.99902 -42.5s-10 -27.167 -17 -39.5s-15.167 -22.5 -24.5 -30.5
c17.333 -15.333 30.833 -36.666 40.5 -63.999s14.5 -57.666 14.5 -90.999v-152c0 -18 0.833008 -32.833 2.5 -44.5s4 -20.834 7 -27.501s7 -11.167 12 -13.5s10.5 -3.5 16.5 -3.5h60v-47h-62v0z" />
    <glyph glyph-name="bar" unicode="|" horiz-adv-x="222" 
d="M84 771h48v-972h-48v972z" />
    <glyph glyph-name="braceright" unicode="}" horiz-adv-x="333" 
d="M101 719c32.667 0 54.835 -9.66992 66.502 -29.0029s17.5 -49.666 17.5 -90.999v-153c0 -36 4.33301 -66.667 13 -92s27 -46.666 55 -63.999v-39c-10.667 -2 -20.167 -7.33301 -28.5 -16s-15.5 -19.667 -21.5 -33s-10.5 -28.333 -13.5 -45s-4.5 -33.667 -4.5 -51v-155
c0 -41.333 -5.83301 -71.166 -17.5 -89.499s-33.834 -27.5 -66.501 -27.5h-61v47h59c14 0 23.833 6.16699 29.5 18.5s8.5 35.166 8.5 68.499v154c0 12.667 1.16699 26.167 3.5 40.5s5.66602 28.5 9.99902 42.5s10 27 17 39s15.5 22.333 25.5 31
c-18 14.667 -31.833 35.834 -41.5 63.501s-14.5 58.167 -14.5 91.5v153c0 36 -3 59.667 -9 71s-15.667 17 -29 17h-59v48h61v0z" />
    <glyph glyph-name="asciitilde" unicode="~" horiz-adv-x="600" 
d="M515 287l-22.5039 -33.5c-7.66699 -11 -16 -20.667 -25 -29s-19.167 -15 -30.5 -20s-24 -7.5 -38 -7.5c-12.667 0 -24.834 2 -36.501 6s-23.167 8.66699 -34.5 14c-1.33301 0.666992 -2.5 1.16699 -3.5 1.5s-2.16699 0.833008 -3.5 1.5
c-1.33301 0 -3.16602 0.666992 -5.49902 2s-4.16602 2.33301 -5.49902 3s-2.66602 1.16699 -3.99902 1.5s-2.66602 1.16602 -3.99902 2.49902c-1.33301 0.666992 -2.5 1 -3.5 1s-2.16699 0.333008 -3.5 1c2 0 0.833008 0.833008 -3.5 2.5s-7.16602 3.16699 -8.49902 4.5
c-0.666992 0 -1 -0.166992 -1 -0.5s-0.333008 -0.5 -1 -0.5h2h-2v1c-13.333 6 -27.166 11.667 -41.499 17s-30.166 8 -47.499 8s-33 -6.83301 -47 -20.5s-26.667 -31.167 -38 -52.5l-46 16c14.667 28.667 33 52.834 55 72.501s47 30.167 75 31.5
c18 1.33301 37.333 -1.66699 58 -9s40.667 -15.666 60 -24.999v1c1.33301 -0.666992 3.16602 -1.33398 5.49902 -2.00098s6.16602 -2.66699 11.499 -6v1c14 -6.66699 27.5 -12.5 40.5 -17.5s24.167 -7.5 33.5 -7.5c13.333 0 24.5 4.83301 33.5 14.5s18.167 20.5 27.5 32.5
c1.33301 1.33301 2.5 2.83301 3.5 4.5s2.16699 3.5 3.5 5.5l5 7.5c2 3 3.33301 5.16699 4 6.5l32 -11zM294.996 231h-1h1z" />
    <glyph glyph-name="nonbreakingspace" unicode="&#xa0;" horiz-adv-x="278" 
 />
    <glyph glyph-name="exclamdown" unicode="&#xa1;" horiz-adv-x="185" 
d="M115 -166h-48v535h48v-535zM115 419h-48v121h48v-121z" />
    <glyph glyph-name="cent" unicode="&#xa2;" horiz-adv-x="556" 
d="M298 36c40 2 73.167 17.665 99.5 46.998s42.166 66.333 47.499 111h48c-8 -61.333 -30 -109.333 -66 -144s-79 -54.667 -129 -60v-104h-48v104c-34.667 2.66699 -64.667 11.834 -90 27.501s-46.166 35.834 -62.499 60.501s-28.5 52.5 -36.5 83.5s-12 63.167 -12 96.5
c0 32 4 63.5 12 94.5s20.333 58.833 37 83.5s37.667 45 63 61s55 25 89 27v83h48v-82c49.333 -4 91.5 -21.833 126.5 -53.5s56.167 -76.167 63.5 -133.5h-47c-8 44 -24.333 77.333 -49 100s-56 35.667 -94 39v-441zM97 257.998c0 -26 2.99805 -51.5029 8.99805 -76.5029
s15.333 -47.667 28 -68s28.667 -37.166 48 -50.499s42 -21.666 68 -24.999v437c-26 -3.33301 -48.667 -11.666 -68 -24.999s-35.166 -30 -47.499 -50s-21.666 -42.333 -27.999 -67s-9.5 -49.667 -9.5 -75zM249.998 503.995v-29.999c4.66699 1.33301 9 2.16602 13 2.49902
s8.66699 0.5 14 0.5z" />
    <glyph glyph-name="sterling" unicode="&#xa3;" horiz-adv-x="556" 
d="M302 326l-132.996 -0.00195312c7.33301 -18 12.5 -37 15.5 -57s4.5 -39 4.5 -57c0 -26 -3.83301 -50.333 -11.5 -73s-18.834 -44 -33.501 -64c5.33301 1.33301 11.166 2.16602 17.499 2.49902s12.5 0.5 18.5 0.5c15.333 0 30.666 -2 45.999 -6s30 -8.66699 44 -14l8 -3
l44 -16.5c14 -5 28 -7.5 42 -7.5c27.333 0 52 8.16699 74 24.5s45.667 36.5 71 60.5l32 -34c-16 -18.667 -31.333 -34.167 -46 -46.5s-29.167 -22.333 -43.5 -30s-28.666 -13 -42.999 -16s-29.166 -4.5 -44.499 -4.5c-16.667 0 -33.334 2.33301 -50.001 7s-33 10 -49 16
c-2 0 -4.33301 1 -7 3l1 -1c-2 0.666992 -4.66699 1.5 -8 2.5s-6 1.83301 -8 2.5l-32.5 11c-10.333 3.33301 -20.5 5 -30.5 5c-21.333 0 -41.666 -4.66699 -60.999 -14s-39 -21.666 -59 -36.999l-37 38c33.333 28 61.5 58.5 84.5 91.5s34.5 67.167 34.5 102.5
c0 42.667 -8.33301 80.667 -25 114h-77v48h53c-0.666992 0.666992 -1 1.16699 -1 1.5s-0.333008 0.833008 -1 1.5c-6 10.667 -12.167 22.334 -18.5 35.001s-12.166 25.834 -17.499 39.501s-9.83301 27 -13.5 40s-5.5 25.5 -5.5 37.5c0 32.667 6.33301 60.834 19 84.501
s29.667 43.334 51 59.001s45.666 27.334 72.999 35.001s55.666 11.5 84.999 11.5c36 0 68.333 -5 97 -15s53 -24.5 73 -43.5s35.5 -42.167 46.5 -69.5s16.5 -58 16.5 -92v-8.5c0 -3.66699 -0.333008 -7.5 -1 -11.5c-0.666992 -3.33301 -1.16699 -7 -1.5 -11
s-0.5 -9 -0.5 -15h-47c2.66699 34.667 0.166992 65.667 -7.5 93s-19.667 50.166 -36 68.499s-36.333 32.333 -60 42s-50.167 14.5 -79.5 14.5c-22.667 0 -44.834 -2.66699 -66.501 -8s-40.834 -13.833 -57.501 -25.5s-30.167 -26.5 -40.5 -44.5s-15.5 -39.333 -15.5 -64
c0 -20.667 5.33301 -42.334 16 -65.001s21.667 -44.334 33 -65.001c0.666992 -1.33301 1.5 -2.83301 2.5 -4.5s1.83301 -3.16699 2.5 -4.5c1.33301 -2 2.83301 -4.66699 4.5 -8s3.16699 -6 4.5 -8h155v-48z" />
    <glyph glyph-name="currency" unicode="&#xa4;" horiz-adv-x="556" 
d="M471 335c0 27.333 -5.33301 53.333 -16 78s-25.167 46.167 -43.5 64.5s-39.666 32.833 -63.999 43.5s-50.166 16 -77.499 16s-53.166 -5.33301 -77.499 -16s-45.666 -25.167 -63.999 -43.5s-32.833 -39.833 -43.5 -64.5s-16 -50.667 -16 -78s5.33301 -53.166 16 -77.499
s25.167 -45.666 43.5 -63.999s39.666 -32.833 63.999 -43.5s50.166 -16 77.499 -16s53.166 5.33301 77.499 16s45.666 25.167 63.999 43.5s32.833 39.666 43.5 63.999s16 50.166 16 77.499zM517 547l-54.999 -53.998c8 -11.333 15.333 -23.5 22 -36.5s12.667 -26.5 18 -40.5
s9.5 -27.833 12.5 -41.5s4.5 -26.834 4.5 -39.501c0 -28 -4.83301 -55.333 -14.5 -82s-23.834 -51.667 -42.501 -75l55 -55l-35 -35l-54 55c-23.333 -17.333 -48.5 -30.833 -75.5 -40.5s-54.5 -14.834 -82.5 -15.501c-28 0 -55.5 4.83301 -82.5 14.5
s-52.167 23.5 -75.5 41.5l-54 -55l-35 35l55 55c-18.667 23.333 -32.834 48.333 -42.501 75s-14.5 54 -14.5 82c0.666992 28 6 55.5 16 82.5s23.667 52.167 41 75.5l-27.5 27.5l-27.5 26.5l35 35l54 -54c23.333 18.667 48.5 32.667 75.5 42s54.5 14 82.5 14
c28.667 0 56.334 -4.5 83.001 -13.5s51.667 -23.167 75 -42.5l54 54z" />
    <glyph glyph-name="yen" unicode="&#xa5;" horiz-adv-x="556" 
d="M432 221v-48h-139v-173h-47v173h-139v48h139v67h-139v47h118l-36 60l-36 60l-76.5 126.5l-74.5 121.5h55l214 -349l41 67.5l42 68.5l64.5 108l64.5 105h55l-223 -368h117v-47h-139v-67h139z" />
    <glyph glyph-name="brokenbar" unicode="&#xa6;" horiz-adv-x="222" 
d="M132 388h-48v264h48v-264zM84 -83v263h48v-263h-48z" />
    <glyph glyph-name="section" unicode="&#xa7;" horiz-adv-x="556" 
d="M446 208c0 14 -2.83398 27.333 -8.50098 40s-14.5 25.667 -26.5 39s-27.5 27.666 -46.5 42.999s-41.833 32 -68.5 50l-41 24.5l-46 27.5c-4.66699 2.66699 -10 4.66699 -16 6c0.666992 0 -0.333008 1 -3 3s-5.66699 4 -9 6c-7.33301 -2.66699 -15.833 -7 -25.5 -13
s-19 -13.5 -28 -22.5s-16.667 -19.667 -23 -32s-9.5 -26.5 -9.5 -42.5c0 -6 0.833008 -13.333 2.5 -22s5.5 -18 11.5 -28s14.833 -20.833 26.5 -32.5s27.167 -23.834 46.5 -36.501l20 -12c6.66699 -4 13.334 -8.33301 20.001 -13l71.5 -45.5l60.5 -39.5
c8.66699 2.66699 18.334 6.83398 29.001 12.501s20.667 12.834 30 21.501s17.166 18.5 23.499 29.5s9.5 23.167 9.5 36.5zM391.999 527c-1.33301 46 -12.5 81.5059 -33.5 106.506s-53.167 37.5 -96.5 37.5c-10.667 0 -22.834 -1.5 -36.501 -4.5s-26.5 -8 -38.5 -15
s-21.833 -16.5 -29.5 -28.5s-10.834 -27 -9.50098 -45c1.33301 -20.667 6.5 -37.334 15.5 -50.001s19.833 -23.667 32.5 -33c13.333 -10 25.666 -18.333 36.999 -25l34 -20c6.66699 -3.33301 12.5 -6.5 17.5 -9.5s9.83301 -5.5 14.5 -7.5h-1
c3.33301 -2 7.33301 -4.16699 12 -6.5s8.66699 -4.83301 12 -7.5c35.333 -22 64.166 -41.833 86.499 -59.5s39.666 -34.5 51.999 -50.5s20.833 -32 25.5 -48s7 -34 7 -54c0 -16 -3 -31 -9 -45s-13.833 -26.833 -23.5 -38.5s-20.167 -21.834 -31.5 -30.501
s-22.333 -15.334 -33 -20.001c17.333 -19.333 29 -38.333 35 -57s8.33301 -36.334 7 -53.001c-3.33301 -22 -10.166 -41.667 -20.499 -59s-23 -32 -38 -44s-32 -21.333 -51 -28s-38.5 -10 -58.5 -10c-58 0 -102.667 18 -134 54s-46.333 88.333 -45 157h47
c0 -24 2.33301 -45.833 7 -65.5s12.334 -36.667 23.001 -51s24.334 -25.5 41.001 -33.5s37 -12 61 -12c22 0 40.667 3 56 9s27.833 13.667 37.5 23s16.667 19.5 21 30.5s6.5 21.167 6.5 30.5c0 11.333 -0.666992 21.333 -2 30s-4.5 17 -9.5 25s-12.167 16.167 -21.5 24.5
s-21.666 18.166 -36.999 29.499c-11.333 8 -24.5 16.667 -39.5 26l-46.5 29c-10 5.33301 -19.833 11.333 -29.5 18l-29.5 20c-3.33301 3.33301 -6.83301 6 -10.5 8l-10.5 6c-41.333 28.667 -69.666 56.334 -84.999 83.001s-23 54 -23 82c0 30.667 9 57.5 27 80.5
s39.667 41.167 65 54.5c-10.667 10.667 -19.834 24.167 -27.501 40.5s-11.5 35.833 -11.5 58.5c0 29.333 6 53.166 18 71.499s26.5 32.5 43.5 42.5s34.833 16.833 53.5 20.5s35 5.5 49 5.5c26.667 0 50.834 -4.83301 72.501 -14.5s40 -23.334 55 -41.001s26.667 -39 35 -64
s12.5 -52.833 12.5 -83.5h-36z" />
    <glyph glyph-name="dieresis" unicode="&#xa8;" horiz-adv-x="130" 
d="M113 662h47v-105h-47v105zM-34 662h48v-105h-48v105z" />
    <glyph glyph-name="copyright" unicode="&#xa9;" horiz-adv-x="800" 
d="M68 351c0 -44 8.5 -85.5 25.5 -124.5s40 -73 69 -102s63 -51.833 102 -68.5s80.5 -25 124.5 -25s85.333 8.33301 124 25s72.5 39.5 101.5 68.5s52 63 69 102s25.5 80.5 25.5 124.5s-8.5 85.333 -25.5 124s-40 72.5 -69 101.5s-62.833 52 -101.5 69s-80 25.5 -124 25.5
s-85.5 -8.5 -124.5 -25.5s-73 -40 -102 -69s-52 -62.833 -69 -101.5s-25.5 -80 -25.5 -124zM21 351c0 50.667 9.5 98.5 28.5 143.5s45.167 84 78.5 117s72.333 59.167 117 78.5s92.667 29 144 29c50.667 0 98.334 -9.66699 143.001 -29s83.667 -45.5 117 -78.5
s59.5 -72 78.5 -117s28.5 -92.833 28.5 -143.5c0 -51.333 -9.5 -99.166 -28.5 -143.499s-45.167 -83 -78.5 -116s-72.333 -59 -117 -78s-92.334 -28.5 -143.001 -28.5c-51.333 0 -99.333 9.5 -144 28.5s-83.667 45 -117 78s-59.5 71.667 -78.5 116
s-28.5 92.166 -28.5 143.499zM537 415c-2.66699 18.667 -8.33301 35.166 -17 49.499s-19.334 26.166 -32.001 35.499s-27 16.333 -43 21s-32.333 7 -49 7c-27.333 0 -51.666 -4.66699 -72.999 -14s-39.333 -22.166 -54 -38.499s-25.834 -35.666 -33.501 -57.999
s-11.5 -46.166 -11.5 -71.499s4 -49.166 12 -71.499s19.5 -42 34.5 -59s33.333 -30.333 55 -40s46.167 -14.5 73.5 -14.5c32 0 61.167 10.833 87.5 32.5s44.166 53.5 53.499 95.5h49c-6 -26 -14.667 -49.667 -26 -71s-25.333 -39.833 -42 -55.5s-35.167 -27.667 -55.5 -36
s-42.5 -12.5 -66.5 -12.5c-34 0 -64.667 6 -92 18s-50.666 28.333 -69.999 49s-34.166 45 -44.499 73s-15.5 58.333 -15.5 91c0 33.333 5 64.166 15 92.499s24.5 52.666 43.5 72.999s42 36.333 69 48s57.5 17.5 91.5 17.5c24 0 46.667 -3.83301 68 -11.5
s40.5 -18.834 57.5 -33.501s31.167 -32.667 42.5 -54s19 -45.666 23 -72.999h-37z" />
    <glyph glyph-name="ordfeminine" unicode="&#xaa;" horiz-adv-x="300" 
d="M269 353c-11.333 0 -21.333 2.33691 -30 7.00391s-14 13 -16 25c-12 -11.333 -27.667 -20.666 -47 -27.999s-41.333 -11 -66 -11c-15.333 0 -30.333 1.83301 -45 5.5s-27.5 9.16699 -38.5 16.5s-19.833 17 -26.5 29s-10 26.333 -10 43c0 22 3.83301 39.667 11.5 53
s17.5 23.666 29.5 30.999s25.667 12.166 41 14.499s31 4.16602 47 5.49902c2 0 4 0.166992 6 0.5s4.33301 0.5 7 0.5h12c21.333 0.666992 39.666 2.33398 54.999 5.00098s23 10 23 22c0 23.333 -6 39.666 -18 48.999s-31.667 14 -59 14c-28 0 -49.167 -7.16699 -63.5 -21.5
s-23.166 -33.833 -26.499 -58.5h-48c4.66699 40 18.167 71.167 40.5 93.5s54.833 33.5 97.5 33.5c35.333 0 64.5 -7 87.5 -21s35.167 -39.667 36.5 -77v-180c0 -2.66699 3.5 -3.83398 10.5 -3.50098s14.5 1.16602 22.5 2.49902v-50h-33zM110 394.004
c37.333 0 65.333 9.33398 84 28.001s28 41.334 28 68.001v18c-9.33301 -4 -20 -6.33301 -32 -7s-25 -1.33398 -39 -2.00098c-13.333 -0.666992 -26.5 -1.66699 -39.5 -3s-24.833 -4 -35.5 -8s-19.5 -9.83301 -26.5 -17.5s-10.833 -17.834 -11.5 -30.501
c0 -17.333 7.5 -29.333 22.5 -36s31.5 -10 49.5 -10zM238 533.005l-16 15v-40c6 3.33301 11.5 7.5 16.5 12.5s9.83301 11.833 14.5 20.5z" />
    <glyph glyph-name="guillemotleft" unicode="&#xab;" horiz-adv-x="352" 
d="M140 255v25l126 169v-80l-75 -101l23.5 -33.5c7.66699 -11 16.167 -22.167 25.5 -33.5l14 -17.5c4.66699 -5.66699 8.66699 -11.167 12 -16.5v-82zM53 255l0.000976562 25l125 169v-80l-75 -101c15.333 -22.667 31.666 -45 48.999 -67c4 -6 8.33301 -11.833 13 -17.5
s9 -11.167 13 -16.5v-82z" />
    <glyph glyph-name="logicalnot" unicode="&#xac;" horiz-adv-x="600" 
d="M39 321v48h505v-281h-48v233h-457z" />
    <glyph glyph-name="registered" unicode="&#xae;" horiz-adv-x="800" 
d="M68 351c0 -44 8.5 -85.5 25.5 -124.5s40 -73 69 -102s63 -51.833 102 -68.5s80.5 -25 124.5 -25s85.333 8.33301 124 25s72.5 39.5 101.5 68.5s52 63 69 102s25.5 80.5 25.5 124.5s-8.5 85.333 -25.5 124s-40 72.5 -69 101.5s-62.833 52 -101.5 69s-80 25.5 -124 25.5
s-85.5 -8.5 -124.5 -25.5s-73 -40 -102 -69s-52 -62.833 -69 -101.5s-25.5 -80 -25.5 -124zM21 351c0 50.667 9.5 98.5 28.5 143.5s45.167 84 78.5 117s72.333 59.167 117 78.5s92.667 29 144 29c50.667 0 98.334 -9.66699 143.001 -29s83.667 -45.5 117 -78.5
s59.5 -72 78.5 -117s28.5 -92.833 28.5 -143.5c0 -51.333 -9.5 -99.166 -28.5 -143.499s-45.167 -83 -78.5 -116s-72.333 -59 -117 -78s-92.334 -28.5 -143.001 -28.5c-51.333 0 -99.333 9.5 -144 28.5s-83.667 45 -117 78s-59.5 71.667 -78.5 116
s-28.5 92.166 -28.5 143.499zM387 363c12.667 0 25.833 0.833008 39.5 2.5s26.167 5 37.5 10s20.833 12.5 28.5 22.5s11.5 23.333 11.5 40c0 16 -2.83301 29 -8.5 39s-13.334 17.833 -23.001 23.5s-20.667 9.5 -33 11.5s-25.166 3 -38.499 3h-98v-152h84zM402.999 562
c50.667 0 88.001 -10.833 112.001 -32.5s36 -52.167 36 -91.5c0 -34 -9.33301 -60.333 -28 -79s-41.334 -31 -68.001 -37l31 -48l32.5 -50.5l32.5 -50l30 -45.5h-56l-121 187h-101v-187h-47v434h147z" />
    <glyph glyph-name="macron" unicode="&#xaf;" horiz-adv-x="130" 
d="M-60 592v49h247v-49h-247z" />
    <glyph glyph-name="degree" unicode="&#xb0;" horiz-adv-x="400" 
d="M344 533c0 -21.333 -3.83594 -41.166 -11.5029 -59.499s-18.167 -34.333 -31.5 -48s-29.166 -24.334 -47.499 -32.001s-38.166 -11.5 -59.499 -11.5s-41 3.66699 -59 11s-33.667 17.833 -47 31.5s-23.833 29.667 -31.5 48s-11.5 38.5 -11.5 60.5c0 20 3.83301 39 11.5 57
s18.167 33.833 31.5 47.5s29 24.5 47 32.5s37.667 12 59 12c20.667 0 40.167 -4 58.5 -12s34.333 -18.833 48 -32.5s24.334 -29.5 32.001 -47.5s11.5 -37 11.5 -57zM295.997 533c0 14 -2.49902 27.167 -7.49902 39.5s-12 23.166 -21 32.499s-19.833 16.666 -32.5 21.999
s-26.334 8 -41.001 8c-13.333 0 -26.166 -2.83301 -38.499 -8.5s-23.166 -13.167 -32.499 -22.5s-16.833 -20.166 -22.5 -32.499s-8.5 -25.166 -8.5 -38.499c0 -14.667 2.83301 -28.334 8.5 -41.001s13.167 -23.667 22.5 -33s20.166 -16.666 32.499 -21.999
s25.166 -8 38.499 -8c14 0 27.333 2.66699 40 8s23.5 12.666 32.5 21.999s16.167 20.333 21.5 33s8 26.334 8 41.001z" />
    <glyph glyph-name="plusminus" unicode="&#xb1;" horiz-adv-x="600" 
d="M544 48v-48h-505v48h505zM316 506v-186h228v-48h-228v-187h-48v187h-229v48h229v186h48z" />
    <glyph glyph-name="twosuperior" unicode="&#xb2;" horiz-adv-x="333" 
d="M317 262l-310.001 -0.000976562c0 20.667 3.16699 38.834 9.5 54.501s14.833 29.667 25.5 42s22.834 23.5 36.501 33.5l42.5 30h-1c1.33301 1.33301 3.33301 2 6 2c0.666992 0 2 0.833008 4 2.5s6.66699 5.16699 14 10.5c15.333 9.33301 30 18.833 44 28.5
s26.167 19.834 36.5 30.501s18.666 22.167 24.999 34.5s9.5 25.5 9.5 39.5c0 22 -9 38.333 -27 49s-41 16 -69 16c-36 0 -62 -10.167 -78 -30.5s-23.667 -48.5 -23 -84.5h-47c0.666992 52 12 92 34 120s60 42 114 42c20 0 38.833 -2.16699 56.5 -6.5s32.834 -11 45.501 -20
s22.667 -20.5 30 -34.5s11 -31 11 -51c0 -14.667 -1.66699 -28.167 -5 -40.5s-9.83301 -25 -19.5 -38s-23.167 -26.833 -40.5 -41.5s-39.666 -31 -66.999 -49c-24 -15.333 -46.333 -30.833 -67 -46.5s-35.334 -30.834 -44.001 -45.501h254v-47z" />
    <glyph glyph-name="threesuperior" unicode="&#xb3;" horiz-adv-x="333" 
d="M13 540c-0.666992 23.333 2.83398 43.833 10.501 61.5s18.5 32.5 32.5 44.5s30.667 21 50 27s40.666 9 63.999 9c17.333 0 34.666 -1.66699 51.999 -5s32.833 -9.16602 46.5 -17.499s24.834 -19.5 33.501 -33.5s13 -31.667 13 -53c0 -19.333 -4.5 -36.833 -13.5 -52.5
s-21.5 -28.167 -37.5 -37.5c18 -8.66699 32.333 -21.167 43 -37.5s16 -37.166 16 -62.499c0 -20 -4.16699 -38 -12.5 -54s-19.666 -29.5 -33.999 -40.5s-30.833 -19.333 -49.5 -25s-38.334 -8.5 -59.001 -8.5c-54 0 -96.167 14.333 -126.5 43s-43.833 69.667 -40.5 123h49
c-3.33301 -40 6 -69.833 28 -89.5s51.667 -29.5 89 -29.5c14 0 27.5 1.66699 40.5 5s24.5 8.5 34.5 15.5s18 15.5 24 25.5s9 21.667 9 35c0 14.667 -3.16699 26.834 -9.5 36.501s-14.5 17.5 -24.5 23.5s-21.333 10.167 -34 12.5s-25.667 3.5 -39 3.5h-37v48h39
c12 0 23.833 1.16699 35.5 3.5s22 6.16602 31 11.499s16.333 12.166 22 20.499s8.5 18.5 8.5 30.5c0 12.667 -2.83301 23.167 -8.5 31.5s-13 14.666 -22 18.999s-19.5 7.33301 -31.5 9s-24 2.5 -36 2.5c-35.333 0 -62.333 -8.33301 -81 -25s-28 -44 -28 -82h-35z" />
    <glyph glyph-name="acute" unicode="&#xb4;" horiz-adv-x="130" 
d="M33 554h-54l152 165h68z" />
    <glyph glyph-name="mu" unicode="&#xb5;" horiz-adv-x="556" 
d="M420 0l-0.999023 68c-17.333 -24 -39.5 -43.167 -66.5 -57.5s-58.5 -21.5 -94.5 -21.5c-26 0 -51 4.33301 -75 13s-45.333 22.667 -64 42v-210h-48v680h47v-334c0 -25.333 3.66699 -47.166 11 -65.499s17.5 -33.333 30.5 -45s27.833 -20.167 44.5 -25.5s34.667 -8 54 -8
c26.667 0 50.167 5.16699 70.5 15.5s37.166 24.166 50.499 41.499s23.5 37.333 30.5 60s10.5 46.667 10.5 72v289h48v-514h-48z" />
    <glyph glyph-name="paragraph" unicode="&#xb6;" horiz-adv-x="600" 
d="M485 -131h-47v786h-125v-786h-48v442c-28.667 3.33301 -55.667 10.833 -81 22.5s-47.5 26 -66.5 43s-34 36.333 -45 58s-16.5 44.5 -16.5 68.5c0 66 19.667 115.833 59 149.5s94.333 50.5 165 50.5h205v-834z" />
    <glyph glyph-name="periodcentered" unicode="&#xb7;" horiz-adv-x="278" 
d="M91 335c0 13.333 4 24.166 12 32.499s18.667 12.5 32 12.5s24.166 -4.16699 32.499 -12.5s12.5 -19.166 12.5 -32.499s-4.16699 -24.166 -12.5 -32.499s-19.166 -12.5 -32.499 -12.5s-24 4.16699 -32 12.5s-12 19.166 -12 32.499z" />
    <glyph glyph-name="cedilla" unicode="&#xb8;" horiz-adv-x="130" 
d="M-7 -110c8.66699 -4 18.333 -7.50098 29 -10.501s22 -4.5 34 -4.5c14 0 27.167 2.66699 39.5 8s18.5 15 18.5 29c0 8 -4.33301 13.833 -13 17.5s-16.667 5.5 -24 5.5c-16 0 -33 -5 -51 -15l-35 22l68 86h54l-34 -46c22 0 41.333 -5.33301 58 -16s25 -28.667 25 -54
c0 -17.333 -2.83301 -31.333 -8.5 -42s-13.5 -19.167 -23.5 -25.5s-21.333 -10.666 -34 -12.999s-26 -3.5 -40 -3.5c-18 0 -35.333 2.5 -52 7.5s-31.667 10.167 -45 15.5l16 33z" />
    <glyph glyph-name="onesuperior" unicode="&#xb9;" horiz-adv-x="333" 
d="M160 262v343c-14.667 -11.333 -32 -21.833 -52 -31.5s-40 -17.167 -60 -22.5v50c28 8.66699 50.5 18.5 67.5 29.5s34.167 26.167 51.5 45.5h41v-414h-48z" />
    <glyph glyph-name="ordmasculine" unicode="&#xba;" horiz-adv-x="300" 
d="M38 516c0 -15.333 2.33301 -30.333 7 -45s11.667 -27.667 21 -39s20.833 -20.5 34.5 -27.5s29.167 -10.5 46.5 -10.5c16.667 0 31.834 3.5 45.501 10.5s25 16.167 34 27.5s16 24.333 21 39s7.5 29.667 7.5 45c0 14.667 -2.5 29.167 -7.5 43.5s-12 27 -21 38
s-20.333 20 -34 27s-28.834 10.5 -45.501 10.5c-17.333 0 -32.833 -3.5 -46.5 -10.5s-25.167 -16 -34.5 -27s-16.333 -23.667 -21 -38s-7 -28.833 -7 -43.5zM-10 516c0 21.333 3.50098 42 10.501 62s17.167 37.667 30.5 53s29.666 27.666 48.999 36.999s41.666 14 66.999 14
c26 0 48.667 -4.66699 68 -14s35.5 -21.666 48.5 -36.999s22.833 -33 29.5 -53s10 -40.667 10 -62c0 -22 -3.33301 -43.167 -10 -63.5s-16.5 -38.5 -29.5 -54.5s-29.333 -28.667 -49 -38s-42.5 -14 -68.5 -14c-24.667 0 -46.667 4.66699 -66 14s-35.666 22 -48.999 38
s-23.5 34.167 -30.5 54.5s-10.5 41.5 -10.5 63.5z" />
    <glyph glyph-name="guillemotright" unicode="&#xbb;" horiz-adv-x="352" 
d="M202 280v-25l-126 -170v82l75 100l-37.5 51l-37.5 51v80zM289 280v-25l-125 -170v82l74 100c-2 2 -3.5 4.16699 -4.5 6.5s-2.5 4.83301 -4.5 7.5l-33.5 44.5l-31.5 43.5v80z" />
    <glyph glyph-name="onequarter" unicode="&#xbc;" horiz-adv-x="834" 
d="M206 262l0.00195312 343.001c-14.667 -11.333 -32.334 -21.833 -53.001 -31.5s-40.667 -17.167 -60 -22.5v50c14 4 26.5 8.5 37.5 13.5s21.167 10.5 30.5 16.5s18.166 12.667 26.499 20s16.833 15.666 25.5 24.999h40v-414h-47zM644.002 703.001l-467 -734h-55l467 734
h55zM596.002 144.001v189l-71.5 -94l-72.5 -95h144zM628.002 370.001l-32 12v-51l25 33zM388.002 139.001l211 275h45v-270h72v-48h-72v-96h-48v96h-208v43z" />
    <glyph glyph-name="onehalf" unicode="&#xbd;" horiz-adv-x="834" 
d="M753 0l-310.003 -0.00683594c0 21.333 3 39.833 9 55.5s14 29.667 24 42s21.667 23.166 35 32.499l42 28c2 0.666992 3.66699 1.33398 5 2.00098l4 2c0.666992 0.666992 1.83398 1.33398 3.50098 2.00098s6.5 4.33398 14.5 11.001l43.5 29.5
c13.667 9.66699 25.834 19.834 36.501 30.501s19 22 25 34s9 25 9 39c0 22 -8.83301 38.333 -26.5 49s-40.5 16 -68.5 16c-36 0 -62 -10 -78 -30s-23.667 -48 -23 -84h-48c0.666992 26 3.66699 49 9 69s13.833 37 25.5 51s26.834 24.5 45.501 31.5s41.667 10.5 69 10.5
c20 0 38.667 -2.16699 56 -6.5s32.5 -11.166 45.5 -20.499s23.167 -21.166 30.5 -35.499s11 -31.166 11 -50.499c0 -14.667 -1.66699 -28.167 -5 -40.5s-9.83301 -25 -19.5 -38s-23.167 -26.667 -40.5 -41s-39.666 -30.833 -66.999 -49.5
c-24.667 -15.333 -47.334 -30.666 -68.001 -45.999s-35 -30.333 -43 -45h254v-48zM170.997 261.993v343c-15.333 -11.333 -33 -21.833 -53 -31.5s-39.667 -17.167 -59 -22.5v50c14.667 4 27.5 8.33301 38.5 13s21 10 30 16s17.5 12.833 25.5 20.5s16.333 16.167 25 25.5h41
v-414h-48zM599.997 702.993l-468 -734h-55l468 734h55z" />
    <glyph glyph-name="threequarters" unicode="&#xbe;" horiz-adv-x="834" 
d="M62 540c-0.666992 23.333 2.83398 43.834 10.501 61.501s18.5 32.5 32.5 44.5s30.667 21 50 27s40.666 9 63.999 9c16.667 0 33.667 -1.66699 51 -5s33 -9.16602 47 -17.499s25.333 -19.5 34 -33.5s13 -31.667 13 -53c0 -19.333 -4.66699 -36.833 -14 -52.5
s-21.666 -28.167 -36.999 -37.5c17.333 -8.66699 31.5 -21.167 42.5 -37.5s16.5 -37.166 16.5 -62.499c0 -20 -4.16699 -38 -12.5 -54s-19.666 -29.5 -33.999 -40.5s-30.833 -19.333 -49.5 -25s-38.334 -8.5 -59.001 -8.5c-54 0 -96.333 14.333 -127 43
s-44.334 69.667 -41.001 123h49c-3.33301 -40 6 -69.833 28 -89.5s52 -29.5 90 -29.5c14 0 27.5 1.66699 40.5 5s24.5 8.5 34.5 15.5s18 15.5 24 25.5s9 21.667 9 35c0 14.667 -3.16699 27 -9.5 37s-14.5 18 -24.5 24s-21.333 10.167 -34 12.5s-25.667 3.5 -39 3.5h-12
c-2 0 -4.5 -0.333008 -7.5 -1s-9.16699 -2.66699 -18.5 -6v54h40c12 0 24 1.16699 36 3.5s22.5 6.16602 31.5 11.499s16.333 12.166 22 20.499s8.5 18.5 8.5 30.5c0 12.667 -2.83301 23.167 -8.5 31.5s-13.167 14.666 -22.5 18.999s-20 7.33301 -32 9s-24 2.5 -36 2.5
c-36 0 -63.167 -8.33301 -81.5 -25s-27.5 -44 -27.5 -82h-35zM695.001 703.001l-467 -734h-55l468 734h54zM642.001 144.001v188l-72.5 -93.5l-72.5 -94.5h145zM673.001 370.001l-31 12v-51l24 33zM434.001 139.001l211 275h45v-270h71v-48h-71v-96h-48v96h-208v43z" />
    <glyph glyph-name="questiondown" unicode="&#xbf;" 
d="M274 419h-47v121h47v-121zM461 64c0.666992 -35.333 -3.66699 -67.8311 -13 -97.498s-23.333 -55.167 -42 -76.5s-41.834 -38 -69.501 -50s-59.167 -18 -94.5 -18c-28 0 -54.167 3.83301 -78.5 11.5s-45.666 18.667 -63.999 33s-32.666 32.166 -42.999 53.499
s-15.5 45.666 -15.5 72.999c0 22.667 3.16699 43 9.5 61s14.166 34 23.499 48s19.333 26.333 30 37l29 28c0.666992 1.33301 1.66699 2.83301 3 4.5s1.66602 2.16699 0.999023 1.5c16 15.333 29.667 29.5 41 42.5s20.5 26.833 27.5 41.5s12.167 30.834 15.5 48.501
s5 38.834 5 63.501h47c0 -25.333 -1.5 -47.833 -4.5 -67.5s-8.33301 -38.334 -16 -56.001s-17.667 -34.667 -30 -51s-27.833 -33.5 -46.5 -51.5h1l-3 -3c-1.33301 -1.33301 -1.66602 -1.5 -0.999023 -0.5s0.333984 0.833008 -0.999023 -0.5l-23.5 -21
c-9.66699 -8.66699 -18.834 -19.167 -27.501 -31.5s-16.167 -26.333 -22.5 -42s-9.5 -32.834 -9.5 -51.501c0 -40 14.5 -70.333 43.5 -91s65.5 -31 109.5 -31c28.667 0 54 5 76 15s40.167 24 54.5 42s24.833 39.5 31.5 64.5s9.66699 52.5 9 82.5h35z" />
    <glyph glyph-name="Agrave" unicode="&#xc0;" horiz-adv-x="575" 
d="M218 901l145 -167h-52l-162 167h69zM27 0h-54l289 714h46l283 -714h-55l-90 226h-328zM284 639l-44.5 -110.5l-44.5 -108.5l-29 -72.5l-30 -73.5h292z" />
    <glyph glyph-name="Aacute" unicode="&#xc1;" horiz-adv-x="575" 
d="M250 734h-54l154 167h70zM27 0h-54l289 714h46l283 -714h-55l-90 226h-328zM284 639l-44.5 -110.5l-44.5 -108.5l-29 -72.5l-30 -73.5h292z" />
    <glyph glyph-name="Acircumflex" unicode="&#xc2;" horiz-adv-x="575" 
d="M280 848l-45 -57.001l-22 -27c-7.33301 -9.33301 -14.333 -17.666 -21 -24.999h-56l131 162h29l133 -162h-57zM27 -0.000976562h-54l289 714h46l283 -714h-55l-90 226h-328zM284 638.999l-44.5 -110.5l-44.5 -108.5l-29 -72.5l-30 -73.5h292z" />
    <glyph glyph-name="Atilde" unicode="&#xc3;" horiz-adv-x="575" 
d="M141 759c0 11.333 2.16602 22.501 6.49902 33.501s10.166 21 17.499 30s15.833 16.333 25.5 22s19.834 8.5 30.501 8.5c14 0 27 -3.5 39 -10.5l36 -21.5c8.66699 -6.66699 16.834 -12.167 24.501 -16.5s14.834 -6.5 21.501 -6.5c11.333 0 19.666 5.33301 24.999 16
s8 22.667 8 36h48c0 -26 -6.66699 -49.167 -20 -69.5s-33.666 -30.5 -60.999 -30.5c-14 0 -27.167 3.33301 -39.5 10s-23.833 14 -34.5 22l-24.5 15.5c-7.66699 5 -15.167 7.5 -22.5 7.5c-4.66699 0 -9 -1.83301 -13 -5.5s-7.33301 -8.33398 -10 -14.001
s-4.83398 -11.667 -6.50098 -18s-2.5 -12.5 -2.5 -18.5h-35zM26.999 0.000976562h-54l289 714h46l283 -714h-55l-90 226h-328zM283.999 639.001l-44.5 -110.5l-44.5 -108.5l-29 -72.5l-30 -73.5h292z" />
    <glyph glyph-name="Adieresis" unicode="&#xc4;" horiz-adv-x="575" 
d="M332 843h49v-106h-49v106zM183 843h49v-106h-49v106zM27 0h-54l289 714h46l283 -714h-55l-90 226h-328zM284 639l-44.5 -110.5l-44.5 -108.5l-29 -72.5l-30 -73.5h292z" />
    <glyph glyph-name="Aring" unicode="&#xc5;" horiz-adv-x="575" 
d="M332 805c0 13.333 -4.83301 25.166 -14.5 35.499s-21.5 15.5 -35.5 15.5s-25.833 -5.16699 -35.5 -15.5s-14.5 -22.166 -14.5 -35.499c0 -14 4.83301 -26 14.5 -36s21.5 -15 35.5 -15s25.833 5 35.5 15s14.5 22 14.5 36zM381 805c0 -13.333 -2.66699 -26 -8 -38
s-12.5 -22.5 -21.5 -31.5s-19.5 -16.167 -31.5 -21.5s-24.667 -8 -38 -8s-26 2.66699 -38 8s-22.5 12.5 -31.5 21.5s-16.167 19.5 -21.5 31.5s-8 24.667 -8 38s2.66699 26 8 38s12.5 22.5 21.5 31.5s19.5 16.167 31.5 21.5s24.667 8 38 8s26 -2.66699 38 -8
s22.5 -12.5 31.5 -21.5s16.167 -19.5 21.5 -31.5s8 -24.667 8 -38zM27 0h-54l289 714h46l283 -714h-55l-90 226h-328zM284 639l-44.5 -110.5l-44.5 -108.5l-29 -72.5l-30 -73.5h292z" />
    <glyph glyph-name="AE" unicode="&#xc6;" horiz-adv-x="852" 
d="M190 311h209v357h-22zM25 0h-52l379 714h472v-48h-376v-271h345v-48h-345v-299h376v-48h-425v263h-234z" />
    <glyph glyph-name="Ccedilla" unicode="&#xc7;" horiz-adv-x="685" 
d="M593 490c-2 23.333 -9.00098 46.5029 -21.001 69.5029s-28.5 43.5 -49.5 61.5s-45.833 32.667 -74.5 44s-60.334 17 -95.001 17c-54 0 -99.333 -10.833 -136 -32.5s-66.334 -49 -89.001 -82s-39 -68.833 -49 -107.5s-15 -75 -15 -109
c0 -41.333 6.16699 -81.333 18.5 -120s30.166 -72.667 53.499 -102s52.333 -52.833 87 -70.5s74 -26.5 118 -26.5c38.667 0 73.5 6.66699 104.5 20s57.833 32 80.5 56s41 52.167 55 84.5s23.667 67.5 29 105.5h49c-6.66699 -45.333 -18.167 -86.833 -34.5 -124.5
s-37.5 -70.334 -63.5 -98.001s-56.333 -49.334 -91 -65.001s-73.667 -24.5 -117 -26.5c-1.33301 0 -2 -0.666992 -2 -2c22.667 0 42.5 -5.5 59.5 -16.5s25.5 -29.5 25.5 -55.5c0 -17.333 -3 -31.333 -9 -42s-14 -19.334 -24 -26.001s-21.5 -11.167 -34.5 -13.5
s-26.5 -3.5 -40.5 -3.5c-16 0 -31.333 2 -46 6s-28 8 -40 12l-14 5l23 44c1.33301 -0.666992 3 -1.16699 5 -1.5s3.66699 -0.833008 5 -1.5l33.5 -10c11 -3.33301 22.167 -5 33.5 -5c14 0 27.5 2.66699 40.5 8s19.5 14.666 19.5 27.999
c0 8.66699 -4.66699 14.834 -14 18.501s-17.666 5.5 -24.999 5.5c-17.333 0 -34.666 -5.33301 -51.999 -16l-35 24l35 45c-42 5.33301 -80.333 18 -115 38s-64.167 45.833 -88.5 77.5s-43.333 68.5 -57 110.5s-20.5 88 -20.5 138c0 43.333 6.16699 87.5 18.5 132.5
s32 85.833 59 122.5s61.833 66.667 104.5 90s94.334 35 155.001 35c48 0 89.833 -8.5 125.5 -25.5s65.334 -38.333 89.001 -64s41.667 -53.167 54 -82.5s18.833 -56 19.5 -80h-35z" />
    <glyph glyph-name="Egrave" unicode="&#xc8;" horiz-adv-x="537" 
d="M200 901l145 -167h-52l-162 167h69zM531 48v-48h-488v714h484v-48h-435v-271h409v-48h-409v-299h439z" />
    <glyph glyph-name="Eacute" unicode="&#xc9;" horiz-adv-x="537" 
d="M233 734h-54l153 167h69zM531 48v-48h-488v714h484v-48h-435v-271h409v-48h-409v-299h439z" />
    <glyph glyph-name="Ecircumflex" unicode="&#xca;" horiz-adv-x="537" 
d="M262 848l-38 -47.501l-39 -48.5c-3.33301 -3.33301 -7 -7.66602 -11 -12.999h-56l132 162h27l134 -162h-57zM531 47.999v-48h-488v714h484v-48h-435v-271h409v-48h-409v-299h439z" />
    <glyph glyph-name="Edieresis" unicode="&#xcb;" horiz-adv-x="537" 
d="M315 843h48v-106h-48v106zM165 843h48v-106h-48v106zM531 48v-48h-488v714h484v-48h-435v-271h409v-48h-409v-299h439z" />
    <glyph glyph-name="Igrave" unicode="&#xcc;" horiz-adv-x="128" 
d="M-1 901l144 -167h-52l-161 167h69zM86 714v-714h-48v714h48z" />
    <glyph glyph-name="Iacute" unicode="&#xcd;" horiz-adv-x="128" 
d="M31 734h-53l153 167h70zM87 714v-714h-48v714h48z" />
    <glyph glyph-name="Icircumflex" unicode="&#xce;" horiz-adv-x="128" 
d="M61 848c-6 -7.33301 -11.832 -14.833 -17.499 -22.5s-11.834 -15.167 -18.501 -22.5l-26 -33.5l-25 -30.5h-56l130 162h28l134 -162h-57zM87.001 714v-714h-48v714h48z" />
    <glyph glyph-name="Idieresis" unicode="&#xcf;" horiz-adv-x="128" 
d="M114 843h47v-106h-47v106zM-35 843h48v-106h-48v106zM87 714v-714h-48v714h48z" />
    <glyph glyph-name="Eth" unicode="&#xd0;" horiz-adv-x="648" 
d="M92 48l180 -0.000976562c38.667 0 75.167 6.16699 109.5 18.5s64.333 31.333 90 57s46 57.834 61 96.501s22.5 84.334 22.5 137.001c0 61.333 -7.5 111.833 -22.5 151.5s-34.833 71.167 -59.5 94.5s-52.667 39.666 -84 48.999s-63.333 14 -96 14h-201v-271h285v-48h-285
v-299zM-17 394.999l60 -0.00195312v319h255c36 0 72.167 -5.5 108.5 -16.5s69.166 -30 98.499 -57s53.166 -63.5 71.499 -109.5s27.5 -104 27.5 -174c0 -64 -9.33301 -118.667 -28 -164s-43.667 -82.166 -75 -110.499s-67.166 -49.166 -107.499 -62.499
s-82.166 -20 -125.499 -20h-225v347h-60v48z" />
    <glyph glyph-name="Ntilde" unicode="&#xd1;" horiz-adv-x="648" 
d="M176 759c0 11.333 2.16699 22.5 6.5 33.5s10.166 21 17.499 30s15.833 16.333 25.5 22s19.834 8.5 30.501 8.5c14 0 27.167 -3.5 39.5 -10.5s24.166 -14.167 35.499 -21.5c8.66699 -6 16.834 -11.333 24.501 -16s15.167 -7 22.5 -7c10.667 0 18.667 5.33301 24 16
s8 22.667 8 36h49c0 -13.333 -1.66699 -26 -5 -38s-8.33301 -22.5 -15 -31.5s-15.167 -16.333 -25.5 -22s-22.166 -8.5 -35.499 -8.5c-15.333 0 -28.833 3.16699 -40.5 9.5s-22.834 13.833 -33.501 22.5h1c-1.33301 0.666992 -2.83301 1.5 -4.5 2.5
s-3.16699 1.83301 -4.5 2.5c-6.66699 4.66699 -13.167 8.83398 -19.5 12.501s-13.166 5.5 -20.499 5.5c-4.66699 0 -8.83398 -1.83301 -12.501 -5.5s-7 -8.33398 -10 -14.001s-5.33301 -11.667 -7 -18s-2.5 -12.5 -2.5 -18.5h-35zM95 714l448 -631v631h48v-714h-51l-448 631
v-631h-48v714h51z" />
    <glyph glyph-name="Ograve" unicode="&#xd2;" horiz-adv-x="721" 
d="M289 901l145 -167h-52l-161 167h68zM23 357c0 50.667 7.33301 98.667 22 144s36 85 64 119s62.5 61 103.5 81s88.167 30 141.5 30s100.5 -10 141.5 -30s75.5 -47 103.5 -81s49.167 -73.667 63.5 -119s21.5 -93.333 21.5 -144s-7.16699 -98.667 -21.5 -144
s-35.5 -85 -63.5 -119s-62.5 -60.833 -103.5 -80.5s-88.167 -29.5 -141.5 -29.5s-100.5 9.83301 -141.5 29.5s-75.5 46.5 -103.5 80.5s-49.333 73.667 -64 119s-22 93.333 -22 144zM71 357c0.666992 -47.333 7.5 -90.833 20.5 -130.5s31.667 -73.834 56 -102.501
s53.833 -51.167 88.5 -67.5s74 -24.5 118 -24.5s83.167 8.16699 117.5 24.5s63.666 38.833 87.999 67.5s43 62.834 56 102.501s19.833 83.167 20.5 130.5c-0.666992 46.667 -7.5 90 -20.5 130s-31.667 74.333 -56 103s-53.666 51.167 -87.999 67.5s-73.5 24.5 -117.5 24.5
s-83.333 -8.16699 -118 -24.5s-64.167 -38.833 -88.5 -67.5s-43 -63 -56 -103s-19.833 -83.333 -20.5 -130z" />
    <glyph glyph-name="Oacute" unicode="&#xd3;" horiz-adv-x="721" 
d="M322 734h-54l154 167h70zM23 357c0 50.667 7.33301 98.667 22 144s36 85 64 119s62.5 61 103.5 81s88.167 30 141.5 30s100.5 -10 141.5 -30s75.5 -47 103.5 -81s49.167 -73.667 63.5 -119s21.5 -93.333 21.5 -144s-7.16699 -98.667 -21.5 -144s-35.5 -85 -63.5 -119
s-62.5 -60.833 -103.5 -80.5s-88.167 -29.5 -141.5 -29.5s-100.5 9.83301 -141.5 29.5s-75.5 46.5 -103.5 80.5s-49.333 73.667 -64 119s-22 93.333 -22 144zM71 357c0.666992 -47.333 7.5 -90.833 20.5 -130.5s31.667 -73.834 56 -102.501s53.833 -51.167 88.5 -67.5
s74 -24.5 118 -24.5s83.167 8.16699 117.5 24.5s63.666 38.833 87.999 67.5s43 62.834 56 102.501s19.833 83.167 20.5 130.5c-0.666992 46.667 -7.5 90 -20.5 130s-31.667 74.333 -56 103s-53.666 51.167 -87.999 67.5s-73.5 24.5 -117.5 24.5s-83.333 -8.16699 -118 -24.5
s-64.167 -38.833 -88.5 -67.5s-43 -63 -56 -103s-19.833 -83.333 -20.5 -130z" />
    <glyph glyph-name="Ocircumflex" unicode="&#xd4;" horiz-adv-x="721" 
d="M352 848l-22.5 -28.501l-23.5 -28.5c-7.33301 -8.66699 -14.5 -17.667 -21.5 -27s-13.833 -17.666 -20.5 -24.999h-56l131 162h28l133 -162h-57zM23 356.999c0 50.667 7.33301 98.667 22 144s36 85 64 119s62.5 61 103.5 81s88.167 30 141.5 30s100.5 -10 141.5 -30
s75.5 -47 103.5 -81s49.167 -73.667 63.5 -119s21.5 -93.333 21.5 -144s-7.16699 -98.667 -21.5 -144s-35.5 -85 -63.5 -119s-62.5 -60.833 -103.5 -80.5s-88.167 -29.5 -141.5 -29.5s-100.5 9.83301 -141.5 29.5s-75.5 46.5 -103.5 80.5s-49.333 73.667 -64 119
s-22 93.333 -22 144zM71 356.999c0.666992 -47.333 7.5 -90.833 20.5 -130.5s31.667 -73.834 56 -102.501s53.833 -51.167 88.5 -67.5s74 -24.5 118 -24.5s83.167 8.16699 117.5 24.5s63.666 38.833 87.999 67.5s43 62.834 56 102.501s19.833 83.167 20.5 130.5
c-0.666992 46.667 -7.5 90 -20.5 130s-31.667 74.333 -56 103s-53.666 51.167 -87.999 67.5s-73.5 24.5 -117.5 24.5s-83.333 -8.16699 -118 -24.5s-64.167 -38.833 -88.5 -67.5s-43 -63 -56 -103s-19.833 -83.333 -20.5 -130z" />
    <glyph glyph-name="Otilde" unicode="&#xd5;" horiz-adv-x="721" 
d="M213 759c0 11.333 2.17188 22.501 6.50488 33.501s10.166 21 17.499 30s15.666 16.333 24.999 22s19.333 8.5 30 8.5c14 0 27.167 -3.5 39.5 -10.5s24.166 -14.167 35.499 -21.5c8.66699 -6.66699 17 -12.167 25 -16.5s15.333 -6.5 22 -6.5
c10.667 0 18.667 5.33301 24 16s8 22.667 8 36h49c0 -26 -6.66699 -49.167 -20 -69.5s-33.666 -30.5 -60.999 -30.5c-14.667 0 -28.167 3.33301 -40.5 10s-23.5 14 -33.5 22l-25 15.5c-8 5 -15.667 7.5 -23 7.5c-4.66699 0 -8.83398 -1.83301 -12.501 -5.5
s-6.83398 -8.33398 -9.50098 -14.001s-4.83398 -11.667 -6.50098 -18s-2.5 -12.5 -2.5 -18.5h-36zM23.0049 357.001c0 50.667 7.33301 98.667 22 144s36 85 64 119s62.5 61 103.5 81s88.167 30 141.5 30s100.5 -10 141.5 -30s75.5 -47 103.5 -81s49.167 -73.667 63.5 -119
s21.5 -93.333 21.5 -144s-7.16699 -98.667 -21.5 -144s-35.5 -85 -63.5 -119s-62.5 -60.833 -103.5 -80.5s-88.167 -29.5 -141.5 -29.5s-100.5 9.83301 -141.5 29.5s-75.5 46.5 -103.5 80.5s-49.333 73.667 -64 119s-22 93.333 -22 144zM71.0049 357.001
c0.666992 -47.333 7.5 -90.833 20.5 -130.5s31.667 -73.834 56 -102.501s53.833 -51.167 88.5 -67.5s74 -24.5 118 -24.5s83.167 8.16699 117.5 24.5s63.666 38.833 87.999 67.5s43 62.834 56 102.501s19.833 83.167 20.5 130.5c-0.666992 46.667 -7.5 90 -20.5 130
s-31.667 74.333 -56 103s-53.666 51.167 -87.999 67.5s-73.5 24.5 -117.5 24.5s-83.333 -8.16699 -118 -24.5s-64.167 -38.833 -88.5 -67.5s-43 -63 -56 -103s-19.833 -83.333 -20.5 -130z" />
    <glyph glyph-name="Odieresis" unicode="&#xd6;" horiz-adv-x="721" 
d="M405 843h47v-106h-47v106zM255 843h48v-106h-48v106zM23 357c0 50.667 7.33301 98.667 22 144s36 85 64 119s62.5 61 103.5 81s88.167 30 141.5 30s100.5 -10 141.5 -30s75.5 -47 103.5 -81s49.167 -73.667 63.5 -119s21.5 -93.333 21.5 -144
s-7.16699 -98.667 -21.5 -144s-35.5 -85 -63.5 -119s-62.5 -60.833 -103.5 -80.5s-88.167 -29.5 -141.5 -29.5s-100.5 9.83301 -141.5 29.5s-75.5 46.5 -103.5 80.5s-49.333 73.667 -64 119s-22 93.333 -22 144zM71 357c0.666992 -47.333 7.5 -90.833 20.5 -130.5
s31.667 -73.834 56 -102.501s53.833 -51.167 88.5 -67.5s74 -24.5 118 -24.5s83.167 8.16699 117.5 24.5s63.666 38.833 87.999 67.5s43 62.834 56 102.501s19.833 83.167 20.5 130.5c-0.666992 46.667 -7.5 90 -20.5 130s-31.667 74.333 -56 103
s-53.666 51.167 -87.999 67.5s-73.5 24.5 -117.5 24.5s-83.333 -8.16699 -118 -24.5s-64.167 -38.833 -88.5 -67.5s-43 -63 -56 -103s-19.833 -83.333 -20.5 -130z" />
    <glyph glyph-name="multiply" unicode="&#xd7;" horiz-adv-x="600" 
d="M112 466l178.002 -181l180 180l35 -32l-180 -180c10.667 -11.333 21.667 -22.333 33 -33s22.666 -22 33.999 -34h-1c19.333 -18 38.666 -37 57.999 -57l55 -56l-33 -34l-181 181l-89 -91l-89 -90l-33 36l178 178l-90 90l-89 90z" />
    <glyph glyph-name="Oslash" unicode="&#xd8;" horiz-adv-x="721" 
d="M25 30l71.001 78.0029c-23.333 34 -41.333 72 -54 114s-19 87 -19 135c0 50.667 7.33301 98.667 22 144s36 85 64 119s62.5 61 103.5 81s88.167 30 141.5 30c47.333 0 89.5 -7.66699 126.5 -23s69.5 -37 97.5 -65l15 17c5.33301 6 10.666 11.667 15.999 17
c4 3.33301 8.33301 7.66602 13 12.999s8.66699 9.66602 12 12.999l35 -30l-59 -67c26 -34 44.833 -71.833 56.5 -113.5s17.5 -86.834 17.5 -135.501c0 -50.667 -7.16699 -98.667 -21.5 -144s-35.5 -85 -63.5 -119s-62.5 -60.833 -103.5 -80.5s-88.167 -29.5 -141.5 -29.5
c-46.667 0 -89 7.66699 -127 23s-71 37 -99 65l-34 -37.5l-33 -35.5zM636.001 357.003c-0.666992 41.333 -6.16602 79.832 -16.499 115.499s-24.833 67.5 -43.5 95.5l-207.5 -230.5l-207.5 -228.5c23.333 -23.333 50.833 -42 82.5 -56s68.5 -21 110.5 -21
c44 0 83.167 8.16699 117.5 24.5s63.666 38.833 87.999 67.5s43 62.834 56 102.501s19.833 83.167 20.5 130.5zM573.002 573.002c1.33301 -2.66699 2.33496 -4.33398 3.00195 -5.00098c1.33301 0.666992 2.16602 1.33398 2.49902 2.00098s1.16602 1.66699 2.49902 3h-8z
M142.004 89.002c3.33301 3.33301 6.5 6.66699 9.5 10l9.5 11l-6 6c-0.666992 0.666992 -2.5 2.66699 -5.5 6s-4.83301 5.33301 -5.5 6zM71.0039 357.003c0.666992 -42 6 -80.666 16 -115.999s24.333 -67 43 -95l114.5 126l113.5 127l93 103.5l93 104.5
c-23.333 23.333 -50.833 41.666 -82.5 54.999s-67.5 20 -107.5 20c-44 0 -83.333 -8.16699 -118 -24.5s-64.167 -38.833 -88.5 -67.5s-43 -63 -56 -103s-19.833 -83.333 -20.5 -130zM134.004 141.004c-2 2 -3.33301 3.66699 -4 5c-0.666992 -1.33301 -2 -3 -4 -5h8z
M563.004 615.004l-8 2c-0.666992 -1.33301 -3 -3.33301 -7 -6c-1.33301 -3.33301 -0.5 -6.5 2.5 -9.5s6.5 -5.5 10.5 -7.5z" />
    <glyph glyph-name="Ugrave" unicode="&#xd9;" horiz-adv-x="632" 
d="M246 901l145 -167h-53l-161 167h69zM575 714v-445c0 -97.333 -22.333 -169.166 -67 -215.499s-110.667 -69.5 -198 -69.5s-153.5 23.167 -198.5 69.5s-67.5 118.166 -67.5 215.499v445h48v-445c0 -78 17.667 -137 53 -177s90.333 -60 165 -60s129.5 20 164.5 60
s52.5 99 52.5 177v445h48z" />
    <glyph glyph-name="Uacute" unicode="&#xda;" horiz-adv-x="632" 
d="M278 734h-54l154 167h69zM575 714v-445c0 -97.333 -22.333 -169.166 -67 -215.499s-110.667 -69.5 -198 -69.5s-153.5 23.167 -198.5 69.5s-67.5 118.166 -67.5 215.499v445h48v-445c0 -78 17.667 -137 53 -177s90.333 -60 165 -60s129.5 20 164.5 60s52.5 99 52.5 177
v445h48z" />
    <glyph glyph-name="Ucircumflex" unicode="&#xdb;" horiz-adv-x="632" 
d="M308 848c-13.333 -15.333 -26.168 -31.167 -38.501 -47.5s-25.166 -32.5 -38.499 -48.5l-6 -6c-2.66699 -2.66699 -4.66699 -5 -6 -7h-55l131 162h28l134 -162h-57zM574.998 713.999v-445c0 -97.333 -22.333 -169.166 -67 -215.499s-110.667 -69.5 -198 -69.5
s-153.5 23.167 -198.5 69.5s-67.5 118.166 -67.5 215.499v445h48v-445c0 -78 17.667 -137 53 -177s90.333 -60 165 -60s129.5 20 164.5 60s52.5 99 52.5 177v445h48z" />
    <glyph glyph-name="Udieresis" unicode="&#xdc;" horiz-adv-x="632" 
d="M360 843h48v-106h-48v106zM210 843h49v-106h-49v106zM575 714v-445c0 -97.333 -22.333 -169.166 -67 -215.499s-110.667 -69.5 -198 -69.5s-153.5 23.167 -198.5 69.5s-67.5 118.166 -67.5 215.499v445h48v-445c0 -78 17.667 -137 53 -177s90.333 -60 165 -60
s129.5 20 164.5 60s52.5 99 52.5 177v445h48z" />
    <glyph glyph-name="Yacute" unicode="&#xdd;" horiz-adv-x="538" 
d="M232 755h-55l154 167h70zM579 714l-291 -415v-299h-48v300l-74 105l-75 108l-72 102l-69 99h60l253 -366l128.5 183.5l128.5 182.5h59z" />
    <glyph glyph-name="Thorn" unicode="&#xde;" horiz-adv-x="574" 
d="M335 595c70.667 0 125.499 -16.833 164.499 -50.5s58.5 -84.167 58.5 -151.5c0 -32 -5.83301 -60.5 -17.5 -85.5s-27.667 -46 -48 -63s-44.666 -29.833 -72.999 -38.5s-59.5 -13 -93.5 -13h-234v-193h-48v714h48v-119h243zM334.999 241c24.667 0 47.667 3.33301 69 10
s39.833 16.5 55.5 29.5s28 29 37 48s13.5 40.5 13.5 64.5c0 50 -14.333 88 -43 114s-72.667 39 -132 39h-243v-305h243z" />
    <glyph glyph-name="germandbls" unicode="&#xdf;" horiz-adv-x="481" 
d="M195 413c22.667 -0.666992 44.1699 1.17188 64.5029 5.50488s38.333 11.666 54 21.999s28.167 24 37.5 41s14 37.833 14 62.5c0 19.333 -3.66699 36.666 -11 51.999s-17.333 28.166 -30 38.499s-27.5 18.333 -44.5 24s-35.167 8.5 -54.5 8.5
c-11.333 0 -24.5 -1.33301 -39.5 -4s-29.333 -8.5 -43 -17.5s-25.334 -22 -35.001 -39s-14.5 -40.167 -14.5 -69.5v-537h-48v540c0 32.667 5.33301 60.167 16 82.5s24.5 40.333 41.5 54s36.167 23.334 57.5 29.001s43 8.5 65 8.5c24 0 47.333 -3.83301 70 -11.5
s42.834 -18.834 60.501 -33.501s31.667 -32.5 42 -53.5s15.5 -44.833 15.5 -71.5c0 -34 -6.33301 -63.833 -19 -89.5s-32.667 -45.834 -60 -60.501c43.333 -11.333 73.166 -32.666 89.499 -63.999s24.5 -70.333 24.5 -117c0 -33.333 -4.33301 -63.333 -13 -90
s-23.334 -49.334 -44.001 -68.001s-47.834 -32.834 -81.501 -42.501s-75.5 -13.834 -125.5 -12.501v48c31.333 -2 60.333 -0.666992 87 4s49.667 13.334 69 26.001s34.333 30 45 52s16 49.667 16 83c0 32 -5.33301 57.833 -16 77.5s-25.667 35.167 -45 46.5
s-42.333 19 -69 23s-55.667 6 -87 6v34z" />
    <glyph glyph-name="agrave" unicode="&#xe0;" horiz-adv-x="481" 
d="M171 698l143 -164h-52l-160 164h69zM44 347c0.666992 25.333 5.33203 48.835 13.999 70.502s21.334 40.5 38.001 56.5s37.167 28.667 61.5 38s52.833 14 85.5 14c23.333 0 45.5 -2.5 66.5 -7.5s39.333 -13.5 55 -25.5s28.334 -27.833 38.001 -47.5
s14.834 -44.167 15.501 -73.5v-308c0 -5.33301 2 -9.33301 6 -12s9 -4.33398 15 -5.00098s12.667 -0.833984 20 -0.500977s14 0.833008 20 1.5v-48h-42c-17.333 -0 -32.833 4.33301 -46.5 13s-20.5 25 -20.5 49v9c-17.333 -23.333 -41.333 -42.833 -72 -58.5
s-66.667 -23.5 -108 -23.5c-53.333 0 -96.166 12.167 -128.499 36.5s-48.5 60.5 -48.5 108.5c0 32 5.33301 58.167 16 78.5s24.667 36.333 42 48s36.666 19.834 57.999 24.501s42.666 7.66699 63.999 9c4 0.666992 8.66699 1 14 1h11c25.333 1.33301 47.5 3 66.5 5
s34.833 5.16699 47.5 9.5s22.167 10.166 28.5 17.499s9.5 17.666 9.5 30.999c0 12.667 -1.16699 26.167 -3.5 40.5s-7.83301 27.333 -16.5 39s-21.5 21.334 -38.5 29.001s-39.833 11.5 -68.5 11.5c-46.667 0 -82.834 -12.333 -108.501 -37s-40.167 -60 -43.5 -106h-36z
M188.998 36.002c29.333 0 55.1709 4.99902 77.5039 14.999s41.166 23 56.499 39s27 34.5 35 55.5s12 42.5 12 64.5v60c-17.333 -8.66699 -38.5 -14.167 -63.5 -16.5s-50.5 -4.16602 -76.5 -5.49902c-2.66699 0 -5.5 -0.166992 -8.5 -0.5s-6.16699 -0.5 -9.5 -0.5
c-6.66699 0 -11.334 -0.333008 -14.001 -1c-17.333 -1.33301 -34.333 -3.5 -51 -6.5s-31.334 -8.5 -44.001 -16.5s-22.834 -19 -30.501 -33s-11.5 -32.667 -11.5 -56c0 -12 2.16699 -24 6.5 -36s11.5 -22.5 21.5 -31.5s23.167 -16.333 39.5 -22s36.5 -8.5 60.5 -8.5z
M386.003 297.001l-16 15v-44l14 11.5c4.66699 3.66699 8.66699 8.16699 12 13.5l-5 6z" />
    <glyph glyph-name="aacute" unicode="&#xe1;" horiz-adv-x="481" 
d="M203 534h-53l152 164h68zM44 347c0.666992 25.333 5.33203 48.835 13.999 70.502s21.334 40.5 38.001 56.5s37.167 28.667 61.5 38s52.833 14 85.5 14c23.333 0 45.5 -2.5 66.5 -7.5s39.333 -13.5 55 -25.5s28.334 -27.833 38.001 -47.5s14.834 -44.167 15.501 -73.5
v-308c0 -5.33301 2 -9.33301 6 -12s9 -4.33398 15 -5.00098s12.667 -0.833984 20 -0.500977s14 0.833008 20 1.5v-48h-42c-17.333 -0 -32.833 4.33301 -46.5 13s-20.5 25 -20.5 49v9c-17.333 -23.333 -41.333 -42.833 -72 -58.5s-66.667 -23.5 -108 -23.5
c-53.333 0 -96.166 12.167 -128.499 36.5s-48.5 60.5 -48.5 108.5c0 32 5.33301 58.167 16 78.5s24.667 36.333 42 48s36.666 19.834 57.999 24.501s42.666 7.66699 63.999 9c4 0.666992 8.66699 1 14 1h11c25.333 1.33301 47.5 3 66.5 5s34.833 5.16699 47.5 9.5
s22.167 10.166 28.5 17.499s9.5 17.666 9.5 30.999c0 12.667 -1.16699 26.167 -3.5 40.5s-7.83301 27.333 -16.5 39s-21.5 21.334 -38.5 29.001s-39.833 11.5 -68.5 11.5c-46.667 0 -82.834 -12.333 -108.501 -37s-40.167 -60 -43.5 -106h-36zM188.998 36.002
c29.333 0 55.1709 4.99902 77.5039 14.999s41.166 23 56.499 39s27 34.5 35 55.5s12 42.5 12 64.5v60c-17.333 -8.66699 -38.5 -14.167 -63.5 -16.5s-50.5 -4.16602 -76.5 -5.49902c-2.66699 0 -5.5 -0.166992 -8.5 -0.5s-6.16699 -0.5 -9.5 -0.5
c-6.66699 0 -11.334 -0.333008 -14.001 -1c-17.333 -1.33301 -34.333 -3.5 -51 -6.5s-31.334 -8.5 -44.001 -16.5s-22.834 -19 -30.501 -33s-11.5 -32.667 -11.5 -56c0 -12 2.16699 -24 6.5 -36s11.5 -22.5 21.5 -31.5s23.167 -16.333 39.5 -22s36.5 -8.5 60.5 -8.5z
M386.003 297.001l-16 15v-44l14 11.5c4.66699 3.66699 8.66699 8.16699 12 13.5l-5 6z" />
    <glyph glyph-name="acircumflex" unicode="&#xe2;" horiz-adv-x="481" 
d="M233 645l-21.5 -26l-21.5 -27l-22.5 -27l-21.5 -26h-55l129 159h28l130 -159h-55zM44 347c0.666992 25.333 5.33203 48.835 13.999 70.502s21.334 40.5 38.001 56.5s37.167 28.667 61.5 38s52.833 14 85.5 14c23.333 0 45.5 -2.5 66.5 -7.5s39.333 -13.5 55 -25.5
s28.334 -27.833 38.001 -47.5s14.834 -44.167 15.501 -73.5v-308c0 -5.33301 2 -9.33301 6 -12s9 -4.33398 15 -5.00098s12.667 -0.833984 20 -0.500977s14 0.833008 20 1.5v-48h-42c-17.333 -0 -32.833 4.33301 -46.5 13s-20.5 25 -20.5 49v9
c-17.333 -23.333 -41.333 -42.833 -72 -58.5s-66.667 -23.5 -108 -23.5c-53.333 0 -96.166 12.167 -128.499 36.5s-48.5 60.5 -48.5 108.5c0 32 5.33301 58.167 16 78.5s24.667 36.333 42 48s36.666 19.834 57.999 24.501s42.666 7.66699 63.999 9
c4 0.666992 8.66699 1 14 1h11c25.333 1.33301 47.5 3 66.5 5s34.833 5.16699 47.5 9.5s22.167 10.166 28.5 17.499s9.5 17.666 9.5 30.999c0 12.667 -1.16699 26.167 -3.5 40.5s-7.83301 27.333 -16.5 39s-21.5 21.334 -38.5 29.001s-39.833 11.5 -68.5 11.5
c-46.667 0 -82.834 -12.333 -108.501 -37s-40.167 -60 -43.5 -106h-36zM188.998 36.002c29.333 0 55.1709 4.99902 77.5039 14.999s41.166 23 56.499 39s27 34.5 35 55.5s12 42.5 12 64.5v60c-17.333 -8.66699 -38.5 -14.167 -63.5 -16.5s-50.5 -4.16602 -76.5 -5.49902
c-2.66699 0 -5.5 -0.166992 -8.5 -0.5s-6.16699 -0.5 -9.5 -0.5c-6.66699 0 -11.334 -0.333008 -14.001 -1c-17.333 -1.33301 -34.333 -3.5 -51 -6.5s-31.334 -8.5 -44.001 -16.5s-22.834 -19 -30.501 -33s-11.5 -32.667 -11.5 -56c0 -12 2.16699 -24 6.5 -36
s11.5 -22.5 21.5 -31.5s23.167 -16.333 39.5 -22s36.5 -8.5 60.5 -8.5zM386.003 297.001l-16 15v-44l14 11.5c4.66699 3.66699 8.66699 8.16699 12 13.5l-5 6z" />
    <glyph glyph-name="atilde" unicode="&#xe3;" horiz-adv-x="481" 
d="M96 559c0 10.667 2.16504 21.4971 6.49805 32.4971s10 20.833 17 29.5s15.333 15.834 25 21.501s19.5 8.5 29.5 8.5c13.333 0 26.166 -3.5 38.499 -10.5s24.166 -14.167 35.499 -21.5c8.66699 -6 16.834 -11.333 24.501 -16s14.834 -7 21.501 -7
c10 0 17.833 5.33301 23.5 16s8.5 22.667 8.5 36h47c0 -12.667 -1.66699 -25 -5 -37s-8.16602 -22.667 -14.499 -32s-14.5 -16.833 -24.5 -22.5s-21.667 -8.5 -35 -8.5s-25.833 3.33301 -37.5 10s-23.167 14 -34.5 22c-0.666992 0.666992 -1 0.833984 -1 0.500977
s-0.333008 -0.166016 -1 0.500977h1c-8 6 -16 11.167 -24 15.5s-15.667 6.5 -23 6.5c-9.33301 0 -16.666 -6.33301 -21.999 -19s-8 -25 -8 -37h-37zM43.998 346.997c0.666992 25.333 5.33203 48.835 13.999 70.502s21.334 40.5 38.001 56.5s37.167 28.667 61.5 38
s52.833 14 85.5 14c23.333 0 45.5 -2.5 66.5 -7.5s39.333 -13.5 55 -25.5s28.334 -27.833 38.001 -47.5s14.834 -44.167 15.501 -73.5v-308c0 -5.33301 2 -9.33301 6 -12s9 -4.33398 15 -5.00098s12.667 -0.833984 20 -0.500977s14 0.833008 20 1.5v-48h-42
c-17.333 0 -32.833 4.33301 -46.5 13s-20.5 25 -20.5 49v9c-17.333 -23.333 -41.333 -42.833 -72 -58.5s-66.667 -23.5 -108 -23.5c-53.333 0 -96.166 12.167 -128.499 36.5s-48.5 60.5 -48.5 108.5c0 32 5.33301 58.167 16 78.5s24.667 36.333 42 48
s36.666 19.834 57.999 24.501s42.666 7.66699 63.999 9c4 0.666992 8.66699 1 14 1h11c25.333 1.33301 47.5 3 66.5 5s34.833 5.16699 47.5 9.5s22.167 10.166 28.5 17.499s9.5 17.666 9.5 30.999c0 12.667 -1.16699 26.167 -3.5 40.5s-7.83301 27.333 -16.5 39
s-21.5 21.334 -38.5 29.001s-39.833 11.5 -68.5 11.5c-46.667 0 -82.834 -12.333 -108.501 -37s-40.167 -60 -43.5 -106h-36zM188.996 35.999c29.333 0 55.1709 4.99902 77.5039 14.999s41.166 23 56.499 39s27 34.5 35 55.5s12 42.5 12 64.5v60
c-17.333 -8.66699 -38.5 -14.167 -63.5 -16.5s-50.5 -4.16602 -76.5 -5.49902c-2.66699 0 -5.5 -0.166992 -8.5 -0.5s-6.16699 -0.5 -9.5 -0.5c-6.66699 0 -11.334 -0.333008 -14.001 -1c-17.333 -1.33301 -34.333 -3.5 -51 -6.5s-31.334 -8.5 -44.001 -16.5
s-22.834 -19 -30.501 -33s-11.5 -32.667 -11.5 -56c0 -12 2.16699 -24 6.5 -36s11.5 -22.5 21.5 -31.5s23.167 -16.333 39.5 -22s36.5 -8.5 60.5 -8.5zM386.001 296.998l-16 15v-44l14 11.5c4.66699 3.66699 8.66699 8.16699 12 13.5l-5 6z" />
    <glyph glyph-name="adieresis" unicode="&#xe4;" horiz-adv-x="481" 
d="M285 642h47v-105h-47v105zM137 642h48v-105h-48v105zM44 347c0.666992 25.333 5.33203 48.835 13.999 70.502s21.334 40.5 38.001 56.5s37.167 28.667 61.5 38s52.833 14 85.5 14c23.333 0 45.5 -2.5 66.5 -7.5s39.333 -13.5 55 -25.5s28.334 -27.833 38.001 -47.5
s14.834 -44.167 15.501 -73.5v-308c0 -5.33301 2 -9.33301 6 -12s9 -4.33398 15 -5.00098s12.667 -0.833984 20 -0.500977s14 0.833008 20 1.5v-48h-42c-17.333 -0 -32.833 4.33301 -46.5 13s-20.5 25 -20.5 49v9c-17.333 -23.333 -41.333 -42.833 -72 -58.5
s-66.667 -23.5 -108 -23.5c-53.333 0 -96.166 12.167 -128.499 36.5s-48.5 60.5 -48.5 108.5c0 32 5.33301 58.167 16 78.5s24.667 36.333 42 48s36.666 19.834 57.999 24.501s42.666 7.66699 63.999 9c4 0.666992 8.66699 1 14 1h11c25.333 1.33301 47.5 3 66.5 5
s34.833 5.16699 47.5 9.5s22.167 10.166 28.5 17.499s9.5 17.666 9.5 30.999c0 12.667 -1.16699 26.167 -3.5 40.5s-7.83301 27.333 -16.5 39s-21.5 21.334 -38.5 29.001s-39.833 11.5 -68.5 11.5c-46.667 0 -82.834 -12.333 -108.501 -37s-40.167 -60 -43.5 -106h-36z
M188.998 36.002c29.333 0 55.1709 4.99902 77.5039 14.999s41.166 23 56.499 39s27 34.5 35 55.5s12 42.5 12 64.5v60c-17.333 -8.66699 -38.5 -14.167 -63.5 -16.5s-50.5 -4.16602 -76.5 -5.49902c-2.66699 0 -5.5 -0.166992 -8.5 -0.5s-6.16699 -0.5 -9.5 -0.5
c-6.66699 0 -11.334 -0.333008 -14.001 -1c-17.333 -1.33301 -34.333 -3.5 -51 -6.5s-31.334 -8.5 -44.001 -16.5s-22.834 -19 -30.501 -33s-11.5 -32.667 -11.5 -56c0 -12 2.16699 -24 6.5 -36s11.5 -22.5 21.5 -31.5s23.167 -16.333 39.5 -22s36.5 -8.5 60.5 -8.5z
M386.003 297.001l-16 15v-44l14 11.5c4.66699 3.66699 8.66699 8.16699 12 13.5l-5 6z" />
    <glyph glyph-name="aring" unicode="&#xe5;" horiz-adv-x="481" 
d="M285 650c0 14 -5 25.833 -15 35.5s-21.667 14.5 -35 14.5c-14 0 -25.833 -4.83301 -35.5 -14.5s-14.5 -21.5 -14.5 -35.5c0 -13.333 4.83301 -24.833 14.5 -34.5s21.5 -14.5 35.5 -14.5c13.333 0 25 4.83301 35 14.5s15 21.167 15 34.5zM332 650
c0 -13.333 -2.5 -25.833 -7.5 -37.5s-12 -22 -21 -31s-19.333 -16 -31 -21s-24.167 -7.5 -37.5 -7.5s-25.833 2.5 -37.5 7.5s-22 12 -31 21s-16.167 19.333 -21.5 31s-8 24.167 -8 37.5s2.66699 25.833 8 37.5s12.5 22 21.5 31s19.333 16.167 31 21.5s24.167 8 37.5 8
s25.833 -2.66699 37.5 -8s22 -12.5 31 -21.5s16 -19.333 21 -31s7.5 -24.167 7.5 -37.5zM44 347c0.666992 25.333 5.33203 48.835 13.999 70.502s21.334 40.5 38.001 56.5s37.167 28.667 61.5 38s52.833 14 85.5 14c23.333 0 45.5 -2.5 66.5 -7.5s39.333 -13.5 55 -25.5
s28.334 -27.833 38.001 -47.5s14.834 -44.167 15.501 -73.5v-308c0 -5.33301 2 -9.33301 6 -12s9 -4.33398 15 -5.00098s12.667 -0.833984 20 -0.500977s14 0.833008 20 1.5v-48h-42c-17.333 -0 -32.833 4.33301 -46.5 13s-20.5 25 -20.5 49v9
c-17.333 -23.333 -41.333 -42.833 -72 -58.5s-66.667 -23.5 -108 -23.5c-53.333 0 -96.166 12.167 -128.499 36.5s-48.5 60.5 -48.5 108.5c0 32 5.33301 58.167 16 78.5s24.667 36.333 42 48s36.666 19.834 57.999 24.501s42.666 7.66699 63.999 9
c4 0.666992 8.66699 1 14 1h11c25.333 1.33301 47.5 3 66.5 5s34.833 5.16699 47.5 9.5s22.167 10.166 28.5 17.499s9.5 17.666 9.5 30.999c0 12.667 -1.16699 26.167 -3.5 40.5s-7.83301 27.333 -16.5 39s-21.5 21.334 -38.5 29.001s-39.833 11.5 -68.5 11.5
c-46.667 0 -82.834 -12.333 -108.501 -37s-40.167 -60 -43.5 -106h-36zM188.998 36.002c29.333 0 55.1709 4.99902 77.5039 14.999s41.166 23 56.499 39s27 34.5 35 55.5s12 42.5 12 64.5v60c-17.333 -8.66699 -38.5 -14.167 -63.5 -16.5s-50.5 -4.16602 -76.5 -5.49902
c-2.66699 0 -5.5 -0.166992 -8.5 -0.5s-6.16699 -0.5 -9.5 -0.5c-6.66699 0 -11.334 -0.333008 -14.001 -1c-17.333 -1.33301 -34.333 -3.5 -51 -6.5s-31.334 -8.5 -44.001 -16.5s-22.834 -19 -30.501 -33s-11.5 -32.667 -11.5 -56c0 -12 2.16699 -24 6.5 -36
s11.5 -22.5 21.5 -31.5s23.167 -16.333 39.5 -22s36.5 -8.5 60.5 -8.5zM386.003 297.001l-16 15v-44l14 11.5c4.66699 3.66699 8.66699 8.16699 12 13.5l-5 6z" />
    <glyph glyph-name="ae" unicode="&#xe6;" horiz-adv-x="889" 
d="M58 347c1.33301 25.333 6.49902 48.8359 15.499 70.5029s21.667 40.5 38 56.5s36.833 28.667 61.5 38s53 14 85 14c20 0 39 -1.5 57 -4.5s34.333 -8.5 49 -16.5s27.5 -18.833 38.5 -32.5s19.167 -30.834 24.5 -51.501c17.333 32 41.666 57.5 72.999 76.5
s69 28.5 113 28.5c39.333 0 73.333 -7.83301 102 -23.5s52.167 -36.834 70.5 -63.501s31.666 -57.167 39.999 -91.5s11.833 -70.5 10.5 -108.5h-402c2.66699 -27.333 7.83398 -53.333 15.501 -78s18.5 -46.167 32.5 -64.5s31.667 -33 53 -44s47 -16.5 77 -16.5
c22 0 42.833 3.5 62.5 10.5s37.334 17.167 53.001 30.5s28.5 30.166 38.5 50.499s16.667 43.5 20 69.5h48c-3.33301 -31.333 -11.166 -59.666 -23.499 -84.999s-28.166 -47.166 -47.499 -65.499s-41.833 -32.5 -67.5 -42.5s-53.5 -15 -83.5 -15
c-49.333 -0.666992 -90.833 9.66602 -124.5 30.999s-59.5 52.333 -77.5 93c-16.667 -41.333 -43 -72.333 -79 -93s-78 -31 -126 -31c-54 0 -96.833 12.167 -128.5 36.5s-47.5 60.5 -47.5 108.5c0 32 5.33301 58 16 78s24.5 35.833 41.5 47.5s36.167 20 57.5 25
s42.666 8.16699 63.999 9.5c3.33301 0.666992 8 1 14 1h12c24.667 1.33301 46.5 3 65.5 5s34.833 5.16699 47.5 9.5s22.167 10.166 28.5 17.499s9.5 17.666 9.5 30.999c0 12.667 -1.16699 26.167 -3.5 40.5s-7.83301 27.333 -16.5 39s-21.5 21.334 -38.5 29.001
s-39.833 11.5 -68.5 11.5c-47.333 0 -83.833 -12.333 -109.5 -37s-40.167 -60 -43.5 -106h-35zM202.999 36.0029c29.333 0 55.332 5 77.999 15s41.667 23 57 39s27 34.5 35 55.5s12 42.5 12 64.5v60c-17.333 -8 -38.666 -13.333 -63.999 -16s-50.666 -4.66699 -75.999 -6
c-2 -0.666992 -4.83301 -1 -8.5 -1h-9.5c-3.33301 0 -6.33301 -0.166992 -9 -0.5s-5.33398 -0.5 -8.00098 -0.5c-17.333 -1.33301 -34 -3.5 -50 -6.5s-30.333 -8.5 -43 -16.5s-22.667 -19 -30 -33s-11 -32.667 -11 -56c0 -12 2.16699 -24 6.5 -36s11.5 -22.5 21.5 -31.5
s23 -16.333 39 -22s36 -8.5 60 -8.5zM399.998 297.003l-14.999 15v-44l13.5 11.5c4.33301 3.66699 8.16602 8.16699 11.499 13.5l-5 6zM612.999 478.003c-52.667 0 -93.999 -17.3311 -123.999 -51.998s-48 -81.334 -54 -140.001h353
c-1.33301 26.667 -5.83301 51.667 -13.5 75s-18.834 43.666 -33.501 60.999s-32.667 31 -54 41s-46 15 -74 15zM815 286.005h-27v-27z" />
    <glyph glyph-name="ccedilla" unicode="&#xe7;" 
d="M464 181c-2.66699 -29.333 -9.33496 -55.5059 -20.002 -78.5059s-24.667 -42.5 -42 -58.5s-37.666 -28.667 -60.999 -38s-48.666 -14.666 -75.999 -15.999c-1.33301 -1.33301 -2.5 -2.66602 -3.5 -3.99902s-2.16699 -2.66602 -3.5 -3.99902
c22 0 41.667 -5.16699 59 -15.5s26 -28.5 26 -54.5c0 -17.333 -3 -31.333 -9 -42s-13.833 -19.167 -23.5 -25.5s-21 -10.666 -34 -12.999s-26.5 -3.5 -40.5 -3.5c-18 0 -35.667 2.5 -53 7.5s-32.333 10.167 -45 15.5l22 43c13.333 -5.33301 26.333 -9.83301 39 -13.5
s25 -5.5 37 -5.5c13.333 0 26.5 2.66699 39.5 8s19.5 15 19.5 29c0 8 -4.66699 13.833 -14 17.5s-17.333 5.5 -24 5.5c-17.333 0 -34.333 -5 -51 -15l-35 22l39 52c-30.667 4 -57.667 13.5 -81 28.5s-43 33.667 -59 56s-28 47.833 -36 76.5s-12 59 -12 91
c0 36.667 4.83301 72 14.5 106s24.334 63.833 44.001 89.5s44.667 46.167 75 61.5s66.166 23 107.499 23c24.667 0 48.167 -4.16699 70.5 -12.5s42.5 -20.5 60.5 -36.5s33 -35.667 45 -59s19.667 -50 23 -80h-48c-7.33301 48 -25 83.333 -53 106s-60.667 34 -98 34
c-36 0 -66.5 -7 -91.5 -21s-45 -32.167 -60 -54.5s-25.833 -47.333 -32.5 -75s-10 -54.834 -10 -81.501c0 -27.333 4 -53.666 12 -78.999s19.667 -47.666 35 -66.999s34.333 -34.833 57 -46.5s48.667 -17.5 78 -17.5c22 0 42.667 3.66699 62 11s36.333 17.833 51 31.5
s26.667 30.334 36 50.001s15 41.5 17 65.5h35z" />
    <glyph glyph-name="egrave" unicode="&#xe8;" 
d="M180 698l143 -164h-52l-159 164h68zM64 239c2 -28.667 6.50293 -55.334 13.5029 -80.001s17.5 -46.167 31.5 -64.5s31.833 -32.666 53.5 -42.999s47.834 -15.5 78.501 -15.5c48 0 87.667 13.333 119 40s50.666 67 57.999 121h48
c-8.66699 -66 -33.167 -117.167 -73.5 -153.5s-90.166 -54.5 -149.499 -54.5c-40 -0.666992 -74.333 5.83301 -103 19.5s-52.167 32.5 -70.5 56.5s-31.833 52.5 -40.5 85.5s-13 68.5 -13 106.5c0 42.667 6.33301 80.667 19 114s29.5 61.5 50.5 84.5s45.167 40.5 72.5 52.5
s55.666 18 84.999 18c40 0 74.667 -8.16699 104 -24.5s53.166 -37.833 71.499 -64.5s31.666 -57.167 39.999 -91.5s12.166 -69.833 11.499 -106.5h-406zM245.003 478c-23.333 0 -45.1699 -4.66309 -65.5029 -13.9961s-38.333 -22.333 -54 -39s-28.667 -36.834 -39 -60.501
s-17.166 -49.834 -20.499 -78.501h356c-1.33301 26 -6.16602 50.667 -14.499 74s-20 43.666 -35 60.999s-33.167 31.166 -54.5 41.499s-45.666 15.5 -72.999 15.5zM449.999 286.004h-28v-27z" />
    <glyph glyph-name="eacute" unicode="&#xe9;" 
d="M212 534h-54l152 164h68zM64 239c2 -28.667 6.50293 -55.334 13.5029 -80.001s17.5 -46.167 31.5 -64.5s31.833 -32.666 53.5 -42.999s47.834 -15.5 78.501 -15.5c48 0 87.667 13.333 119 40s50.666 67 57.999 121h48c-8.66699 -66 -33.167 -117.167 -73.5 -153.5
s-90.166 -54.5 -149.499 -54.5c-40 -0.666992 -74.333 5.83301 -103 19.5s-52.167 32.5 -70.5 56.5s-31.833 52.5 -40.5 85.5s-13 68.5 -13 106.5c0 42.667 6.33301 80.667 19 114s29.5 61.5 50.5 84.5s45.167 40.5 72.5 52.5s55.666 18 84.999 18
c40 0 74.667 -8.16699 104 -24.5s53.166 -37.833 71.499 -64.5s31.666 -57.167 39.999 -91.5s12.166 -69.833 11.499 -106.5h-406zM245.003 478c-23.333 0 -45.1699 -4.66309 -65.5029 -13.9961s-38.333 -22.333 -54 -39s-28.667 -36.834 -39 -60.501
s-17.166 -49.834 -20.499 -78.501h356c-1.33301 26 -6.16602 50.667 -14.499 74s-20 43.666 -35 60.999s-33.167 31.166 -54.5 41.499s-45.666 15.5 -72.999 15.5zM449.999 286.004h-28v-27z" />
    <glyph glyph-name="ecircumflex" unicode="&#xea;" 
d="M241 644l-13.5 -15.5l-14.5 -17.5l-29.5 -36.5l-29.5 -35.5h-55l130 159h27l131 -159h-55zM64 239c2 -28.667 6.50293 -55.334 13.5029 -80.001s17.5 -46.167 31.5 -64.5s31.833 -32.666 53.5 -42.999s47.834 -15.5 78.501 -15.5c48 0 87.667 13.333 119 40
s50.666 67 57.999 121h48c-8.66699 -66 -33.167 -117.167 -73.5 -153.5s-90.166 -54.5 -149.499 -54.5c-40 -0.666992 -74.333 5.83301 -103 19.5s-52.167 32.5 -70.5 56.5s-31.833 52.5 -40.5 85.5s-13 68.5 -13 106.5c0 42.667 6.33301 80.667 19 114s29.5 61.5 50.5 84.5
s45.167 40.5 72.5 52.5s55.666 18 84.999 18c40 0 74.667 -8.16699 104 -24.5s53.166 -37.833 71.499 -64.5s31.666 -57.167 39.999 -91.5s12.166 -69.833 11.499 -106.5h-406zM245.003 478c-23.333 0 -45.1699 -4.66309 -65.5029 -13.9961s-38.333 -22.333 -54 -39
s-28.667 -36.834 -39 -60.501s-17.166 -49.834 -20.499 -78.501h356c-1.33301 26 -6.16602 50.667 -14.499 74s-20 43.666 -35 60.999s-33.167 31.166 -54.5 41.499s-45.666 15.5 -72.999 15.5zM449.999 286.004h-28v-27z" />
    <glyph glyph-name="edieresis" unicode="&#xeb;" 
d="M293 642h48v-105h-48v105zM146 642h47v-105h-47v105zM64 239c2 -28.667 6.50293 -55.334 13.5029 -80.001s17.5 -46.167 31.5 -64.5s31.833 -32.666 53.5 -42.999s47.834 -15.5 78.501 -15.5c48 0 87.667 13.333 119 40s50.666 67 57.999 121h48
c-8.66699 -66 -33.167 -117.167 -73.5 -153.5s-90.166 -54.5 -149.499 -54.5c-40 -0.666992 -74.333 5.83301 -103 19.5s-52.167 32.5 -70.5 56.5s-31.833 52.5 -40.5 85.5s-13 68.5 -13 106.5c0 42.667 6.33301 80.667 19 114s29.5 61.5 50.5 84.5s45.167 40.5 72.5 52.5
s55.666 18 84.999 18c40 0 74.667 -8.16699 104 -24.5s53.166 -37.833 71.499 -64.5s31.666 -57.167 39.999 -91.5s12.166 -69.833 11.499 -106.5h-406zM245.003 478c-23.333 0 -45.1699 -4.66309 -65.5029 -13.9961s-38.333 -22.333 -54 -39s-28.667 -36.834 -39 -60.501
s-17.166 -49.834 -20.499 -78.501h356c-1.33301 26 -6.16602 50.667 -14.499 74s-20 43.666 -35 60.999s-33.167 31.166 -54.5 41.499s-45.666 15.5 -72.999 15.5zM449.999 286.004h-28v-27z" />
    <glyph glyph-name="igrave" unicode="&#xec;" horiz-adv-x="130" 
d="M0 698l143 -164h-52l-158 164h67zM39 514h48v-514h-48v514z" />
    <glyph glyph-name="iacute" unicode="&#xed;" horiz-adv-x="130" 
d="M33 534h-54l152 164h68zM40 514h48v-514h-48v514z" />
    <glyph glyph-name="icircumflex" unicode="&#xee;" horiz-adv-x="130" 
d="M61 645l-43 -53.5l-43 -52.5h-55l129 159h27l131 -159h-55zM40 514h47v-514h-47v514z" />
    <glyph glyph-name="idieresis" unicode="&#xef;" horiz-adv-x="130" 
d="M113 642h47v-105h-47v105zM-34 642h48v-105h-48v105zM40 514h47v-514h-47v514z" />
    <glyph glyph-name="eth" unicode="&#xf0;" horiz-adv-x="519" 
d="M67 248c0 -27.333 4 -53.666 12 -78.999s19.833 -47.833 35.5 -67.5s35 -35.334 58 -47.001s49.833 -17.5 80.5 -17.5c30 0 56.5 5.83301 79.5 17.5s42.333 27.334 58 47.001s27.5 42.167 35.5 67.5s12 51.666 12 78.999s-4 53.666 -12 78.999s-19.833 47.833 -35.5 67.5
s-35 35.5 -58 47.5s-49.5 18 -79.5 18c-30.667 0 -57.5 -6 -80.5 -18s-42.333 -27.833 -58 -47.5s-27.5 -42.167 -35.5 -67.5s-12 -51.666 -12 -78.999zM104 566l111.999 62c-10 7.33301 -22.333 15.333 -37 24s-31.334 18 -50.001 28l38 33c20 -9.33301 38 -19.333 54 -30
s29.667 -20.667 41 -30l52 28.5l51 27.5c0.666992 0 1.66699 0.5 3 1.5s5 3.5 11 7.5l35 -37l-112 -62c32.667 -31.333 60.5 -61.666 83.5 -90.999s41.833 -59 56.5 -89s25.5 -60.667 32.5 -92s10.5 -64.333 10.5 -99c0 -34 -5 -66.5 -15 -97.5s-24.833 -58.5 -44.5 -82.5
s-44 -43 -73 -57s-62.5 -21 -100.5 -21c-37.333 0 -70.5 7 -99.5 21s-53.333 33 -73 57s-34.667 51.5 -45 82.5s-15.5 63.5 -15.5 97.5s5 66.667 15 98s25 58.833 45 82.5s44.5 42.667 73.5 57s62.5 21.5 100.5 21.5c16.667 0 34 -1.83301 52 -5.5s35 -9.16699 51 -16.5
c-17.333 23.333 -34.666 44.5 -51.999 63.5s-33.666 34.833 -48.999 47.5l-29.5 -16.5c-10.333 -5.66699 -20.5 -11.834 -30.5 -18.501l-28.5 -16c-9.66699 -5.33301 -18.167 -10.333 -25.5 -15z" />
    <glyph glyph-name="ntilde" unicode="&#xf1;" 
d="M104 559c0 10.667 2.17188 21.4971 6.50488 32.4971s10.166 20.833 17.499 29.5s15.666 15.834 24.999 21.501s19.333 8.5 30 8.5c13.333 0 26.166 -3.5 38.499 -10.5s23.833 -14.167 34.5 -21.5c8.66699 -6.66699 17 -12.167 25 -16.5s15 -6.5 21 -6.5
c10.667 0 18.667 5.33301 24 16s8 22.667 8 36h48c0 -12.667 -1.66699 -25 -5 -37s-8.33301 -22.667 -15 -32s-15 -16.833 -25 -22.5s-21.667 -8.5 -35 -8.5s-25.833 3.33301 -37.5 10s-22.834 14 -33.501 22c-0.666992 0.666992 -1 0.833984 -1 0.500977
s-0.333008 -0.166016 -1 0.500977h1c-8.66699 6 -16.834 11.167 -24.501 15.5s-15.167 6.5 -22.5 6.5c-9.33301 0 -17 -6.33301 -23 -19s-9 -25 -9 -37h-35zM92.0049 513.997l2 -66c16 24.667 37.5 43.834 64.5 57.501s58.833 20.5 95.5 20.5
c27.333 0 52.5 -4.16699 75.5 -12.5s42.833 -20.5 59.5 -36.5s29.667 -35.833 39 -59.5s14 -50.834 14 -81.501v-336h-48v334c0 25.333 -3.66699 47.166 -11 65.499s-17.5 33.333 -30.5 45s-28 20.167 -45 25.5s-34.833 8 -53.5 8c-26.667 0 -50 -5.16699 -70 -15.5
s-36.833 -24.166 -50.5 -41.499s-24 -37.333 -31 -60s-10.5 -46.667 -10.5 -72v-289h-47v514h47z" />
    <glyph glyph-name="ograve" unicode="&#xf2;" horiz-adv-x="519" 
d="M190 698l142 -164h-51l-159 164h68zM67 257c0 -29.333 4 -57.166 12 -83.499s19.833 -49.833 35.5 -70.5s35 -37 58 -49s49.833 -18 80.5 -18c30 0 56.5 6 79.5 18s42.333 28.333 58 49s27.5 44.167 35.5 70.5s12 54.166 12 83.499c0 28 -4 55.333 -12 82
s-19.833 50.334 -35.5 71.001s-35 37.167 -58 49.5s-49.5 18.5 -79.5 18.5c-30.667 0 -57.5 -6.16699 -80.5 -18.5s-42.333 -28.833 -58 -49.5s-27.5 -44.334 -35.5 -71.001s-12 -54 -12 -82zM19 257c0 34.667 4.99902 68.334 14.999 101.001s25 61.334 45 86.001
s44.5 44.5 73.5 59.5s62.5 22.5 100.5 22.5c37.333 0 70.333 -7.5 99 -22.5s52.834 -34.833 72.501 -59.5s34.667 -53.334 45 -86.001s15.5 -66.334 15.5 -101.001c0 -35.333 -5 -69.166 -15 -101.499s-24.833 -60.833 -44.5 -85.5s-44 -44.334 -73 -59.001
s-62.5 -22 -100.5 -22c-37.333 0 -70.5 7.33301 -99.5 22s-53.333 34.334 -73 59.001s-34.667 53.167 -45 85.5s-15.5 66.166 -15.5 101.499z" />
    <glyph glyph-name="oacute" unicode="&#xf3;" horiz-adv-x="519" 
d="M221 534h-53l151 164h69zM67 257c0 -29.333 4 -57.166 12 -83.499s19.833 -49.833 35.5 -70.5s35 -37 58 -49s49.833 -18 80.5 -18c30 0 56.5 6 79.5 18s42.333 28.333 58 49s27.5 44.167 35.5 70.5s12 54.166 12 83.499c0 28 -4 55.333 -12 82
s-19.833 50.334 -35.5 71.001s-35 37.167 -58 49.5s-49.5 18.5 -79.5 18.5c-30.667 0 -57.5 -6.16699 -80.5 -18.5s-42.333 -28.833 -58 -49.5s-27.5 -44.334 -35.5 -71.001s-12 -54 -12 -82zM19 257c0 34.667 4.99902 68.334 14.999 101.001s25 61.334 45 86.001
s44.5 44.5 73.5 59.5s62.5 22.5 100.5 22.5c37.333 0 70.333 -7.5 99 -22.5s52.834 -34.833 72.501 -59.5s34.667 -53.334 45 -86.001s15.5 -66.334 15.5 -101.001c0 -35.333 -5 -69.166 -15 -101.499s-24.833 -60.833 -44.5 -85.5s-44 -44.334 -73 -59.001
s-62.5 -22 -100.5 -22c-37.333 0 -70.5 7.33301 -99.5 22s-53.333 34.334 -73 59.001s-34.667 53.167 -45 85.5s-15.5 66.166 -15.5 101.499z" />
    <glyph glyph-name="ocircumflex" unicode="&#xf4;" horiz-adv-x="519" 
d="M251 645c-7.33301 -8 -14.502 -16.332 -21.502 -24.999l-21.5 -27c-7.33301 -8.66699 -14.666 -17.834 -21.999 -27.501s-14.666 -18.5 -21.999 -26.5h-56l131 159h27l131 -159h-55zM66.998 257.001c0 -29.333 4 -57.166 12 -83.499s19.833 -49.833 35.5 -70.5
s35 -37 58 -49s49.833 -18 80.5 -18c30 0 56.5 6 79.5 18s42.333 28.333 58 49s27.5 44.167 35.5 70.5s12 54.166 12 83.499c0 28 -4 55.333 -12 82s-19.833 50.334 -35.5 71.001s-35 37.167 -58 49.5s-49.5 18.5 -79.5 18.5c-30.667 0 -57.5 -6.16699 -80.5 -18.5
s-42.333 -28.833 -58 -49.5s-27.5 -44.334 -35.5 -71.001s-12 -54 -12 -82zM18.998 257.001c0 34.667 4.99902 68.334 14.999 101.001s25 61.334 45 86.001s44.5 44.5 73.5 59.5s62.5 22.5 100.5 22.5c37.333 0 70.333 -7.5 99 -22.5s52.834 -34.833 72.501 -59.5
s34.667 -53.334 45 -86.001s15.5 -66.334 15.5 -101.001c0 -35.333 -5 -69.166 -15 -101.499s-24.833 -60.833 -44.5 -85.5s-44 -44.334 -73 -59.001s-62.5 -22 -100.5 -22c-37.333 0 -70.5 7.33301 -99.5 22s-53.333 34.334 -73 59.001s-34.667 53.167 -45 85.5
s-15.5 66.166 -15.5 101.499z" />
    <glyph glyph-name="otilde" unicode="&#xf5;" horiz-adv-x="519" 
d="M113 559c0 10.667 2.16797 21.4971 6.50098 32.4971s10.166 20.833 17.499 29.5s15.833 15.834 25.5 21.501s19.834 8.5 30.501 8.5c13.333 0 26.166 -3.5 38.499 -10.5s23.833 -14.167 34.5 -21.5c8.66699 -6.66699 16.834 -12.167 24.501 -16.5
s14.834 -6.5 21.501 -6.5c10.667 0 18.667 5.33301 24 16s8 22.667 8 36h48c0 -12.667 -1.66699 -25 -5 -37s-8.33301 -22.667 -15 -32s-15 -16.833 -25 -22.5s-21.667 -8.5 -35 -8.5s-25.833 3.33301 -37.5 10s-22.834 14 -33.501 22
c-0.666992 0.666992 -1 0.833984 -1 0.500977s-0.333008 -0.166016 -1 0.500977h1c-8.66699 6 -16.834 11.167 -24.501 15.5s-15.167 6.5 -22.5 6.5c-9.33301 0 -17 -6.33301 -23 -19s-9 -25 -9 -37h-36zM67.001 256.997c0 -29.333 4 -57.166 12 -83.499
s19.833 -49.833 35.5 -70.5s35 -37 58 -49s49.833 -18 80.5 -18c30 0 56.5 6 79.5 18s42.333 28.333 58 49s27.5 44.167 35.5 70.5s12 54.166 12 83.499c0 28 -4 55.333 -12 82s-19.833 50.334 -35.5 71.001s-35 37.167 -58 49.5s-49.5 18.5 -79.5 18.5
c-30.667 0 -57.5 -6.16699 -80.5 -18.5s-42.333 -28.833 -58 -49.5s-27.5 -44.334 -35.5 -71.001s-12 -54 -12 -82zM19.001 256.997c0 34.667 4.99902 68.334 14.999 101.001s25 61.334 45 86.001s44.5 44.5 73.5 59.5s62.5 22.5 100.5 22.5c37.333 0 70.333 -7.5 99 -22.5
s52.834 -34.833 72.501 -59.5s34.667 -53.334 45 -86.001s15.5 -66.334 15.5 -101.001c0 -35.333 -5 -69.166 -15 -101.499s-24.833 -60.833 -44.5 -85.5s-44 -44.334 -73 -59.001s-62.5 -22 -100.5 -22c-37.333 0 -70.5 7.33301 -99.5 22s-53.333 34.334 -73 59.001
s-34.667 53.167 -45 85.5s-15.5 66.166 -15.5 101.499z" />
    <glyph glyph-name="odieresis" unicode="&#xf6;" horiz-adv-x="519" 
d="M303 642h47v-105h-47v105zM155 642h48v-105h-48v105zM67 257c0 -29.333 4 -57.166 12 -83.499s19.833 -49.833 35.5 -70.5s35 -37 58 -49s49.833 -18 80.5 -18c30 0 56.5 6 79.5 18s42.333 28.333 58 49s27.5 44.167 35.5 70.5s12 54.166 12 83.499
c0 28 -4 55.333 -12 82s-19.833 50.334 -35.5 71.001s-35 37.167 -58 49.5s-49.5 18.5 -79.5 18.5c-30.667 0 -57.5 -6.16699 -80.5 -18.5s-42.333 -28.833 -58 -49.5s-27.5 -44.334 -35.5 -71.001s-12 -54 -12 -82zM19 257c0 34.667 4.99902 68.334 14.999 101.001
s25 61.334 45 86.001s44.5 44.5 73.5 59.5s62.5 22.5 100.5 22.5c37.333 0 70.333 -7.5 99 -22.5s52.834 -34.833 72.501 -59.5s34.667 -53.334 45 -86.001s15.5 -66.334 15.5 -101.001c0 -35.333 -5 -69.166 -15 -101.499s-24.833 -60.833 -44.5 -85.5
s-44 -44.334 -73 -59.001s-62.5 -22 -100.5 -22c-37.333 0 -70.5 7.33301 -99.5 22s-53.333 34.334 -73 59.001s-34.667 53.167 -45 85.5s-15.5 66.166 -15.5 101.499z" />
    <glyph glyph-name="divide" unicode="&#xf7;" horiz-adv-x="600" 
d="M291 0c-18 0 -31.333 5 -40 15s-13 22.667 -13 38s5 28 15 38s22.667 15 38 15s28 -5 38 -15s15 -22.667 15 -38s-3.66699 -28 -11 -38s-21.333 -15 -42 -15zM291 400c-18 0 -31.333 5 -40 15s-13 22.667 -13 38c0 16 5 28.833 15 38.5s22.667 14.5 38 14.5s28 -5 38 -15
s15 -22.667 15 -38s-3.66699 -28 -11 -38s-21.333 -15 -42 -15zM39 277h505v-47h-505v47z" />
    <glyph glyph-name="oslash" unicode="&#xf8;" horiz-adv-x="519" 
d="M486 471l-46 -48.0029c15.333 -23.333 26.666 -48.833 33.999 -76.5s11 -57.5 11 -89.5c0 -35.333 -5 -69.166 -15 -101.499s-24.833 -60.833 -44.5 -85.5s-44 -44.334 -73 -59.001s-62.5 -22 -100.5 -22c-36 0 -67.167 5.83301 -93.5 17.5s-49.166 28.167 -68.499 49.5
l-27 -28.5l-25 -26.5l-34 33l58 61c-13.333 22.667 -23.833 48.167 -31.5 76.5s-11.5 56.833 -11.5 85.5c0 34.667 5 68.334 15 101.001s24.833 61.334 44.5 86.001s44 44.5 73 59.5s62.5 22.5 100.5 22.5c34 0 64 -5.83301 90 -17.5s49 -27.834 69 -48.501
c3.33301 4.66699 7 8.83398 11 12.501s8 7.83398 12 12.501l11 11l8 8zM437 256.997c0 49.333 -10.334 92.334 -31.001 129.001l-122 -127.5l-123 -128.5c-6.66699 -6.66699 -12.667 -13 -18 -19s-11.666 -12.667 -18.999 -20c14.667 -14.667 33.334 -27.5 56.001 -38.5
s46.667 -16.5 72 -16.5c30 0 56.667 6 80 18s42.666 28.333 57.999 49s27 44.167 35 70.5s12 54.166 12 83.499zM402.999 390.998c1.33301 -2.66699 2.33301 -4.33301 3 -5l4 5h-7zM106.999 83.999l8 -1.99902l8 12c-3.33301 1.33301 -5 2.66602 -5 3.99902h-10zM66.999 257
c0 -49.333 9.33203 -91.666 27.999 -126.999l69.5 72l70.5 74l71 74l71 74c-14.667 16 -32.667 29 -54 39s-45 15 -71 15c-30 0 -56.667 -6.16699 -80 -18.5s-42.666 -28.833 -57.999 -49.5s-27 -44.334 -35 -71.001s-12 -54 -12 -82zM97.998 125
c0 1.33301 -0.330078 2.16699 -0.99707 2.5s-1.33398 1.16602 -2.00098 2.49902c-0.666992 -1.33301 -1.33398 -2.16602 -2.00098 -2.49902s-1.33398 -0.833008 -2.00098 -1.5zM396.001 444.001l-22 -21l20 -12z" />
    <glyph glyph-name="ugrave" unicode="&#xf9;" 
d="M180 698l143 -164h-52l-159 164h68zM394 0l-2 68.001c-17.333 -24 -39.333 -43.167 -66 -57.5s-58 -21.5 -94 -21.5c-27.333 0 -52.5 4 -75.5 12s-42.833 20 -59.5 36s-29.5 35.667 -38.5 59s-13.5 50.666 -13.5 81.999v336h47v-334
c0 -25.333 3.66699 -47.166 11 -65.499s17.5 -33.333 30.5 -45s27.833 -20.167 44.5 -25.5s34.667 -8 54 -8c26.667 0 50 5.16699 70 15.5s36.833 24.166 50.5 41.499s24 37.333 31 60s10.5 46.667 10.5 72v289h48v-514h-48z" />
    <glyph glyph-name="uacute" unicode="&#xfa;" 
d="M212 534h-54l152 164h68zM394 0l-2 68.001c-17.333 -24 -39.333 -43.167 -66 -57.5s-58 -21.5 -94 -21.5c-27.333 0 -52.5 4 -75.5 12s-42.833 20 -59.5 36s-29.5 35.667 -38.5 59s-13.5 50.666 -13.5 81.999v336h47v-334c0 -25.333 3.66699 -47.166 11 -65.499
s17.5 -33.333 30.5 -45s27.833 -20.167 44.5 -25.5s34.667 -8 54 -8c26.667 0 50 5.16699 70 15.5s36.833 24.166 50.5 41.499s24 37.333 31 60s10.5 46.667 10.5 72v289h48v-514h-48z" />
    <glyph glyph-name="ucircumflex" unicode="&#xfb;" 
d="M241 644l-13.5 -15.5l-14.5 -17.5l-29.5 -36.5l-29.5 -35.5h-55l130 159h27l131 -159h-55zM394 0l-2 68.001c-17.333 -24 -39.333 -43.167 -66 -57.5s-58 -21.5 -94 -21.5c-27.333 0 -52.5 4 -75.5 12s-42.833 20 -59.5 36s-29.5 35.667 -38.5 59
s-13.5 50.666 -13.5 81.999v336h47v-334c0 -25.333 3.66699 -47.166 11 -65.499s17.5 -33.333 30.5 -45s27.833 -20.167 44.5 -25.5s34.667 -8 54 -8c26.667 0 50 5.16699 70 15.5s36.833 24.166 50.5 41.499s24 37.333 31 60s10.5 46.667 10.5 72v289h48v-514h-48z" />
    <glyph glyph-name="udieresis" unicode="&#xfc;" 
d="M293 642h48v-105h-48v105zM146 642h47v-105h-47v105zM394 0l-2 68.001c-17.333 -24 -39.333 -43.167 -66 -57.5s-58 -21.5 -94 -21.5c-27.333 0 -52.5 4 -75.5 12s-42.833 20 -59.5 36s-29.5 35.667 -38.5 59s-13.5 50.666 -13.5 81.999v336h47v-334
c0 -25.333 3.66699 -47.166 11 -65.499s17.5 -33.333 30.5 -45s27.833 -20.167 44.5 -25.5s34.667 -8 54 -8c26.667 0 50 5.16699 70 15.5s36.833 24.166 50.5 41.499s24 37.333 31 60s10.5 46.667 10.5 72v289h48v-514h-48z" />
    <glyph glyph-name="yacute" unicode="&#xfd;" horiz-adv-x="407" 
d="M168 554h-54l151 165h68zM423 514l-232.001 -603c-7.33301 -18.667 -16.166 -33.167 -26.499 -43.5s-22.166 -18 -35.499 -23s-28 -8 -44 -9s-33 -1.5 -51 -1.5v47c17.333 0 32.166 0.5 44.499 1.5s22.833 3.33301 31.5 7s16 9 22 16s11.667 16.833 17 29.5l32 84l-35 84
l-36 85l-69.5 165l-67.5 161h52l183 -433l60 159.5l60 158.5l21.5 58l21.5 57h52z" />
    <glyph glyph-name="thorn" unicode="&#xfe;" horiz-adv-x="537" 
d="M46 -166l-0.000976562 869.001h47l2 -270c17.333 30 40.666 53 69.999 69s66 24 110 24c36 0 67.833 -6.66699 95.5 -20s50.834 -32 69.501 -56s32.667 -52.333 42 -85s14 -68.334 14 -107.001c0 -36 -4.33301 -70.333 -13 -103s-22 -61.167 -40 -85.5
s-40.833 -43.833 -68.5 -58.5s-60.834 -22 -99.501 -22c-39.333 0 -74.666 8.5 -105.999 25.5s-56.666 39.833 -75.999 68.5v-249h-47zM448.999 258.001c0 29.333 -3.33301 57.333 -10 84s-17 50 -31 70s-32 36 -54 48s-48.333 18 -79 18s-57.334 -6 -80.001 -18
s-41.5 -28 -56.5 -48s-26.333 -43.333 -34 -70s-11.5 -54.667 -11.5 -84c0 -35.333 4.5 -66.833 13.5 -94.5s21.5 -51 37.5 -70s35.167 -33.333 57.5 -43s46.833 -14.5 73.5 -14.5c32.667 0 60.167 6.66699 82.5 20s40.333 30.5 54 51.5s23.334 44.667 29.001 71
s8.5 52.833 8.5 79.5z" />
    <glyph glyph-name="ydieresis" unicode="&#xff;" horiz-adv-x="407" 
d="M248 662h47v-105h-47v105zM101 662h47v-105h-47v105zM423 514l-232.001 -603c-7.33301 -18.667 -16.166 -33.167 -26.499 -43.5s-22.166 -18 -35.499 -23s-28 -8 -44 -9s-33 -1.5 -51 -1.5v47c17.333 0 32.166 0.5 44.499 1.5s22.833 3.33301 31.5 7s16 9 22 16
s11.667 16.833 17 29.5l32 84l-35 84l-36 85l-69.5 165l-67.5 161h52l183 -433l60 159.5l60 158.5l21.5 58l21.5 57h52z" />
    <glyph glyph-name="uni0259" unicode="&#x259;" horiz-adv-x="507" 
d="M244 -11c-40 0 -74.4961 7.99609 -103.496 23.9961s-52.833 37.333 -71.5 64s-32.334 57.334 -41.001 92.001s-12.334 70.334 -11.001 107.001h405c-2.66699 26.667 -7.83398 52.334 -15.501 77.001s-18.5 46.334 -32.5 65.001s-31.5 33.5 -52.5 44.5
s-46.167 16.5 -75.5 16.5c-48 0 -87.5 -13.333 -118.5 -40s-50.833 -67 -59.5 -121h-47c9.33301 66 34 117.167 74 153.5s89.667 54.5 149 54.5c40 0 74.333 -6.83301 103 -20.5s52.167 -32.5 70.5 -56.5s31.666 -52.333 39.999 -85s12.5 -68 12.5 -106
c0 -42.667 -6.33301 -80.667 -19 -114s-29.5 -61.5 -50.5 -84.5s-45 -40.5 -72 -52.5s-55.167 -18 -84.5 -18zM242.004 36.9961c23.333 0 45.168 4.66406 65.501 13.9971s38.333 22.333 54 39s28.667 36.834 39 60.501s17.166 49.834 20.499 78.501h-356
c2 -25.333 7.16699 -49.666 15.5 -72.999s20 -43.833 35 -61.5s33 -31.667 54 -42s45.167 -15.5 72.5 -15.5z" />
    <glyph glyph-name="soliduslongoverlaycmb" unicode="&#x338;" horiz-adv-x="0" 
d="M-33 719h51l-322 -734h-49z" />
    <glyph glyph-name="Omegagreek" unicode="&#x3a9;" horiz-adv-x="693" 
d="M37 48l189.001 0.00292969v85c-32 10 -59.833 24 -83.5 42s-43.334 39 -59.001 63s-27.334 50.667 -35.001 80s-11.5 60.333 -11.5 93c0 42 7.66699 81.833 23 119.5s36.5 70.5 63.5 98.5s59 50.333 96 67s76.833 25 119.5 25s82.5 -8.16699 119.5 -24.5
s69 -38.666 96 -66.999s48.167 -61.333 63.5 -99s23 -77.834 23 -120.501c0 -66.667 -15.167 -124.334 -45.5 -173.001s-77.833 -83 -142.5 -103v-86h189v-48h-237v171c64.667 17.333 112.167 47.166 142.5 89.499s45.5 92.166 45.5 149.499c0 35.333 -6.5 69 -19.5 101
s-30.833 60 -53.5 84s-49.5 43 -80.5 57s-64.5 21 -100.5 21s-69.5 -7 -100.5 -21s-57.833 -33 -80.5 -57s-40.5 -51.833 -53.5 -83.5s-19.5 -65.167 -19.5 -100.5c0 -27.333 4.16699 -53.833 12.5 -79.5s20.5 -49 36.5 -70s35.833 -39.333 59.5 -55
s50.834 -27.5 81.501 -35.5v-171h-238v48z" />
    <glyph glyph-name="pi" unicode="&#x3c0;" horiz-adv-x="556" 
d="M457 -4c-17.333 0 -30.498 3.00098 -39.498 9.00098s-15.833 13.833 -20.5 23.5s-7.33398 20.5 -8.00098 32.5s-1 23.667 -1 35v370h-249v-466h-47v466h-69v48h485v-48h-73v-376c0 -10.667 1 -21.334 3 -32.001s8.33301 -16 19 -16c11.333 0 30 11 56 33v-60
c-20.667 -12.667 -39.334 -19 -56.001 -19z" />
    <glyph glyph-name="afii10023" unicode="&#x401;" horiz-adv-x="537" 
d="M43 714h484v-48h-435v-271h409v-48h-409v-299h439v-48h-488v714zM342 843h49v-106h-49v106zM194 843h48v-106h-48v106z" />
    <glyph glyph-name="afii10017" unicode="&#x410;" horiz-adv-x="575" 
d="M262 714h46l283 -714h-55l-90 226h-328l-46 -113.5l-45 -112.5h-54zM428 274l-37.5 93.5l-34.5 88l-35 88l-37 95.5l-44.5 -110.5l-44.5 -108.5l-29 -72.5l-30 -73.5h292z" />
    <glyph glyph-name="afii10018" unicode="&#x411;" horiz-adv-x="611" 
d="M44 714h479.999v-48h-432v-254h259c72.667 0 127.834 -17.667 165.501 -53s56.5 -85.333 56.5 -150c0 -31.333 -5.33301 -59.833 -16 -85.5s-26 -47.667 -46 -66s-44.333 -32.5 -73 -42.5s-61 -15 -97 -15h-297v714zM349.999 48c26.667 0 50.666 4 71.999 12
s39.5 19.167 54.5 33.5s26.667 31.333 35 51s12.5 41.5 12.5 65.5c0 50 -14.667 88.167 -44 114.5s-72.666 39.5 -129.999 39.5h-258v-316h258z" />
    <glyph glyph-name="afii10019" unicode="&#x412;" horiz-adv-x="611" 
d="M37 714l308.997 -0.000976562c28.667 0 55.667 -3.83301 81 -11.5s47.333 -19.167 66 -34.5s33.334 -34.666 44.001 -57.999s16 -50.333 16 -81c0 -34.667 -8.33301 -66 -25 -94s-40 -48.667 -70 -62c33.333 -13.333 61 -34.5 83 -63.5s33 -65.5 33 -109.5
c0 -33.333 -5.83301 -62.333 -17.5 -87s-28.167 -45.5 -49.5 -62.5s-46.666 -29.667 -75.999 -38s-61.666 -12.5 -96.999 -12.5h-297v714zM342.997 47.999c26 0 50 2.99902 72 8.99902s41.333 15.333 58 28s29.667 28.5 39 47.5s14 41.167 14 66.5
c0 27.333 -5.16699 50.333 -15.5 69s-24 33.834 -41 45.501s-36.167 20.167 -57.5 25.5s-43.333 8 -66 8h-261v-299h258zM345.997 394.998c20.667 0 40.6641 2.83301 59.9971 8.5s36.333 14.167 51 25.5s26.334 25.333 35.001 42s13 36 13 58
c0 23.333 -4.16699 43.5 -12.5 60.5s-19.666 31.167 -33.999 42.5s-31.166 19.833 -50.499 25.5s-40 8.5 -62 8.5h-261v-271h261z" />
    <glyph glyph-name="afii10020" unicode="&#x413;" horiz-adv-x="463" 
d="M42 714h431v-48h-382v-666h-49v714z" />
    <glyph glyph-name="afii10021" unicode="&#x414;" horiz-adv-x="690" 
d="M-8 48l70 -0.000976562c25.333 48.667 45 99.5 59 152.5s24.333 105.833 31 158.5s10.667 103.334 12 152.001s2 92.667 2 132v71h431v-666h77v-217h-48v169h-585v-169h-49v217zM549 47.999v618h-335v-54c0 -37.333 -0.666992 -78.833 -2 -124.5s-5 -93.167 -11 -142.5
s-15.5 -99.333 -28.5 -150s-31.5 -99.667 -55.5 -147h432z" />
    <glyph glyph-name="afii10022" unicode="&#x415;" horiz-adv-x="537" 
d="M43 714h484v-48h-435v-271h409v-48h-409v-299h439v-48h-488v714z" />
    <glyph glyph-name="afii10024" unicode="&#x416;" horiz-adv-x="978" 
d="M309 402l-72 73.5l-75 75.5l-39 40l-42.5 44l-42 42.5l-36.5 36.5h67l386 -396v396h48v-396l35.5 35l33.5 36l158.5 163.5l157.5 161.5h69l-307 -313l85 -99.5l87 -102.5l85.5 -101l83.5 -98h-65l-311 368l-56 -58.5l-56 -58.5v-251h-48v250l-28.5 30.5l-27.5 29.5
l-27 27l-29 30l-77 -90.5l-76 -90.5l-79.5 -93.5l-78.5 -92.5h-64z" />
    <glyph glyph-name="afii10025" unicode="&#x417;" horiz-adv-x="594" 
d="M298 -16c-42 0 -79.501 6.33496 -112.501 19.002s-61.167 30.834 -84.5 54.501s-41.166 52.5 -53.499 86.5s-18.5 72.667 -18.5 116l48 -8c0 -68.667 19 -122.334 57 -161.001s92.667 -58 164 -58c31.333 0 60 4.33301 86 13s48.167 21 66.5 37
s32.666 35.167 42.999 57.5s15.5 46.833 15.5 73.5c0 42 -15.167 75.5 -45.5 100.5s-72.5 37.5 -126.5 37.5h-110v48h110c50 0 89 11.5 117 34.5s42 56.5 42 100.5c0 47.333 -16.833 83.666 -50.5 108.999s-80.167 38 -139.5 38c-67.333 0 -117.5 -16 -150.5 -48
s-52.5 -79 -58.5 -141h-50c8 74.667 32.833 133 74.5 175s103.167 63 184.5 63c36 0 68.667 -4.33301 98 -13s54.5 -21.334 75.5 -38.001s37.167 -37.167 48.5 -61.5s17 -52.166 17 -83.499c0 -36 -7.16699 -67.833 -21.5 -95.5s-38.166 -48.834 -71.499 -63.501
c29.333 -13.333 54.333 -34.333 75 -63s31 -61.667 31 -99c0 -34.667 -6.5 -66.167 -19.5 -94.5s-31 -52.5 -54 -72.5s-50.333 -35.5 -82 -46.5s-66.5 -16.5 -104.5 -16.5z" />
    <glyph glyph-name="afii10026" unicode="&#x418;" horiz-adv-x="648" 
d="M44 714h48v-638l223.5 319l223.5 319h52v-714h-48v638l-110.5 -156l-108.5 -156l-113.5 -162.5l-114.5 -163.5h-52v714z" />
    <glyph glyph-name="afii10027" unicode="&#x419;" horiz-adv-x="648" 
d="M44 714h48v-638l223.5 319l223.5 319h52v-714h-48v638l-110.5 -156l-108.5 -156l-113.5 -162.5l-114.5 -163.5h-52v714zM316 769c-73.333 0 -118 44 -134 132h48c10.667 -55.333 39.667 -83 87 -83c49.333 0 78.333 27.667 87 83h49c-15.333 -88 -61 -132 -137 -132z" />
    <glyph glyph-name="afii10028" unicode="&#x41a;" horiz-adv-x="593" 
d="M44 714h48v-398l94.5 83l94.5 83l132.5 116.5l132.5 115.5h75l-350 -308l114 -128.5l117 -131.5l66.5 -74l64.5 -72h-64l-335 376l-27.5 -25l-27.5 -24c-14.667 -12 -29 -24.333 -43 -37l-44 -39v-251h-48v714z" />
    <glyph glyph-name="afii10029" unicode="&#x41b;" horiz-adv-x="679" 
d="M50 -5c-20.667 0 -43.332 2.66699 -67.999 8v50c26.667 -6.66699 49 -10 67 -10c32 0 57 17.167 75 51.5s31.167 81.666 39.5 141.999s13.5 131.333 15.5 213s3 169.834 3 264.501h438v-714h-48v666h-342c0 -94.667 -1.33301 -182.834 -4 -264.501
s-9.83398 -152.667 -21.501 -213s-29.5 -107.666 -53.5 -141.999s-57.667 -51.5 -101 -51.5z" />
    <glyph glyph-name="afii10030" unicode="&#x41c;" horiz-adv-x="780" 
d="M45 714h56l282 -638l84 190.5l84 192.5l56.5 127.5l55.5 127.5h56v-714h-49l-2 605l-50.5 -113.5l-49.5 -113.5l-83 -189.5l-83 -188.5h-40l-269 606v-606h-48v714z" />
    <glyph glyph-name="afii10031" unicode="&#x41d;" horiz-adv-x="648" 
d="M44 714h48v-319h451v319h48v-714h-48v347h-451v-347h-48v714z" />
    <glyph glyph-name="afii10032" unicode="&#x41e;" horiz-adv-x="721" 
d="M354 -16c-53.333 0 -100.5 9.83301 -141.5 29.5s-75.5 46.5 -103.5 80.5s-49.333 73.667 -64 119s-22 93.333 -22 144s7.33301 98.667 22 144s36 85 64 119s62.5 61 103.5 81s88.167 30 141.5 30s100.5 -10 141.5 -30s75.5 -47 103.5 -81s49.167 -73.667 63.5 -119
s21.5 -93.333 21.5 -144s-7.16699 -98.667 -21.5 -144s-35.5 -85 -63.5 -119s-62.5 -60.833 -103.5 -80.5s-88.167 -29.5 -141.5 -29.5zM354 32c44 0 83.333 8.16699 118 24.5s64.167 38.833 88.5 67.5s43 62.834 56 102.501s19.5 83.167 19.5 130.5
c0 46.667 -6.5 90 -19.5 130s-31.667 74.333 -56 103s-53.833 51.167 -88.5 67.5s-74 24.5 -118 24.5s-83.5 -8.16699 -118.5 -24.5s-64.667 -38.833 -89 -67.5s-43 -63 -56 -103s-19.5 -83.333 -19.5 -130c0 -47.333 6.5 -90.833 19.5 -130.5s31.667 -73.834 56 -102.501
s54 -51.167 89 -67.5s74.5 -24.5 118.5 -24.5z" />
    <glyph glyph-name="afii10033" unicode="&#x41f;" horiz-adv-x="642" 
d="M44 714h541v-714h-48v666h-445v-666h-48v714z" />
    <glyph glyph-name="afii10034" unicode="&#x420;" horiz-adv-x="574" 
d="M44 714l290.999 0.000976562c70.667 0 125.5 -16.833 164.5 -50.5s58.5 -83.834 58.5 -150.501c0 -32.667 -5.83301 -61.5 -17.5 -86.5s-27.667 -46 -48 -63s-44.666 -29.833 -72.999 -38.5s-59.5 -13 -93.5 -13h-234v-312h-48v714zM334.999 360.001
c24.667 0 47.667 3.33301 69 10s39.833 16.5 55.5 29.5s28 29 37 48s13.5 40.833 13.5 65.5c0 50 -14.333 88 -43 114s-72.667 39 -132 39h-243v-306h243z" />
    <glyph glyph-name="afii10035" unicode="&#x421;" horiz-adv-x="685" 
d="M341 -16c-47.333 0 -91.001 9.16895 -131.001 27.502s-74.333 43.666 -103 75.999s-51 71 -67 116s-24 94.167 -24 147.5c0 43.333 6.16699 87.5 18.5 132.5s32 85.833 59 122.5s61.833 66.667 104.5 90s94.334 35 155.001 35c48 0 89.833 -8.5 125.5 -25.5
s65.334 -38.333 89.001 -64s41.667 -53.167 54 -82.5s18.833 -56 19.5 -80h-47c-2 24.667 -9.16699 49.167 -21.5 73.5s-28.833 46.166 -49.5 65.499s-45.5 34.833 -74.5 46.5s-60.833 17.5 -95.5 17.5c-54 0 -99.333 -10.833 -136 -32.5s-66.334 -49 -89.001 -82
s-39 -68.833 -49 -107.5s-15 -75 -15 -109c0 -41.333 6.16699 -81.333 18.5 -120s30.166 -72.667 53.499 -102s52.333 -52.833 87 -70.5s74 -26.5 118 -26.5c38.667 0 73.5 6.66699 104.5 20s57.833 32 80.5 56s41 52.167 55 84.5s23.667 67.5 29 105.5h49
c-6 -46 -17.5 -88.167 -34.5 -126.5s-39 -71.5 -66 -99.5s-58.667 -49.667 -95 -65s-77.166 -23 -122.499 -23z" />
    <glyph glyph-name="afii10036" unicode="&#x422;" 
d="M221 666h-246v48h541v-48h-247v-666h-48v666z" />
    <glyph glyph-name="afii10037" unicode="&#x423;" horiz-adv-x="537" 
d="M106 -10c-11.333 0 -23.999 0.666992 -37.999 2s-27.333 5 -40 11v53c14 -6.66699 28.333 -11.334 43 -14.001s27 -4 37 -4c20 0 38.667 6.33301 56 19s32.666 32.334 45.999 59.001l27 53l-64 133.5l-67 139.5l-67 139l-64 133h54l235 -487l89.5 185l90.5 187l27 57.5
l28 57.5h52l-300 -622c-18 -38 -39.167 -64.5 -63.5 -79.5s-51.5 -22.5 -81.5 -22.5z" />
    <glyph glyph-name="afii10038" unicode="&#x424;" horiz-adv-x="738" 
d="M338 67c-48 1.33301 -92 8.66406 -132 21.9971s-74.333 32.333 -103 57s-51 54.834 -67 90.501s-24 76.834 -24 123.501c0 46 8 87 24 123s38.333 66.333 67 91s63 43.834 103 57.501s84 21.167 132 22.5v77h47v-77c48 -1.33301 92 -8.66602 132 -21.999
s74.333 -32.5 103 -57.5s51 -55.5 67 -91.5s24 -77 24 -123c0 -46.667 -8 -87.834 -24 -123.501s-38.333 -65.834 -67 -90.501s-63 -43.667 -103 -57s-84 -20.666 -132 -21.999v-83h-47v83zM338 605.998c-42.667 -1.33301 -81 -7.5 -115 -18.5s-63 -26.833 -87 -47.5
s-42.333 -46.167 -55 -76.5s-19 -64.833 -19 -103.5s6.33301 -73 19 -103s31 -55.333 55 -76s53 -36.5 87 -47.5s72.333 -17.167 115 -18.5v491zM385 114.998c42.667 0.666992 81 6.66895 115 18.002s63 27.166 87 47.499s42.333 45.5 55 75.5s19 64.667 19 104
c0 38.667 -6.33301 73 -19 103s-31 55.333 -55 76s-53 36.667 -87 48s-72.333 17.666 -115 18.999v-491z" />
    <glyph glyph-name="afii10039" unicode="&#x425;" horiz-adv-x="520" 
d="M226 367l-22 28.5l-22 28.5l-109.5 147l-107.5 143h61l229 -308l117 154l116 154h59l-260 -347l65 -88l67 -91l71 -95l69 -93h-61l-243 327l-89.5 -120l-90.5 -122l-33 -42.5l-31 -42.5h-60z" />
    <glyph glyph-name="afii10040" unicode="&#x426;" horiz-adv-x="664" 
d="M601 0h-556v714h48v-666h431v666h48v-666h77v-217h-48v169z" />
    <glyph glyph-name="afii10041" unicode="&#x427;" horiz-adv-x="578" 
d="M474 329c-26.667 -11.333 -59.6631 -22.168 -98.9961 -32.501s-80 -15.5 -122 -15.5c-56 0 -99.333 5.16699 -130 15.5s-53.334 26 -68.001 47s-23.5 47.333 -26.5 79s-4.5 68.834 -4.5 111.501v180h48v-179c0 -35.333 1 -66 3 -92s8.83301 -47.5 20.5 -64.5
s29.667 -29.5 54 -37.5s58.833 -12 103.5 -12c18 0 36.667 1.5 56 4.5s38.666 7 57.999 12s38.166 10.667 56.499 17s35.166 12.833 50.499 19.5v332h49v-714h-49v329z" />
    <glyph glyph-name="afii10042" unicode="&#x428;" horiz-adv-x="988" 
d="M48 714h47v-666h365v666h48v-666h364v666h49v-714h-873v714z" />
    <glyph glyph-name="afii10043" unicode="&#x429;" horiz-adv-x="1024" 
d="M949 0h-901v714h48v-666h364v666h49v-666h364v666h49v-666h76v-217h-49v169z" />
    <glyph glyph-name="afii10044" unicode="&#x42a;" horiz-adv-x="718" 
d="M182 666h-208v48h255v-302h244c72.667 0 128 -17.667 166 -53s57 -85.333 57 -150c0 -31.333 -5.33301 -59.833 -16 -85.5s-26 -47.667 -46 -66s-44.333 -32.5 -73 -42.5s-61 -15 -97 -15h-282v666zM472 48c26.667 0 50.666 4 71.999 12s39.5 19.167 54.5 33.5
s26.667 31.333 35 51s12.5 41.5 12.5 65.5c0 50 -14.667 88.167 -44 114.5s-72.666 39.5 -129.999 39.5h-243v-316h243z" />
    <glyph glyph-name="afii10045" unicode="&#x42b;" horiz-adv-x="778" 
d="M45 714h48v-302h245c72.667 0 128 -17.667 166 -53s57 -85.333 57 -150c0 -31.333 -5.33301 -59.833 -16 -85.5s-26.167 -47.667 -46.5 -66s-44.833 -32.5 -73.5 -42.5s-61 -15 -97 -15h-283v714zM337 48c26.667 0 50.6689 4 72.002 12s39.666 19.167 54.999 33.5
s27.166 31.333 35.499 51s12.5 41.5 12.5 65.5c0 50 -14.833 88.167 -44.5 114.5s-73.167 39.5 -130.5 39.5h-244v-316h244zM668.002 714h49v-714h-49v714z" />
    <glyph glyph-name="afii10046" unicode="&#x42c;" horiz-adv-x="575" 
d="M44 714h48v-302h243c72.667 0 128 -17.667 166 -53s57 -85.333 57 -150c0 -31.333 -5.33301 -59.833 -16 -85.5s-26 -47.667 -46 -66s-44.333 -32.5 -73 -42.5s-61 -15 -97 -15h-282v714zM334 48c26.667 0 50.833 4 72.5 12s40 19.167 55 33.5s26.667 31.333 35 51
s12.5 41.5 12.5 65.5c0 50 -14.667 88.167 -44 114.5s-73 39.5 -131 39.5h-242v-316h242z" />
    <glyph glyph-name="afii10047" unicode="&#x42d;" horiz-adv-x="685" 
d="M324 -16c-42 0 -80.5029 6.66895 -115.503 20.002s-65.667 32.166 -92 56.499s-48.166 53.166 -65.499 86.499s-29.333 70 -36 110h48c6.66699 -32 17.5 -61.667 32.5 -89s33.667 -51 56 -71s48 -35.833 77 -47.5s60.833 -17.5 95.5 -17.5
c45.333 0 85.166 8.5 119.499 25.5s63 40 86 69s40.5 62.5 52.5 100.5s18.333 78 19 120h-402v48h400c-3.33301 43.333 -12.5 82.666 -27.5 117.999s-34.667 65.5 -59 90.5s-52.666 44.333 -84.999 58s-67.5 20.5 -105.5 20.5c-29.333 0 -57.333 -4.33301 -84 -13
s-51 -21 -73 -37s-40.833 -35.667 -56.5 -59s-27.5 -50 -35.5 -80h-48c6.66699 34 19 65.5 37 94.5s40 54.167 66 75.5s55.333 38 88 50s67 18 103 18c48.667 0 93.334 -9.16699 134.001 -27.5s75.5 -44 104.5 -77s51.5 -72.5 67.5 -118.5s24 -96.667 24 -152
c0 -48.667 -6.83301 -95.5 -20.5 -140.5s-34.167 -84.667 -61.5 -119s-61.166 -61.666 -101.499 -81.999s-87.5 -30.5 -141.5 -30.5z" />
    <glyph glyph-name="afii10048" unicode="&#x42e;" horiz-adv-x="903" 
d="M549 -16c-50.667 0 -95.334 9.66895 -134.001 29.002s-71 45.5 -97 78.5s-45.667 71.667 -59 116s-20.333 91.166 -21 140.499h-143v-348h-48v714h48v-319h144c2.66699 46.667 11.334 90.5 26.001 131.5s35 76.667 61 107s57.667 54.166 95 71.499s80 26 128 26
c51.333 0 96.333 -10 135 -30s71 -47 97 -81s45.5 -73.667 58.5 -119s19.5 -93.333 19.5 -144s-6.5 -98.667 -19.5 -144s-32.5 -85 -58.5 -119s-58.333 -60.833 -97 -80.5s-83.667 -29.5 -135 -29.5zM549 32.002c41.333 0 78.166 8.16699 110.499 24.5
s59.833 38.833 82.5 67.5s39.834 62.834 51.501 102.501s17.5 83.167 17.5 130.5c0 46.667 -5.83301 90 -17.5 130s-28.834 74.333 -51.501 103s-50.167 51.167 -82.5 67.5s-69.166 24.5 -110.499 24.5s-78.333 -8.16699 -111 -24.5s-60.334 -38.833 -83.001 -67.5
s-39.834 -63 -51.501 -103s-17.5 -83.333 -17.5 -130c0 -47.333 5.83301 -90.833 17.5 -130.5s28.834 -73.834 51.501 -102.501s50.334 -51.167 83.001 -67.5s69.667 -24.5 111 -24.5z" />
    <glyph glyph-name="afii10049" unicode="&#x42f;" horiz-adv-x="613" 
d="M234 313c-29.333 2.66699 -56 8.83203 -80 18.499s-44.5 23 -61.5 40s-30.333 37.333 -40 61s-14.5 50.5 -14.5 80.5c0 64.667 18.667 114.334 56 149.001s93.333 52 168 52h294v-714h-48v311h-213l-22.5 -27.5l-22.5 -27.5l-103.5 -128l-102.5 -128h-61zM508 358.998
v306.999h-250c-57.333 0 -100 -13.167 -128 -39.5s-42 -63.166 -42 -110.499c0 -50.667 15.667 -89.5 47 -116.5s72.333 -40.5 123 -40.5h250z" />
    <glyph glyph-name="afii10065" unicode="&#x430;" horiz-adv-x="481" 
d="M190 -11c-53.333 0 -96.167 12.1699 -128.5 36.5029s-48.5 60.5 -48.5 108.5c0 32 5.33301 58.167 16 78.5s24.667 36.333 42 48s36.666 19.834 57.999 24.501s42.666 7.66699 63.999 9c4 0.666992 8.66699 1 14 1h11c25.333 1.33301 47.5 3 66.5 5
s34.833 5.16699 47.5 9.5s22.167 10.166 28.5 17.499s9.5 17.666 9.5 30.999c0 12.667 -1.16699 26.167 -3.5 40.5s-7.83301 27.333 -16.5 39s-21.5 21.334 -38.5 29.001s-39.833 11.5 -68.5 11.5c-46.667 0 -82.834 -12.333 -108.501 -37s-40.167 -60 -43.5 -106h-48
c1.33301 26.667 6.33301 51.667 15 75s21.334 43.666 38.001 60.999s37.167 30.833 61.5 40.5s52.833 14.5 85.5 14.5c23.333 0 45.5 -2.5 66.5 -7.5s39.333 -13.5 55 -25.5s28.334 -27.833 38.001 -47.5s14.834 -44.167 15.501 -73.5v-308c0 -5.33301 2 -9.33301 6 -12
s9 -4.33398 15 -5.00098s12.667 -0.833984 20 -0.500977s14 0.833008 20 1.5v-48h-42c-17.333 -0 -32.833 4.33301 -46.5 13s-20.5 25 -20.5 49v9c-17.333 -23.333 -41.333 -42.833 -72 -58.5s-66.667 -23.5 -108 -23.5zM188.999 36.0029
c29.333 0 55.1709 4.99902 77.5039 14.999s41.166 23 56.499 39s27 34.5 35 55.5s12 42.5 12 64.5l-2 60c-17.333 -8.66699 -38.333 -14.167 -63 -16.5s-49.667 -4.16602 -75 -5.49902c-2.66699 0 -5.5 -0.166992 -8.5 -0.5s-6.16699 -0.5 -9.5 -0.5
c-6.66699 0 -11.334 -0.333008 -14.001 -1c-17.333 -1.33301 -34.333 -3.5 -51 -6.5s-31.334 -8.5 -44.001 -16.5s-22.834 -19 -30.501 -33s-11.5 -32.667 -11.5 -56c0 -12 2.16699 -24 6.5 -36s11.5 -22.5 21.5 -31.5s23.167 -16.333 39.5 -22s36.5 -8.5 60.5 -8.5z" />
    <glyph glyph-name="afii10066" unicode="&#x431;" horiz-adv-x="530" 
d="M264 -11c-68 0 -119.502 17.001 -154.502 51.001s-59.167 83.667 -72.5 149c-2.66699 13.333 -4.33398 27.5 -5.00098 42.5s-1 31.5 -1 49.5c0 53.333 2.66699 102.5 8 147.5s16 84.167 32 117.5s38.167 60.333 66.5 81s65.5 33.667 111.5 39l118 13h-1
c14.667 2 26.834 5.66699 36.501 11s15.834 14.666 18.501 27.999h49c-5.33301 -25.333 -16 -45 -32 -59s-41 -23.333 -75 -28c-8 -1.33301 -16.667 -2.33301 -26 -3s-18 -1.66699 -26 -3c-18 -2 -35 -4 -51 -6c-52.667 -8 -93.167 -28.667 -121.5 -62
s-46.833 -80.666 -55.5 -141.999c24.667 33.333 53.834 57.666 87.501 72.999s65.167 23 94.5 23c35.333 0 67.166 -5.83301 95.499 -17.5s52.5 -28.5 72.5 -50.5s35.5 -48.667 46.5 -80s16.5 -66.666 16.5 -105.999s-5.83301 -75.333 -17.5 -108
s-27.667 -60.834 -48 -84.501s-44.666 -42.167 -72.999 -55.5s-59.5 -20 -93.5 -20zM264.998 36.001c26.667 0 51.168 5.33105 73.501 15.998s41.666 25.834 57.999 45.501s29 43 38 70s13.5 56.833 13.5 89.5c0 32 -4.5 60.833 -13.5 86.5s-21.667 47.334 -38 65.001
s-35.666 31.334 -57.999 41.001s-46.833 14.5 -73.5 14.5c-24.667 0 -48.334 -4.83301 -71.001 -14.5s-42.5 -23.167 -59.5 -40.5s-30.667 -38.5 -41 -63.5s-15.5 -52.833 -15.5 -83.5c0 -34 3.83301 -64.833 11.5 -92.5s19.167 -51.334 34.5 -71.001s34.833 -35 58.5 -46
s51.167 -16.5 82.5 -16.5z" />
    <glyph glyph-name="afii10067" unicode="&#x432;" horiz-adv-x="488" 
d="M45 514h234c46 0 82.5 -11.833 109.5 -35.5s40.5 -55.5 40.5 -95.5c0 -55.333 -20 -93 -60 -113c22 -10.667 40.167 -26.167 54.5 -46.5s21.5 -46.166 21.5 -77.499c0 -22.667 -4.33301 -43 -13 -61s-21 -33.333 -37 -46s-35.167 -22.334 -57.5 -29.001
s-46.833 -10 -73.5 -10h-219v514zM270 48c40 0 71.167 8 93.5 24s33.5 40.667 33.5 74c0 32 -10.833 56.5 -32.5 73.5s-52.5 25.5 -92.5 25.5h-179v-197h177zM272 292c34 0 60.833 8.16699 80.5 24.5s29.5 38.5 29.5 66.5c0 28.667 -9.66699 49.667 -29 63s-46 20 -80 20
h-180v-174h179z" />
    <glyph glyph-name="afii10068" unicode="&#x433;" horiz-adv-x="368" 
d="M49 514h325v-48h-277v-466h-48v514z" />
    <glyph glyph-name="afii10069" unicode="&#x434;" horiz-adv-x="527" 
d="M-7 48l59 0.000976562c16.667 32.667 29.667 68.167 39 106.5s16.5 77.666 21.5 117.999s8.16699 81 9.5 122s2 80.833 2 119.5h330v-466h64v-205h-48v157h-429v-157h-48v205zM407 48.001l-0.000976562 418h-236c0 -31.333 -0.666992 -64.5 -2 -99.5
s-4.16602 -70.667 -8.49902 -107s-11 -72.5 -20 -108.5s-21.167 -70.333 -36.5 -103h303z" />
    <glyph glyph-name="afii10070" unicode="&#x435;" 
d="M243 -11c-40 0 -74.3291 6.83203 -102.996 20.499s-52.167 32.5 -70.5 56.5s-31.833 52.333 -40.5 85s-13 68 -13 106c0 42.667 6.33301 80.667 19 114s29.5 61.5 50.5 84.5s45.167 40.5 72.5 52.5s55.666 18 84.999 18c40 0 74.667 -8.16699 104 -24.5
s53.166 -37.833 71.499 -64.5s31.666 -57.167 39.999 -91.5s12.166 -69.833 11.499 -106.5h-405c2 -27.333 6.83301 -53.166 14.5 -77.499s18.667 -45.833 33 -64.5s32 -33.5 53 -44.5s46.167 -16.5 75.5 -16.5c48 0 87.667 13.333 119 40s50.666 67 57.999 121h48
c-9.33301 -65.333 -34.166 -116.333 -74.499 -153s-89.833 -55 -148.5 -55zM422.004 285.999c-2 25.333 -7.16895 49.6689 -15.502 73.002s-20 43.833 -35 61.5s-33 31.667 -54 42s-45.167 15.5 -72.5 15.5c-23.333 0 -45.166 -4.66699 -65.499 -14s-38.333 -22.333 -54 -39
s-28.667 -36.834 -39 -60.501s-17.166 -49.834 -20.499 -78.501h356z" />
    <glyph glyph-name="afii10072" unicode="&#x436;" horiz-adv-x="702" 
d="M-32 0l233 295l-41.5 43l-44.5 46v-1l-66.5 68l-62.5 63h67l264 -267v267h48v-267l41 41.5l41 41.5l91.5 92.5l90.5 91.5h69l-217 -219l54.5 -70l57.5 -72l61 -78l60 -75h-60l-208 262l-40.5 -41l-40.5 -41v-180h-48v180l-39.5 40.5l-40.5 41.5l-47 -58.5l-46 -59.5
l-58 -72.5l-57 -71.5h-61z" />
    <glyph glyph-name="afii10073" unicode="&#x437;" horiz-adv-x="463" 
d="M216 -14c-67.333 0 -116.999 18.335 -148.999 55.002s-48 87 -48 151l47 -8c0 -48 12.667 -85.333 38 -112s62.666 -40 111.999 -40c21.333 0 41.5 3 60.5 9s35.5 14.333 49.5 25s25.167 23.5 33.5 38.5s12.5 31.833 12.5 50.5c0 28 -10.333 50 -31 66s-50 24 -88 24h-83
v48h83c34.667 0 61.667 7.33301 81 22s29 37 29 67c0 31.333 -12.833 55.166 -38.5 71.499s-58.834 24.5 -99.501 24.5c-46.667 0 -81.167 -10.5 -103.5 -31.5s-36.166 -53.5 -41.499 -97.5h-47c4.66699 56 22 99.5 52 130.5s76.667 46.5 140 46.5
c56 0 100.833 -12.5 134.5 -37.5s50.5 -60.5 50.5 -106.5c0 -24 -4.5 -45.833 -13.5 -65.5s-24.167 -35.167 -45.5 -46.5c20 -11.333 36.5 -27 49.5 -47s19.5 -42.667 19.5 -68s-4.83301 -48.333 -14.5 -69s-23.5 -38.334 -41.5 -53.001s-39.5 -26.167 -64.5 -34.5
s-52.833 -12.5 -83.5 -12.5z" />
    <glyph glyph-name="afii10074" unicode="&#x438;" horiz-adv-x="510" 
d="M45 514h48l2 -437l74 106.5l79 113.5l78.5 112.5l73.5 104.5h51v-514h-47l-2 437l-39 -54l-135 -193l-132 -190h-51v514z" />
    <glyph glyph-name="afii10075" unicode="&#x439;" horiz-adv-x="510" 
d="M45 514h48l2 -437l74 106.5l79 113.5l78.5 112.5l73.5 104.5h51v-514h-47l-2 437l-155 -219l-151 -218h-51v514zM253 568c-72 0 -115.668 43.333 -131.001 130h47c10.667 -54.667 39 -82 85 -82c49.333 0 78 27.333 86 82h49c-15.333 -86.667 -60.666 -130 -135.999 -130
z" />
    <glyph glyph-name="afii10076" unicode="&#x43a;" horiz-adv-x="444" 
d="M45 514h48v-273l118.5 106.5l121.5 108.5l33 29.5l32 28.5h70l-238 -213l57.5 -71.5l59.5 -73.5l63.5 -79.5l61.5 -76.5h-61l-216 269l-51 -44.5l-51 -45.5v-179h-48v514z" />
    <glyph glyph-name="afii10077" unicode="&#x43b;" horiz-adv-x="529" 
d="M51 -6c-24.667 0 -47.332 3 -67.999 9v52c12.667 -3.33301 24.667 -6.33301 36 -9s21.666 -4 30.999 -4c22.667 0 40.167 13.167 52.5 39.5s21.333 61.333 27 105s9 93.834 10 150.501s1.5 115.667 1.5 177h327v-514h-47v466h-232
c0 -60.667 -0.833008 -119.334 -2.5 -176.001s-7 -107 -16 -151s-22.667 -79.167 -41 -105.5s-44.5 -39.5 -78.5 -39.5z" />
    <glyph glyph-name="afii10078" unicode="&#x43c;" horiz-adv-x="612" 
d="M46 514h52.999l198 -442l35 76.5l35 76.5l64.5 145l63.5 144h53v-514h-47l-2 406c-11.333 -27.333 -23.166 -54.333 -35.499 -81l-36.5 -82l-55 -122.5l-53 -120.5h-42l-183 410v-410h-48v514z" />
    <glyph glyph-name="afii10079" unicode="&#x43d;" 
d="M45 514h47v-223h302v223h48v-514h-48v243h-302v-243h-47v514z" />
    <glyph glyph-name="afii10080" unicode="&#x43e;" horiz-adv-x="519" 
d="M252 -11c-37.333 0 -70.501 7.33301 -99.501 22s-53.333 34.334 -73 59.001s-34.667 53.167 -45 85.5s-15.5 66.166 -15.5 101.499c0 34.667 5 68.334 15 101.001s25 61.334 45 86.001s44.5 44.5 73.5 59.5s62.5 22.5 100.5 22.5c37.333 0 70.333 -7.5 99 -22.5
s52.834 -34.833 72.501 -59.5s34.667 -53.334 45 -86.001s15.5 -66.334 15.5 -101.001c0 -35.333 -5 -69.166 -15 -101.499s-24.833 -60.833 -44.5 -85.5s-44 -44.334 -73 -59.001s-62.5 -22 -100.5 -22zM252.999 36c30 0 56.5 6 79.5 18s42.333 28.333 58 49
s27.5 44.167 35.5 70.5s12 54.166 12 83.499c0 28 -4 55.333 -12 82s-19.833 50.334 -35.5 71.001s-35 37.167 -58 49.5s-49.5 18.5 -79.5 18.5c-30.667 0 -57.5 -6.16699 -80.5 -18.5s-42.333 -28.833 -58 -49.5s-27.5 -44.334 -35.5 -71.001s-12 -54 -12 -82
c0 -29.333 4 -57.166 12 -83.499s19.833 -49.833 35.5 -70.5s35 -37 58 -49s49.833 -18 80.5 -18z" />
    <glyph glyph-name="afii10081" unicode="&#x43f;" horiz-adv-x="490" 
d="M44 514h388v-514h-48v466h-292v-466h-48v514z" />
    <glyph glyph-name="afii10082" unicode="&#x440;" horiz-adv-x="537" 
d="M46 514l47.002 0.000976562l2 -84c18.667 30 43.334 53.5 74.001 70.5s66 25.5 106 25.5c34 0 64.667 -6.66699 92 -20s50.5 -32 69.5 -56s33.667 -52.333 44 -85s15.5 -68.334 15.5 -107.001c0 -36 -4.83301 -70.333 -14.5 -103s-23.834 -61.167 -42.501 -85.5
s-41.834 -43.833 -69.501 -58.5s-59.167 -22 -94.5 -22c-40.667 0 -76.334 8.5 -107.001 25.5s-55.667 39.833 -75 68.5v-249h-47v680zM275.002 36.001c30.667 0 56.998 6.66699 78.998 20s40 30.5 54 51.5s24.333 44.667 31 71s10 52.833 10 79.5
c0 29.333 -3.66699 57.333 -11 84s-18.166 50 -32.499 70s-32.5 36 -54.5 48s-47.333 18 -76 18c-29.333 0 -55.166 -6 -77.499 -18s-41.333 -28 -57 -48s-27.5 -43.333 -35.5 -70s-12 -54.667 -12 -84c0 -72 16.5 -127 49.5 -165s77.167 -57 132.5 -57z" />
    <glyph glyph-name="afii10083" unicode="&#x441;" 
d="M251 -11c-36.667 0 -69.166 6.83008 -97.499 20.4971s-52.333 32.334 -72 56.001s-34.5 51 -44.5 82s-15 63.833 -15 98.5c0 36.667 4.83301 72 14.5 106s24.334 63.833 44.001 89.5s44.667 46.167 75 61.5s66.166 23 107.499 23c24.667 0 48.167 -4.16699 70.5 -12.5
s42.5 -20.5 60.5 -36.5s33 -35.667 45 -59s19.667 -50 23 -80h-48c-7.33301 48 -25 83.333 -53 106s-60.667 34 -98 34c-36 0 -66.5 -7 -91.5 -21s-45 -32.167 -60 -54.5s-25.833 -47.333 -32.5 -75s-10 -54.834 -10 -81.501c0 -27.333 4 -53.666 12 -78.999
s19.667 -47.666 35 -66.999s34.333 -34.833 57 -46.5s48.667 -17.5 78 -17.5c22 0 42.667 3.66699 62 11s36.333 17.833 51 31.5s26.667 30.334 36 50.001s15 41.5 17 65.5h48c-2.66699 -31.333 -9.83398 -59.666 -21.501 -84.999s-27 -46.833 -46 -64.5
s-41 -31.334 -66 -41.001s-51.833 -14.5 -80.5 -14.5z" />
    <glyph glyph-name="afii10084" unicode="&#x442;" horiz-adv-x="407" 
d="M175 466h-191v48h428v-48h-190v-466h-47v466z" />
    <glyph glyph-name="afii10085" unicode="&#x443;" horiz-adv-x="407" 
d="M34 -119c17.333 0 32.167 0.5 44.5 1.5s22.833 3.33301 31.5 7s16 9 22 16s11.667 16.833 17 29.5l32 84l-35 84l-36 85l-69.5 165l-67.5 161h52l183 -433l60 159.5l60 158.5l21.5 58l21.5 57h52l-232 -603c-7.33301 -18.667 -16.333 -33.167 -27 -43.5
s-22.667 -18 -36 -23s-27.833 -8 -43.5 -9s-32.5 -1.5 -50.5 -1.5v47z" />
    <glyph glyph-name="afii10086" unicode="&#x444;" horiz-adv-x="756" 
d="M344 37c-15.333 -13.333 -33.834 -24.666 -55.501 -33.999s-44.167 -14 -67.5 -14c-28 0 -53.833 5.83301 -77.5 17.5s-44 29 -61 52s-30.167 51 -39.5 84s-14 71.167 -14 114.5c0 90.667 17.5 158.167 52.5 202.5s81.833 66.5 140.5 66.5c22.667 0 44.834 -4 66.501 -12
s40.167 -20 55.5 -36v225h47v-225c16.667 13.333 36.167 24.666 58.5 33.999s43.5 14 63.5 14c58.667 0 105.5 -22.167 140.5 -66.5s52.5 -111.833 52.5 -202.5c0 -43.333 -4.83301 -81.5 -14.5 -114.5s-23 -61 -40 -84s-37.167 -40.333 -60.5 -52s-49 -17.5 -77 -17.5
c-23.333 0 -46 4.5 -68 13.5s-40.333 20.167 -55 33.5v-202h-47v203zM220.999 37c16 0 31.333 2.49902 46 7.49902s27.667 12.167 39 21.5s20.5 20.666 27.5 33.999s10.5 28.333 10.5 45v227c0 16 -3.5 30.5 -10.5 43.5s-16.167 24.167 -27.5 33.5s-24.333 16.5 -39 21.5
s-29.667 7.5 -45 7.5c-42.667 0 -77.5 -18 -104.5 -54s-40.5 -91.667 -40.5 -167c0 -36.667 3.66699 -68.667 11 -96s17.5 -50.166 30.5 -68.499s28.333 -32.166 46 -41.499s36.5 -14 56.5 -14zM513.999 36.999c20 0 38.833 4.66797 56.5 14.001s33 23.166 46 41.499
s23.167 41.166 30.5 68.499s11 59.333 11 96c0 75.333 -13.5 131 -40.5 167s-61.833 54 -104.5 54c-15.333 0 -30.333 -2.5 -45 -7.5s-27.667 -12.167 -39 -21.5s-20.5 -20.5 -27.5 -33.5s-10.5 -27.5 -10.5 -43.5v-227c0 -16.667 3.5 -31.667 10.5 -45
s16.167 -24.666 27.5 -33.999s24.333 -16.5 39 -21.5s30 -7.5 46 -7.5z" />
    <glyph glyph-name="afii10087" unicode="&#x445;" horiz-adv-x="407" 
d="M168 266l-56.998 74l-57 76l-37.5 50c-13 18 -25.167 34 -36.5 48h62l155 -211l32.5 43l32.5 42l96 126h58l-189 -248l32.5 -42.5l33.5 -43.5l71.5 -92l68.5 -88h-59l-177 229c-8.66699 -10.667 -16.834 -21.5 -24.501 -32.5s-15.834 -21.833 -24.501 -32.5l-63.5 -83
l-62.5 -81h-58z" />
    <glyph glyph-name="afii10088" unicode="&#x446;" horiz-adv-x="510" 
d="M455 0h-409v514h47v-466h292v466h48v-466h70v-205h-48v157z" />
    <glyph glyph-name="afii10089" unicode="&#x447;" horiz-adv-x="462" 
d="M357 224c-21.333 -8 -46.002 -15.667 -74.002 -23s-58 -11 -90 -11c-26.667 0 -50.5 2.5 -71.5 7.5s-38.667 13.333 -53 25s-25.166 27.5 -32.499 47.5s-11 45 -11 75v169h48v-167c0 -20.667 2.83301 -38 8.5 -52s13.667 -25.167 24 -33.5s22.833 -14.333 37.5 -18
s31.334 -5.5 50.001 -5.5c32 0 62 3.83301 90 11.5s52.667 16.5 74 26.5v238h48v-514h-48v224z" />
    <glyph glyph-name="afii10090" unicode="&#x448;" horiz-adv-x="758" 
d="M48 514h48v-466h249v466h47v-466h249v466h47v-514h-640v514z" />
    <glyph glyph-name="afii10091" unicode="&#x449;" horiz-adv-x="778" 
d="M712 0h-663v514h48v-466h248v466h48v-466h249v466h48v-466h69v-205h-47v157z" />
    <glyph glyph-name="afii10092" unicode="&#x44a;" horiz-adv-x="561" 
d="M147 466h-163v48h211v-214h181c52 0 92 -13.167 120 -39.5s42 -62.5 42 -108.5s-15 -82.833 -45 -110.5s-71 -41.5 -123 -41.5h-223v466zM370 48c39.333 0 69.333 9.33301 90 28s31 44 31 76s-9.33301 56.833 -28 74.5s-47.667 26.5 -87 26.5h-181v-205h175z" />
    <glyph glyph-name="afii10093" unicode="&#x44b;" horiz-adv-x="611" 
d="M46 514h48v-214h172c52 0 91.833 -13.167 119.5 -39.5s41.5 -62.5 41.5 -108.5s-15 -82.833 -45 -110.5s-71 -41.5 -123 -41.5h-213v514zM259 48c39.333 0 69.333 9.33301 90 28s31 44 31 76s-9.5 56.833 -28.5 74.5s-47.5 26.5 -85.5 26.5h-172v-205h165zM500 514h48
v-514h-48v514z" />
    <glyph glyph-name="afii10094" unicode="&#x44c;" horiz-adv-x="453" 
d="M44 514h48v-214h182c52 0 92 -13.167 120 -39.5s42 -62.5 42 -108.5s-15.167 -82.833 -45.5 -110.5s-71.5 -41.5 -123.5 -41.5h-223v514zM267 48c40 0 70.166 9.33301 90.499 28s30.5 44 30.5 76s-9.16699 56.833 -27.5 74.5s-47.166 26.5 -86.499 26.5h-182v-205h175z
" />
    <glyph glyph-name="afii10095" unicode="&#x44d;" 
d="M231 -11c-28.667 0 -55.335 4.99902 -80.002 14.999s-46.5 23.833 -65.5 41.5s-34.5 38.834 -46.5 63.501s-19.333 52 -22 82h48c8 -49.333 26.667 -87.666 56 -114.999s66.666 -41 111.999 -41c26 0 49.667 5 71 15s39.833 24 55.5 42s28 39.833 37 65.5
s14.167 54.167 15.5 85.5h-264v48h261c-2.66699 28.667 -9 54.667 -19 78s-23.167 43.166 -39.5 59.499s-35 28.833 -56 37.5s-43.833 13 -68.5 13c-42 0 -76.667 -11.833 -104 -35.5s-44.666 -55.5 -51.999 -95.5h-48c9.33301 54.667 31.833 98 67.5 130s81.5 48 137.5 48
c34.667 0 66.334 -6.5 95.001 -19.5s53.334 -31.167 74.001 -54.5s36.5 -51.666 47.5 -84.999s16.5 -70.333 16.5 -111s-5.33301 -77.334 -16 -110.001s-26 -60.667 -46 -84s-44.167 -41.333 -72.5 -54s-59.833 -19 -94.5 -19z" />
    <glyph glyph-name="afii10096" unicode="&#x44e;" horiz-adv-x="699" 
d="M424 -12c-32.667 0 -63 6.16699 -91 18.5s-52.333 29.833 -73 52.5s-37 49.5 -49 80.5s-18.333 65.167 -19 102.5h-96v-242h-48v514h48v-225h98c2.66699 36 10.334 68.5 23.001 97.5s29.167 53.833 49.5 74.5s44 36.667 71 48s56.167 17 87.5 17
c34 0 65.333 -6.66699 94 -20s53.334 -31.833 74.001 -55.5s36.667 -52 48 -85s17 -69.167 17 -108.5s-5.66699 -75.5 -17 -108.5s-27.333 -61.333 -48 -85s-45.334 -42.167 -74.001 -55.5s-60.334 -20 -95.001 -20zM425 36c27.333 0 52.333 5.33203 75 15.999
s42.334 25.834 59.001 45.501s29.5 43 38.5 70s13.5 56.833 13.5 89.5c0 32 -4.5 61.5 -13.5 88.5s-21.833 50.333 -38.5 70s-36.334 35 -59.001 46s-47.667 16.5 -75 16.5c-26.667 0 -51.334 -5.5 -74.001 -16.5s-42.167 -26.167 -58.5 -45.5
s-29.166 -42.166 -38.499 -68.499s-14 -54.833 -14 -85.5c0 -34 4.5 -64.833 13.5 -92.5s21.5 -51.334 37.5 -71.001s35.333 -35 58 -46s48 -16.5 76 -16.5z" />
    <glyph glyph-name="afii10097" unicode="&#x44f;" horiz-adv-x="477" 
d="M155 216c-38 6 -68.833 22.168 -92.5 48.501s-35.5 61.166 -35.5 104.499c0 46 15 81.667 45 107s71 38 123 38h224v-514h-48v213h-156l-42 -50.5l-43 -50.5l-46.5 -56.5l-46.5 -55.5h-63zM371 260.001l0.000976562 206h-176c-38.667 0 -68.5 -8.16699 -89.5 -24.5
s-31.5 -40.5 -31.5 -72.5c0 -36 10.667 -63.167 32 -81.5s49.666 -27.5 84.999 -27.5h180z" />
    <glyph glyph-name="afii10071" unicode="&#x451;" 
d="M243 -11c-40 0 -74.3291 6.83203 -102.996 20.499s-52.167 32.5 -70.5 56.5s-31.833 52.333 -40.5 85s-13 68 -13 106c0 42.667 6.33301 80.667 19 114s29.5 61.5 50.5 84.5s45.167 40.5 72.5 52.5s55.666 18 84.999 18c40 0 74.667 -8.16699 104 -24.5
s53.166 -37.833 71.499 -64.5s31.666 -57.167 39.999 -91.5s12.166 -69.833 11.499 -106.5h-405c2 -27.333 6.83301 -53.166 14.5 -77.499s18.667 -45.833 33 -64.5s32 -33.5 53 -44.5s46.167 -16.5 75.5 -16.5c48 0 87.667 13.333 119 40s50.666 67 57.999 121h48
c-9.33301 -65.333 -34.166 -116.333 -74.499 -153s-89.833 -55 -148.5 -55zM422.004 285.999c-2 25.333 -7.16895 49.6689 -15.502 73.002s-20 43.833 -35 61.5s-33 31.667 -54 42s-45.167 15.5 -72.5 15.5c-23.333 0 -45.166 -4.66699 -65.499 -14s-38.333 -22.333 -54 -39
s-28.667 -36.834 -39 -60.501s-17.166 -49.834 -20.499 -78.501h356zM292.002 642.002h48v-105h-48v105zM146.002 642.002h47v-105h-47v105z" />
    <glyph glyph-name="uni10A0" unicode="&#x10a0;" horiz-adv-x="568" 
d="M508 263l-0.000976562 -54.9961c-5.33301 -68.667 -30 -122.834 -74 -162.501s-94 -59.5 -150 -59.5c-66 0 -119.833 21.5 -161.5 64.5s-62.5 104.5 -62.5 184.5c0 51.333 13.667 101.333 41 150l53 -19c-26.667 -42.667 -40 -86.334 -40 -131.001
c0 -75.333 17.333 -128.333 52 -159s74 -46 118 -46c38.667 0 75.334 13.5 110.001 40.5s53.667 72.5 57 136.5v54c0 76.667 -35.833 144.167 -107.5 202.5s-107.5 145.833 -107.5 262.5h50c0 -108.667 37 -190.334 111 -245.001s111 -127.334 111 -218.001z" />
    <glyph glyph-name="uni10A1" unicode="&#x10a1;" horiz-adv-x="579" 
d="M114 243c0 -69.333 17.333 -122.167 52 -158.5s75 -54.5 121 -54.5c58 0 102.167 16.5 132.5 49.5s45.5 83.5 45.5 151.5v30c0 64 -17 114.5 -51 151.5s-77.667 57.833 -131 62.5c-50.667 -2 -91.5 -20.833 -122.5 -56.5s-46.5 -84.5 -46.5 -146.5v-29zM239 725.999
c0.666992 -31.333 21.667 -57.665 63 -78.998s49 -67.333 23 -138c54 -12.667 99.833 -40.334 137.5 -83.001s56.5 -97.667 56.5 -165v-30c0 -72 -21.333 -130.833 -64 -176.5s-98.334 -68.5 -167.001 -68.5c-66 0 -120.5 23.833 -163.5 71.5s-64.5 109.5 -64.5 185.5v29
c0 62.667 16.833 115.667 50.5 159s88.5 69.666 164.5 78.999c30.667 57.333 20.834 98 -29.499 122s-76.5 55.333 -78.5 94h72z" />
    <glyph glyph-name="uni10A2" unicode="&#x10a2;" horiz-adv-x="619" 
d="M307 482l26.9961 -0.00292969c35.333 37.333 53 76 53 116c0 26.667 -7.83301 48.667 -23.5 66s-41.167 26 -76.5 26c-39.333 0 -66.666 -7 -81.999 -21s-23 -30.333 -23 -49c0 -20 2 -34.667 6 -44l-51 -13c-6 19.333 -9 37 -9 53c0 29.333 12.833 56.166 38.5 80.499
s65.834 36.5 120.501 36.5c56 0 95.833 -14.5 119.5 -43.5s35.5 -59.5 35.5 -91.5c0 -39.333 -20 -81.666 -60 -126.999c46.667 -15.333 87.834 -45.166 123.501 -89.499s53.5 -90.166 53.5 -137.499v-22c0 -54 -23.167 -106.833 -69.5 -158.5
s-106.166 -77.5 -179.499 -77.5c-74 0 -134.167 25.833 -180.5 77.5s-69.5 106.834 -69.5 165.501v20c0 54 23.167 105 69.5 153s105.5 74.667 177.5 80zM307.996 439.997c-56 -5.33301 -101.834 -24.834 -137.501 -58.501s-53.5 -78.167 -53.5 -133.5v-19
c0 -56.667 18.833 -104 56.5 -142s83.167 -57 136.5 -57c52.667 0 98 19 136 57s57 83 57 135v21c0 48.667 -17.167 93.334 -51.5 134.001s-82.166 61.667 -143.499 63z" />
    <glyph glyph-name="uni10A3" unicode="&#x10a3;" horiz-adv-x="899" 
d="M781 457v43c0 60.667 -14.333 107.667 -43 141s-67.334 50 -116.001 50c-49.333 0 -90.666 -16.833 -123.999 -50.5s-50 -79.167 -50 -136.5v-35c0 -60 16.667 -107.333 50 -142s74 -52 122 -52c35.333 0 71 17.167 107 51.5s54 77.833 54 130.5zM393 466
l-0.00195312 29.998c0 30.667 7.33301 66 22 106c-35.333 54.667 -83.666 82.334 -144.999 83.001c-49.333 -0.666992 -88 -18 -116 -52s-42 -70 -42 -108v-42c0 -69.333 26.667 -137.166 80 -203.499s139.833 -116.166 259.5 -149.499s199.167 -78.333 238.5 -135h-93
c-8.66699 29.333 -38.5 52.5 -89.5 69.5s-100.333 22.667 -148 17s-109.167 -27.834 -184.5 -66.501v66c34.667 16 98.334 26.333 191.001 31c-114.667 46 -194.334 105.5 -239.001 178.5s-67 136.833 -67 191.5v40c0 49.333 17.667 95.666 53 138.999s88 65.333 158 66
c66.667 -0.666992 122 -30 166 -88c48.667 62 108.334 93 179.001 93c63.333 0 116.333 -20.5 159 -61.5s64 -99.167 64 -174.5v-39c0 -48 -21.667 -97.5 -65 -148.5s-96 -76.5 -158 -76.5c-64 0 -117.167 24.833 -159.5 74.5s-63.5 102.834 -63.5 159.501z" />
    <glyph glyph-name="uni10A4" unicode="&#x10a4;" horiz-adv-x="583" 
d="M508 196c0 -74.667 -22.3311 -128.334 -66.998 -161.001s-96.667 -49 -156 -49c-58.667 0 -110.834 20 -156.501 60s-68.5 92 -68.5 156c0 49.333 16.667 98 50 146l46 -26c-28 -33.333 -42 -73.333 -42 -120c0 -66.667 19.667 -112 59 -136s76.666 -36 111.999 -36
c43.333 0 82.5 10.667 117.5 32s52.5 66 52.5 134v351c0 60 -15.833 98.667 -47.5 116s-64.5 26 -98.5 26c-43.333 0 -78.5 -10.833 -105.5 -32.5s-40.5 -50.167 -40.5 -85.5c0 -31.333 7.33301 -56.666 22 -75.999l-48 -23c-18 27.333 -27 60.333 -27 99
c0 43.333 18 81 54 113s83.333 48 142 48c58 0 106.167 -15.5 144.5 -46.5s57.5 -77.167 57.5 -138.5v-351z" />
    <glyph glyph-name="uni10A5" unicode="&#x10a5;" horiz-adv-x="579" 
d="M519 181c0 -58 -18.165 -105.167 -54.498 -141.5s-93.5 -54.5 -171.5 -54.5c-67.333 0 -123 20.333 -167 61s-66 87.667 -66 141c0 38 12.667 75.667 38 113l49 -21c-22 -29.333 -33 -60 -33 -92c0 -47.333 17.833 -86 53.5 -116s77.5 -45 125.5 -45
c54.667 0 97 13.333 127 40s45 61 45 103v41c0 49.333 -17.167 86.5 -51.5 111.5s-67.5 37.5 -99.5 37.5h-42v44h43c27.333 0 57.333 13.833 90 41.5s49 64.5 49 110.5c0 39.333 -14.833 71.5 -44.5 96.5s-67.834 37.5 -114.501 37.5
c-40.667 0 -75.834 -11.833 -105.501 -35.5s-44.5 -53.5 -44.5 -89.5c0 -22 7.66699 -47.667 23 -77l-50 -20c-18 32.667 -27 64.667 -27 96c0 46.667 19.333 86.5 58 119.5s87 49.5 145 49.5c72 0 125.833 -17.333 161.5 -52s53.5 -76.667 53.5 -126
c0 -71.333 -43.667 -130 -131 -176c94 -31.333 141 -89.333 141 -174v-23z" />
    <glyph glyph-name="uni10A6" unicode="&#x10a6;" horiz-adv-x="620" 
d="M560 218c0 -70 -24.001 -126.166 -72.001 -168.499s-103 -63.5 -165 -63.5c-58.667 0 -112.5 21.5 -161.5 64.5s-73.5 98.833 -73.5 167.5v14c0 26.667 8.66699 57 26 91s50 65 98 93c-38 4 -72.833 20.167 -104.5 48.5s-47.5 64.833 -47.5 109.5
c0 41.333 15.167 78 45.5 110s75.5 48 135.5 48c62 0 108.333 -17.167 139 -51.5s46 -68.833 46 -103.5c0 -32.667 -6.66699 -59.334 -20 -80.001s-32 -38 -56 -52c56.667 -6 105.834 -29 147.501 -69s62.5 -88 62.5 -144v-14zM142.999 221.001
c0 -65.333 20.999 -113.5 62.999 -144.5s81 -46.5 117 -46.5c36.667 0 76.167 15.5 118.5 46.5s63.5 79.167 63.5 144.5v5c0 53.333 -18.667 97.333 -56 132s-79.333 52 -126 52c-49.333 0 -91.666 -19.833 -126.999 -59.5s-53 -81.5 -53 -125.5v-4zM371.998 574.001
c0 38 -12.333 67 -37 87s-55.667 30 -93 30c-34.667 0 -64.667 -9.83301 -90 -29.5s-38 -49.5 -38 -89.5c0 -36 13.667 -66.333 41 -91s56.333 -37 87 -37c43.333 0 75.833 12.667 97.5 38s32.5 56 32.5 92z" />
    <glyph glyph-name="uni10A7" unicode="&#x10a7;" horiz-adv-x="916" 
d="M465 438c0 106.667 -16.667 175.333 -50 206s-74 46 -122 46c-54.667 0 -98.167 -19 -130.5 -57s-48.5 -103 -48.5 -195v-120c0 -100 15.833 -173 47.5 -219s73.5 -69 125.5 -69c51.333 0 94.333 23.167 129 69.5s51 118.833 49 217.5v121zM519 421.999l-0.00195312 -104
c0 -106 -20.833 -187.833 -62.5 -245.5s-98.167 -86.5 -169.5 -86.5c-69.333 0 -124.5 28.833 -165.5 86.5s-61.5 138.834 -61.5 243.501v125c0 99.333 21.667 172.833 65 220.5s99 71.5 167 71.5c40 0 76.333 -8.33301 109 -25s58.334 -42.334 77.001 -77.001
c48.667 68 105.667 102 171 102c62 0 112 -24.667 150 -74s57 -122.333 57 -219v-66c0 -178 -43.667 -307.667 -131 -389l-61 19c91.333 76 137 200.333 137 373v61c0 96 -15.167 162 -45.5 198s-62.166 54 -95.499 54c-54 0 -109.333 -34.333 -166 -103
c16.667 -51.333 25 -106.333 25 -165z" />
    <glyph glyph-name="uni10A8" unicode="&#x10a8;" horiz-adv-x="552" 
d="M60 423c0 103.333 20.333 180.666 61 231.999s92.667 77 156 77c62 0 113.333 -25.667 154 -77s61 -128.666 61 -231.999v-52c0 -138 -23.667 -263 -71 -375l-65 15c54.667 74.667 82 194.667 82 360v52c0 94.667 -13.667 162.667 -41 204s-67.333 62 -120 62
c-54 0 -94.667 -20.667 -122 -62s-41 -109.333 -41 -204v-52c0 -164 25.333 -285 76 -363l-66 -12c-42.667 113.333 -64 238.333 -64 375v52z" />
    <glyph glyph-name="uni10A9" unicode="&#x10a9;" horiz-adv-x="582" 
d="M522 224c0 -78 -21.833 -137.168 -65.5 -177.501s-98.5 -60.5 -164.5 -60.5c-62 0 -116.167 19.833 -162.5 59.5s-69.5 88.5 -69.5 146.5c0 42 10 84 30 126l48 -21c-14 -32 -21 -67 -21 -105c0 -52.667 19.833 -92.834 59.5 -120.501s78.167 -41.5 115.5 -41.5
c40.667 0 79.667 13.167 117 39.5s56 77.833 56 154.5v11c0 109.333 -51.667 171.333 -155 186h-86v45h87c76 4 114 43.667 114 119c0 32.667 -15.333 74.667 -46 126l52 19c32.667 -61.333 49 -109.666 49 -144.999c0 -69.333 -34.667 -116.666 -104 -141.999
c97.333 -45.333 146 -114.333 146 -207v-12z" />
    <glyph glyph-name="uni10AA" unicode="&#x10aa;" horiz-adv-x="1114" 
d="M1054 524l0.00488281 -32c0 -78.667 -30.333 -157 -91 -235l-62 14c65.333 76 98 151 98 225v28c0 110.667 -45 166 -135 166c-44 0 -78.333 -18 -103 -54s-37 -73.667 -37 -113v-142h-49v141c0 56.667 -11.167 99.834 -33.5 129.501s-50.5 44.5 -84.5 44.5
c-34.667 0 -63.167 -17 -85.5 -51s-33.5 -75 -33.5 -123v-141h-48v141c0 40 -12.333 78 -37 114s-59.667 54 -105 54c-34 0 -64.833 -15.5 -92.5 -46.5s-41.5 -75.167 -41.5 -132.5v-45c0 -86 39 -158.333 117 -217s189.667 -96.5 335 -113.5s243.333 -65.167 294 -144.5
h-87c-8.66699 46.667 -52.334 76 -131.001 88s-149.667 13.833 -213 5.5s-130.333 -26.5 -201 -54.5v54c48 17.333 111 29.666 189 36.999c-118.667 30 -207.834 75.167 -267.501 135.5s-89.5 130.5 -89.5 210.5v44c0 53.333 15 103.5 45 150.5s78.333 70.5 145 70.5
c36 0 67.5 -10 94.5 -30s49.833 -53 68.5 -99c12 50 31.167 84.5 57.5 103.5s55.166 28.5 86.499 28.5c33.333 0 62.166 -9.5 86.499 -28.5s43.833 -53.833 58.5 -104.5c10 46.667 29.667 80 59 100s63.666 30 102.999 30c126.667 0 190 -69.333 190 -208z" />
    <glyph glyph-name="uni10AB" unicode="&#x10ab;" horiz-adv-x="594" 
d="M285 451c-44.667 0 -84.333 -17.999 -119 -53.999s-52 -86 -52 -150v-15c0 -60 17 -108.667 51 -146s74 -56 120 -56c52 0 95.667 13.5 131 40.5s53 79.167 53 156.5v20c0 59.333 -16.5 108.166 -49.5 146.499s-77.833 57.5 -134.5 57.5zM60.001 247.001
c0 60.667 20.6689 116.667 62.002 168s95.666 77 162.999 77c78.667 0 140 -35 184 -105v162c0 48.667 -14 84.334 -42 107.001s-74.667 34 -140 34c-54 0 -93 -6.33301 -117 -19s-36 -29.667 -36 -51c0 -18 2 -32.667 6 -44l-49 -14c-4.66699 14.667 -7 35 -7 61
c0 30 16.167 55.833 48.5 77.5s83.833 32.5 154.5 32.5c84.667 0 144.5 -16.167 179.5 -48.5s52.5 -82.5 52.5 -150.5v-307c0 -83.333 -19.5 -144.333 -58.5 -183s-96.5 -58 -172.5 -58c-64.667 0 -118.834 24.167 -162.501 72.5s-65.5 106.166 -65.5 173.499v15z" />
    <glyph glyph-name="uni10AC" unicode="&#x10ac;" horiz-adv-x="596" 
d="M480 232v18c0.666992 67.333 -15 118.333 -47 153s-75.667 52 -131 52c-50 0 -91.833 -17.833 -125.5 -53.5s-50.5 -86.167 -50.5 -151.5v-23c0 -64 14.833 -112.833 44.5 -146.5s73.5 -50.5 131.5 -50.5s102.167 18.167 132.5 54.5s45.5 85.5 45.5 147.5zM536 232
c0 -66.667 -20.832 -124.333 -62.499 -173s-98.834 -73 -171.501 -73c-72 0 -127.833 20.667 -167.5 62s-59.5 101 -59.5 179v384c0 76.667 45.333 115 136 115h182c31.333 0 47 7 47 21h66c0 -42 -37.667 -63 -113 -63h-184c-55.333 0 -83 -21.667 -83 -65v-225
c42 67.333 100.667 101 176 101c82 0 141.5 -23.5 178.5 -70.5s55.5 -105.167 55.5 -174.5v-18z" />
    <glyph glyph-name="uni10AD" unicode="&#x10ad;" horiz-adv-x="867" 
d="M407 261l0.000976562 239c0 66.667 -13.333 114.834 -40 144.501s-57.334 44.5 -92.001 44.5c-40.667 0 -77.667 -16.833 -111 -50.5s-50 -101.5 -50 -203.5v-38c0 -160 51.333 -290 154 -390l-63 -12c-96.667 104.667 -145 238.667 -145 402v38
c0 111.333 22.5 188.666 67.5 231.999s93.5 65 145.5 65c32.667 0 62.834 -10.5 90.501 -31.5s51.167 -53.833 70.5 -98.5c18.667 44.667 41.667 77.5 69 98.5s56.666 31.5 87.999 31.5c53.333 0 102.666 -21.667 147.999 -65s68 -120.666 68 -231.999v-38
c0 -163.333 -49.333 -297.333 -148 -402l-66 12c105.333 100 158 230 158 390v38c0 102 -16.5 169.833 -49.5 203.5s-70.167 50.5 -111.5 50.5c-33.333 0 -63.666 -14.833 -90.999 -44.5s-41 -77.834 -41 -144.501v-239h-51z" />
    <glyph glyph-name="uni10AE" unicode="&#x10ae;" horiz-adv-x="579" 
d="M475 547c0 -64 -35.333 -108 -106 -132c100 -40 150 -113.667 150 -221v-11c0 -49.333 -19.833 -94.5 -59.5 -135.5s-95.167 -61.5 -166.5 -61.5c-67.333 0 -123 20.5 -167 61.5s-66 91.833 -66 152.5c0 48.667 12.333 94 37 136l48 -19
c-20.667 -38.667 -31 -77.667 -31 -117c0 -55.333 18.667 -97.5 56 -126.5s78.333 -43.5 123 -43.5c46 0 86.167 14.667 120.5 44s51.5 65.666 51.5 108.999v10c0 106.667 -47.333 173.334 -142 200.001h-46v47h34c78 11.333 117 47 117 107c0 45.333 -47.167 73 -141.5 83
s-141.5 42.333 -141.5 97h55c0 -34.667 45.833 -57.5 137.5 -68.5s137.5 -48.167 137.5 -111.5z" />
    <glyph glyph-name="uni10AF" unicode="&#x10af;" horiz-adv-x="594" 
d="M519 220c0 -80.667 -23.3311 -139.834 -69.998 -177.501s-101.334 -56.5 -164.001 -56.5c-60 0 -112.5 18.167 -157.5 54.5s-67.5 86.833 -67.5 151.5c0 40 7.33301 80 22 120l50 -32c-12 -26.667 -18 -55.667 -18 -87c0 -53.333 17.5 -93.833 52.5 -121.5
s74.5 -41.5 118.5 -41.5c44.667 0 86.5 14.833 125.5 44.5s58.5 77.834 58.5 144.501v464c-91.333 -12 -191 -19 -299 -21c116 -24.667 174 -72 174 -142c0 -30 -14.5 -57.667 -43.5 -83s-70.167 -38 -123.5 -38h-77v54l77 -5c38 -3.33301 66.833 2 86.5 16
s29.5 34.667 29.5 62c0 32.667 -19.333 60.167 -58 82.5s-82.667 33.5 -132 33.5v49c145.333 3.33301 269.666 16 372.999 38h43v-509z" />
    <glyph glyph-name="uni10B0" unicode="&#x10b0;" horiz-adv-x="887" 
d="M773 297c0 62 -15.3359 110.001 -46.0029 144.001s-67.334 51 -110.001 51c-39.333 0 -73.166 -16.333 -101.499 -49s-42.5 -68.334 -42.5 -107.001v-125h-50v125c0 38.667 -13.667 74.334 -41 107.001s-63 49 -107 49c-40.667 0 -77.667 -16.5 -111 -49.5
s-50 -81.5 -50 -145.5v-17c0 -86.667 53 -177.667 159 -273l-71 -12c-94.667 91.333 -142 191 -142 299v12c0 38.667 7.5 82 22.5 130s51.667 101 110 159s177.5 105 357.5 141l13 -54c-231.333 -30 -369.666 -95.667 -414.999 -197c62.667 32 106.334 48 131.001 48
c46 0 80.667 -10.333 104 -31s45 -52.334 65 -95.001c18.667 42.667 41 74.334 67 95.001s60 31 102 31c68.667 0 120.834 -22.833 156.501 -68.5s53.5 -98.834 53.5 -159.501v-12c0 -108 -50.333 -207.333 -151 -298l-70 12c111.333 94 167 185 167 273v17z" />
    <glyph glyph-name="uni10B1" unicode="&#x10b1;" horiz-adv-x="596" 
d="M536 208c0 -56 -20.833 -107.001 -62.5 -153.001s-100.5 -69 -176.5 -69c-74 0 -129.5 23.667 -166.5 71s-55.5 108 -55.5 182v483h51v-483c-1.33301 -71.333 14 -124 46 -158s73.667 -51 125 -51c50 0 93 14.833 129 44.5s54 74.167 54 133.5
c0 62 -25.667 108.333 -77 139s-77 64.334 -77 101.001c0 31.333 5 68.333 15 111l54 -16c-12 -34 -18 -63 -18 -87c0 -32.667 26.5 -65.167 79.5 -97.5s79.5 -82.5 79.5 -150.5z" />
    <glyph glyph-name="uni10B2" unicode="&#x10b2;" horiz-adv-x="683" 
d="M330 685c-68 -7.33301 -120.501 -39.3301 -157.501 -95.9971s-55.5 -127.334 -55.5 -212.001v-38c0 -99.333 22.333 -175.666 67 -228.999s99.334 -80 164.001 -80c68 0 121.667 26.667 161 80s59 129.666 59 228.999v38c0 83.333 -17.833 153.666 -53.5 210.999
s-86.5 89.666 -152.5 96.999l15 -394h-61zM59.999 377.003c0 98 25.667 179.167 77 243.5s114 96.5 188 96.5l-12 31h64l-10 -31c66.667 0 126 -32.167 178 -96.5s78 -145.5 78 -243.5v-38c0 -102.667 -22.167 -187.167 -66.5 -253.5s-115.5 -99.5 -213.5 -99.5
c-88.667 0 -158 33.167 -208 99.5s-75 150.833 -75 253.5v38z" />
    <glyph glyph-name="uni10B3" unicode="&#x10b3;" horiz-adv-x="620" 
d="M545 203c0 -74 -20.333 -128.668 -61 -164.001s-99 -53 -175 -53c-64.667 0 -118.5 20 -161.5 60s-64.5 94.667 -64.5 164c0 62.667 15.667 116.334 47 161.001l46 -26c-24 -34.667 -36 -78 -36 -130c0 -65.333 16.5 -112.5 49.5 -141.5s72.833 -43.5 119.5 -43.5
c53.333 0 97.166 11 131.499 33s51.5 71 51.5 147v380c0 66 -29.667 99 -89 99c-33.333 0 -56.166 -12.667 -68.499 -38s-18.5 -52 -18.5 -80v-123h-47v123c0 28.667 -6.66699 55.5 -20 80.5s-29.666 37.5 -48.999 37.5c-18 0 -32.333 -4.16699 -43 -12.5
s-27.334 -12.5 -50.001 -12.5h-47v65l52 -21c14.667 0 28 4 40 12s28 12 48 12c36.667 0 67 -37 91 -111c18.667 74 58.667 111 120 111c89.333 0 134 -52.333 134 -157v-372z" />
    <glyph glyph-name="uni10B4" unicode="&#x10b4;" horiz-adv-x="846" 
d="M415 525c0 46 -12.833 84.832 -38.5 116.499s-60.5 47.5 -104.5 47.5c-43.333 0 -80.5 -12.167 -111.5 -36.5s-46.5 -66.5 -46.5 -126.5v-24c0 -61.333 14.333 -105.666 43 -132.999s65 -41 109 -41c43.333 0 79 13.5 107 40.5s42 71.5 42 133.5v23zM472 523.999
l-0.00195312 -23.002c-4.66699 -61.333 -24.167 -113.5 -58.5 -156.5s-83.5 -64.5 -147.5 -64.5c-58 0 -106.833 22 -146.5 66s-59.5 96 -59.5 156v24c0 58.667 18.333 107.667 55 147s89 59 157 59c68.667 0 121.667 -28.667 159 -86c40 55.333 97 83 171 83
c57.333 0 102.333 -17.667 135 -53s49 -76.666 49 -123.999c0 -76.667 -40.667 -136 -122 -178c72.667 -24.667 109.667 -74 111 -148v-47c0 -46 -23.667 -89.667 -71 -131s-115 -62 -203 -62c-84 0 -151.333 15.5 -202 46.5s-76 65.167 -76 102.5v42h57v-42
c-1.33301 -27.333 17.834 -51.666 57.501 -72.999s93.834 -32 162.501 -32s122.5 14.167 161.5 42.5s58.5 63.833 58.5 106.5v43c-0.666992 86.667 -40 130 -118 130h-50v45h52c85.333 5.33301 128 57 128 155c0 40.667 -12.833 73.167 -38.5 97.5s-57.167 36.5 -94.5 36.5
c-60.667 0 -110 -28 -148 -84c14 -33.333 21 -59.333 21 -78z" />
    <glyph glyph-name="uni10B5" unicode="&#x10b5;" horiz-adv-x="594" 
d="M519 198c0 -72 -21.332 -125.335 -63.999 -160.002s-99.334 -52 -170.001 -52c-61.333 0 -114.166 18.333 -158.499 55s-66.5 84.667 -66.5 144c0 52 8.66699 92.333 26 121l49 -28c-14 -18.667 -21 -49.667 -21 -93c0 -46 16.667 -83.333 50 -112
s73.666 -43 120.999 -43c48 0 90.667 12.333 128 37s56 68.334 56 131.001v227c0 23.333 -25.333 61 -76 113s-101 77.667 -151 77c-23.333 0.666992 -41.333 -6 -54 -20s-19 -35.333 -19 -64c0 -26.667 6 -50.667 18 -72l-53 -18c-14.667 30.667 -22 60.667 -22 90
c-0.666992 40.667 11.333 71.834 36 93.501s56 32.5 94 32.5c67.333 0 143 -48 227 -144v172h-53v40h103v-527z" />
    <glyph glyph-name="uni10B6" unicode="&#x10b6;" horiz-adv-x="852" 
d="M792 515l0.00195312 -31c0 -68 -33 -133.333 -99 -196l-60 13c69.333 51.333 104 111.333 104 180v30c0 61.333 -14.5 106.333 -43.5 135s-63.833 43 -104.5 43c-42.667 0 -76.5 -15.5 -101.5 -46.5s-37.5 -63.5 -37.5 -97.5v-118h-47v118c0 34 -12.667 66.5 -38 97.5
s-61 46.5 -107 46.5c-42.667 0 -77.334 -15.667 -104.001 -47s-40 -74 -40 -128v-25c0 -136.667 85 -238.667 255 -306s262 -131.333 276 -192h-84c-18.667 54 -47.834 89.667 -87.501 107s-86.167 21.333 -139.5 12s-105.333 -36 -156 -80v64
c41.333 32 101.666 49.667 180.999 53c-199.333 72 -299 187 -299 345v21c0 58 17.833 109 53.5 153s83.834 66 144.501 66c73.333 0 130.333 -40.333 171 -121c32 80.667 85.333 121 160 121c70 0 121.333 -20.667 154 -62s49 -93 49 -155z" />
    <glyph glyph-name="uni10B7" unicode="&#x10b7;" horiz-adv-x="594" 
d="M519 187c0 -66 -19.668 -116.001 -59.001 -150.001s-95 -51 -167 -51c-59.333 0 -113 17.833 -161 53.5s-72 86.834 -72 153.501c0 10.667 2.33301 26.667 7 48l54 -14c-4.66699 -13.333 -7 -24.666 -7 -33.999c0 -50.667 17.5 -90.5 52.5 -119.5
s77.167 -43.5 126.5 -43.5c52 0 94.833 11.667 128.5 35s50.5 64 50.5 122v183c-42 -64 -100.333 -96 -175 -96c-67.333 0 -119.666 18.833 -156.999 56.5s-56 96.167 -56 175.5c0 85.333 31.667 159.666 95 222.999l46 -19c-57.333 -66 -86 -134.333 -86 -205
c0 -76 16 -127.167 48 -153.5s68.667 -39.5 110 -39.5c45.333 0 85.833 18.333 121.5 55s53.5 78.667 53.5 126v228h47v-534z" />
    <glyph glyph-name="uni10B8" unicode="&#x10b8;" horiz-adv-x="611" 
d="M484 399v203.002c0 37.333 -6.33301 61.333 -19 72s-32.334 16 -59.001 16c-23.333 0 -43.666 -10 -60.999 -30s-26 -37.333 -26 -52v-31h-54v31c0 14.667 -7.16699 32 -21.5 52s-38.5 30 -72.5 30c-36.667 0 -55 -20.333 -55 -61v-66h-56v71
c0 35.333 10.833 60.666 32.5 75.999s47.5 23 77.5 23c48 0 89.333 -29 124 -87c32.667 58 71 87 115 87c47.333 0 80.333 -12.5 99 -37.5s28 -56.833 28 -95.5v-373c0 -76.667 -20 -136 -60 -178s-97.333 -63 -172 -63c-66 0 -121 24.167 -165 72.5
s-66 106.166 -66 173.499v16c0 60 21 115.667 63 167s97.333 77 166 77c77.333 0 138 -31 182 -93zM302 451.002c-45.333 0 -85.333 -18 -120 -54s-52 -85.667 -52 -149v-16c0 -60 17 -108.667 51 -146s74.333 -56 121 -56c50 0 92.667 15.167 128 45.5
s53.333 80.833 54 151.5v21c0 58.667 -16.167 107.167 -48.5 145.5s-76.833 57.5 -133.5 57.5z" />
    <glyph glyph-name="uni10B9" unicode="&#x10b9;" horiz-adv-x="596" 
d="M405 593l-51 0.00195312v28c0 21.333 -8.66699 38.166 -26 50.499s-43.666 18.5 -78.999 18.5c-40 0 -70.5 -13 -91.5 -39s-31.5 -63.333 -31.5 -112v-124c57.333 68 120.666 102 189.999 102c68.667 0 122.5 -20.5 161.5 -61.5s58.5 -90.833 58.5 -149.5v-16
c0 -108.667 -42.667 -207.334 -128 -296.001l-59 11c87.333 90.667 131 184.667 131 282v18c0 54 -15.833 96.167 -47.5 126.5s-70.5 45.5 -116.5 45.5c-46.667 0 -90 -20 -130 -60s-60 -80.333 -60 -121v-296h-51v543c0 49.333 14.5 93.333 43.5 132s74.167 58 135.5 58
c54 0 92.833 -12.333 116.5 -37s35.5 -49.667 35.5 -75c0 -10.667 -0.333008 -20 -1 -28z" />
    <glyph glyph-name="uni10BA" unicode="&#x10ba;" horiz-adv-x="634" 
d="M545 524c0 -56.667 -38.001 -103.666 -114.001 -140.999c95.333 -44.667 143 -96.667 143 -156v1c0 -78.667 -23.667 -138.667 -71 -180s-106 -62 -176 -62c-79.333 0 -143.666 27.833 -192.999 83.5s-74 121.167 -74 196.5v177c0 100 31.667 197 95 291l50 -24
c-60.667 -76 -91 -163.667 -91 -263v-182c0 -69.333 21 -125.833 63 -169.5s93.333 -65.5 154 -65.5c48.667 0 92.167 15.833 130.5 47.5s57.5 72.167 57.5 121.5v36c0 22.667 -18 49.167 -54 79.5s-71.333 45.5 -106 45.5h-66v42h66c33.333 0 63.333 11.667 90 35
s40 52.666 40 87.999c0 26 -25.833 55.167 -77.5 87.5s-77.5 70.5 -77.5 114.5l55 6c0 -36 26 -70.167 78 -102.5s78 -67.833 78 -106.5z" />
    <glyph glyph-name="uni10BB" unicode="&#x10bb;" horiz-adv-x="594" 
d="M285 445c-44.667 0 -84.333 -17.999 -119 -53.999s-52 -86 -52 -150v-9c0 -60 17 -108.667 51 -146s74 -56 120 -56c52 0 95.667 14.5 131 43.5s53 81.833 53 158.5v9c0 59.333 -16.5 108.166 -49.5 146.499s-77.833 57.5 -134.5 57.5zM519.001 232.001
c0 -82 -19.498 -143.499 -58.498 -184.499s-96.5 -61.5 -172.5 -61.5c-64.667 0 -118.834 24.167 -162.501 72.5s-65.5 106.166 -65.5 173.499v9c0 60.667 20.667 116.667 62 168s95.666 77 162.999 77c78.667 0 140 -35 184 -105v343h50v-492z" />
    <glyph glyph-name="uni10BC" unicode="&#x10bc;" horiz-adv-x="610" 
d="M308 445c-56.667 0 -101.167 -19.167 -133.5 -57.5s-48.5 -86.833 -48.5 -145.5v-15c0 -64 17.833 -112.833 53.5 -146.5s78.5 -50.5 128.5 -50.5c46.667 0 87 18.667 121 56s51 86 51 146v10c0 63.333 -17.5 113 -52.5 149s-74.833 54 -119.5 54zM126 392
c44.667 62.667 105.331 93.998 181.998 93.998c68 0 123 -25.667 165 -77s63 -107 63 -167v-10c0 -67.333 -21.833 -125.166 -65.5 -173.499s-98.5 -72.5 -164.5 -72.5c-74.667 0 -131.834 22.667 -171.501 68s-59.5 103 -59.5 173v372c0 38.667 8.83301 70.5 26.5 95.5
s50.5 37.5 98.5 37.5c44.667 0 83.334 -29 116.001 -87c34.667 58 76 87 124 87c29.333 0 55 -7.66699 77 -23s33 -40.666 33 -75.999v-72h-56v67c0 40.667 -18.333 61 -55 61c-35.333 0 -59.666 -10 -72.999 -30s-20 -38.667 -20 -56v-29h-57v29
c0 17.333 -8.66699 36 -26 56s-37.666 30 -60.999 30c-26 0 -45.167 -5.33301 -57.5 -16s-18.5 -35 -18.5 -73v-208z" />
    <glyph glyph-name="uni10BD" unicode="&#x10bd;" horiz-adv-x="582" 
d="M487 582l0.00195312 -42.001h-118c0 -64 25.5 -119.667 76.5 -167s76.5 -102.333 76.5 -165v-9c0 -52 -21.5 -100.5 -64.5 -145.5s-98.5 -67.5 -166.5 -67.5c-69.333 0 -125.166 22.833 -167.499 68.5s-63.5 95.5 -63.5 149.5c0 27.333 8.66699 56.333 26 87l50 -21
c-12.667 -20 -19 -42 -19 -66c0 -57.333 17.667 -100.666 53 -129.999s75.666 -44 120.999 -44c49.333 0 90.666 16.333 123.999 49s50 73.334 50 122.001v5c0 65.333 -24.167 120.166 -72.5 164.499s-72.5 100.833 -72.5 169.5h-89c-42 0 -68.667 -7.66699 -80 -23
s-17 -31.333 -17 -48c0 -16 6.16699 -30.667 18.5 -44s38.833 -20 79.5 -20h26v-42h-26c-48.667 0 -85.334 10.167 -110.001 30.5s-37 45.833 -37 76.5c0 28.667 11.833 54.5 35.5 77.5s60.5 34.5 110.5 34.5h91v102h-116v43h164v-145h117z" />
    <glyph glyph-name="uni10BE" unicode="&#x10be;" horiz-adv-x="596" 
d="M75 724l51 -0.000976562v-343c44.667 70 105.334 105 182.001 105c68 0 123 -25.667 165 -77s63 -107.333 63 -168v-9c0 -67.333 -21.833 -125.166 -65.5 -173.499s-98.5 -72.5 -164.5 -72.5c-74.667 0 -131.834 23.833 -171.501 71.5s-59.5 105.5 -59.5 173.5v493z
M308 444.999c-56.667 0 -101.167 -19.168 -133.5 -57.501s-48.5 -87.166 -48.5 -146.499v-10c0 -62 17.833 -111 53.5 -147s78.5 -54 128.5 -54c46.667 0 87 18.667 121 56s51 86 51 146v9c0 64 -17.5 114 -52.5 150s-74.833 54 -119.5 54z" />
    <glyph glyph-name="uni10BF" unicode="&#x10bf;" horiz-adv-x="524" 
d="M387 136c0 -90 -112.335 -138.332 -337.002 -144.999v53c186.667 -3.33301 280.334 27.334 281.001 92.001c2.66699 67.333 -61.666 105.666 -192.999 114.999l-31 29l131 179l-176 89l25 40l176 -93l51 68c26 35.333 33.5 65.166 22.5 89.499s-30.5 36.5 -58.5 36.5
c-29.333 0 -60.333 -9 -93 -27l-21 39c24 20.667 62.333 31 115 31c46 0 78.5 -19 97.5 -57s15.5 -79 -10.5 -123l-62 -77l170 -87l-22 -38l-168 87l-107 -143c136.667 -18 206.667 -70.667 210 -158z" />
    <glyph glyph-name="uni10C0" unicode="&#x10c0;" horiz-adv-x="573" 
d="M513 161c0 -43.333 -20.168 -83.333 -60.501 -120s-98.166 -55 -173.499 -55c-78 0 -135.667 20.667 -173 62s-55.666 84.333 -54.999 129c0 21.333 4.66699 45.333 14 72l51 -14c-5.33301 -24 -8 -44 -8 -60c0 -44 17.667 -79.167 53 -105.5s75.333 -39.5 120 -39.5
c48.667 0 90 12.833 124 38.5s51 55.834 51 90.501c0 75.333 -86.333 127.666 -259 156.999v43c61.333 -9.33301 111.666 -23.666 150.999 -42.999c18 -7.33301 36.833 -5.33301 56.5 6s29.5 29 29.5 53c0 54 -79 92.667 -237 116v43
c52.667 -4.66699 97 -14.334 133 -29.001c18 -6 35.833 -3.16699 53.5 8.5s26.5 28.5 26.5 50.5c0 36.667 -34.667 60.5 -104 71.5s-104 39.833 -104 86.5h56c0 -27.333 34.667 -47.666 104 -60.999s104 -46 104 -98c0 -34.667 -27 -61.667 -81 -81
c69.333 -32 104 -70.333 104 -115c0 -34 -29.333 -61 -88 -81c74.667 -24.667 112 -66.334 112 -125.001z" />
    <glyph glyph-name="uni10D0" unicode="&#x10d0;" horiz-adv-x="568" 
d="M508 263l-0.000976562 -54.9961c-5.33301 -68.667 -30 -122.834 -74 -162.501s-94 -59.5 -150 -59.5c-66 0 -119.833 21.5 -161.5 64.5s-62.5 104.5 -62.5 184.5c0 51.333 13.667 101.333 41 150l53 -19c-26.667 -42.667 -40 -86.334 -40 -131.001
c0 -75.333 17.333 -128.333 52 -159s74 -46 118 -46c38.667 0 75.334 13.5 110.001 40.5s53.667 72.5 57 136.5v54c0 76.667 -35.833 144.167 -107.5 202.5s-107.5 145.833 -107.5 262.5h50c0 -108.667 37 -190.334 111 -245.001s111 -127.334 111 -218.001z" />
    <glyph glyph-name="uni10D1" unicode="&#x10d1;" horiz-adv-x="579" 
d="M114 243c0 -69.333 17.333 -122.167 52 -158.5s75 -54.5 121 -54.5c58 0 102.167 16.5 132.5 49.5s45.5 83.5 45.5 151.5v30c0 64 -17 114.5 -51 151.5s-77.667 57.833 -131 62.5c-50.667 -2 -91.5 -20.833 -122.5 -56.5s-46.5 -84.5 -46.5 -146.5v-29zM239 725.999
c0.666992 -31.333 21.667 -57.665 63 -78.998s49 -67.333 23 -138c54 -12.667 99.833 -40.334 137.5 -83.001s56.5 -97.667 56.5 -165v-30c0 -72 -21.333 -130.833 -64 -176.5s-98.334 -68.5 -167.001 -68.5c-66 0 -120.5 23.833 -163.5 71.5s-64.5 109.5 -64.5 185.5v29
c0 62.667 16.833 115.667 50.5 159s88.5 69.666 164.5 78.999c30.667 57.333 20.834 98 -29.499 122s-76.5 55.333 -78.5 94h72z" />
    <glyph glyph-name="uni10D2" unicode="&#x10d2;" horiz-adv-x="619" 
d="M307 482l26.9961 -0.00292969c35.333 37.333 53 76 53 116c0 26.667 -7.83301 48.667 -23.5 66s-41.167 26 -76.5 26c-39.333 0 -66.666 -7 -81.999 -21s-23 -30.333 -23 -49c0 -20 2 -34.667 6 -44l-51 -13c-6 19.333 -9 37 -9 53c0 29.333 12.833 56.166 38.5 80.499
s65.834 36.5 120.501 36.5c56 0 95.833 -14.5 119.5 -43.5s35.5 -59.5 35.5 -91.5c0 -39.333 -20 -81.666 -60 -126.999c46.667 -15.333 87.834 -45.166 123.501 -89.499s53.5 -90.166 53.5 -137.499v-22c0 -54 -23.167 -106.833 -69.5 -158.5
s-106.166 -77.5 -179.499 -77.5c-74 0 -134.167 25.833 -180.5 77.5s-69.5 106.834 -69.5 165.501v20c0 54 23.167 105 69.5 153s105.5 74.667 177.5 80zM307.996 439.997c-56 -5.33301 -101.834 -24.834 -137.501 -58.501s-53.5 -78.167 -53.5 -133.5v-19
c0 -56.667 18.833 -104 56.5 -142s83.167 -57 136.5 -57c52.667 0 98 19 136 57s57 83 57 135v21c0 48.667 -17.167 93.334 -51.5 134.001s-82.166 61.667 -143.499 63z" />
    <glyph glyph-name="uni10D3" unicode="&#x10d3;" horiz-adv-x="899" 
d="M781 457v43c0 60.667 -14.333 107.667 -43 141s-67.334 50 -116.001 50c-49.333 0 -90.666 -16.833 -123.999 -50.5s-50 -79.167 -50 -136.5v-35c0 -60 16.667 -107.333 50 -142s74 -52 122 -52c35.333 0 71 17.167 107 51.5s54 77.833 54 130.5zM393 466
l-0.00195312 29.998c0 30.667 7.33301 66 22 106c-35.333 54.667 -83.666 82.334 -144.999 83.001c-49.333 -0.666992 -88 -18 -116 -52s-42 -70 -42 -108v-42c0 -69.333 26.667 -137.166 80 -203.499s139.833 -116.166 259.5 -149.499s199.167 -78.333 238.5 -135h-93
c-8.66699 29.333 -38.5 52.5 -89.5 69.5s-100.333 22.667 -148 17s-109.167 -27.834 -184.5 -66.501v66c34.667 16 98.334 26.333 191.001 31c-114.667 46 -194.334 105.5 -239.001 178.5s-67 136.833 -67 191.5v40c0 49.333 17.667 95.666 53 138.999s88 65.333 158 66
c66.667 -0.666992 122 -30 166 -88c48.667 62 108.334 93 179.001 93c63.333 0 116.333 -20.5 159 -61.5s64 -99.167 64 -174.5v-39c0 -48 -21.667 -97.5 -65 -148.5s-96 -76.5 -158 -76.5c-64 0 -117.167 24.833 -159.5 74.5s-63.5 102.834 -63.5 159.501z" />
    <glyph glyph-name="uni10D4" unicode="&#x10d4;" horiz-adv-x="583" 
d="M508 196c0 -74.667 -22.3311 -128.334 -66.998 -161.001s-96.667 -49 -156 -49c-58.667 0 -110.834 20 -156.501 60s-68.5 92 -68.5 156c0 49.333 16.667 98 50 146l46 -26c-28 -33.333 -42 -73.333 -42 -120c0 -66.667 19.667 -112 59 -136s76.666 -36 111.999 -36
c43.333 0 82.5 10.667 117.5 32s52.5 66 52.5 134v351c0 60 -15.833 98.667 -47.5 116s-64.5 26 -98.5 26c-43.333 0 -78.5 -10.833 -105.5 -32.5s-40.5 -50.167 -40.5 -85.5c0 -31.333 7.33301 -56.666 22 -75.999l-48 -23c-18 27.333 -27 60.333 -27 99
c0 43.333 18 81 54 113s83.333 48 142 48c58 0 106.167 -15.5 144.5 -46.5s57.5 -77.167 57.5 -138.5v-351z" />
    <glyph glyph-name="uni10D5" unicode="&#x10d5;" horiz-adv-x="579" 
d="M519 181c0 -58 -18.165 -105.167 -54.498 -141.5s-93.5 -54.5 -171.5 -54.5c-67.333 0 -123 20.333 -167 61s-66 87.667 -66 141c0 38 12.667 75.667 38 113l49 -21c-22 -29.333 -33 -60 -33 -92c0 -47.333 17.833 -86 53.5 -116s77.5 -45 125.5 -45
c54.667 0 97 13.333 127 40s45 61 45 103v41c0 49.333 -17.167 86.5 -51.5 111.5s-67.5 37.5 -99.5 37.5h-42v44h43c27.333 0 57.333 13.833 90 41.5s49 64.5 49 110.5c0 39.333 -14.833 71.5 -44.5 96.5s-67.834 37.5 -114.501 37.5
c-40.667 0 -75.834 -11.833 -105.501 -35.5s-44.5 -53.5 -44.5 -89.5c0 -22 7.66699 -47.667 23 -77l-50 -20c-18 32.667 -27 64.667 -27 96c0 46.667 19.333 86.5 58 119.5s87 49.5 145 49.5c72 0 125.833 -17.333 161.5 -52s53.5 -76.667 53.5 -126
c0 -71.333 -43.667 -130 -131 -176c94 -31.333 141 -89.333 141 -174v-23z" />
    <glyph glyph-name="uni10D6" unicode="&#x10d6;" horiz-adv-x="620" 
d="M560 218c0 -70 -24.001 -126.166 -72.001 -168.499s-103 -63.5 -165 -63.5c-58.667 0 -112.5 21.5 -161.5 64.5s-73.5 98.833 -73.5 167.5v14c0 26.667 8.66699 57 26 91s50 65 98 93c-38 4 -72.833 20.167 -104.5 48.5s-47.5 64.833 -47.5 109.5
c0 41.333 15.167 78 45.5 110s75.5 48 135.5 48c62 0 108.333 -17.167 139 -51.5s46 -68.833 46 -103.5c0 -32.667 -6.66699 -59.334 -20 -80.001s-32 -38 -56 -52c56.667 -6 105.834 -29 147.501 -69s62.5 -88 62.5 -144v-14zM142.999 221.001
c0 -65.333 20.999 -113.5 62.999 -144.5s81 -46.5 117 -46.5c36.667 0 76.167 15.5 118.5 46.5s63.5 79.167 63.5 144.5v5c0 53.333 -18.667 97.333 -56 132s-79.333 52 -126 52c-49.333 0 -91.666 -19.833 -126.999 -59.5s-53 -81.5 -53 -125.5v-4zM371.998 574.001
c0 38 -12.333 67 -37 87s-55.667 30 -93 30c-34.667 0 -64.667 -9.83301 -90 -29.5s-38 -49.5 -38 -89.5c0 -36 13.667 -66.333 41 -91s56.333 -37 87 -37c43.333 0 75.833 12.667 97.5 38s32.5 56 32.5 92z" />
    <glyph glyph-name="uni10D7" unicode="&#x10d7;" horiz-adv-x="916" 
d="M465 438c0 106.667 -16.667 175.333 -50 206s-74 46 -122 46c-54.667 0 -98.167 -19 -130.5 -57s-48.5 -103 -48.5 -195v-120c0 -100 15.833 -173 47.5 -219s73.5 -69 125.5 -69c51.333 0 94.333 23.167 129 69.5s51 118.833 49 217.5v121zM519 421.999l-0.00195312 -104
c0 -106 -20.833 -187.833 -62.5 -245.5s-98.167 -86.5 -169.5 -86.5c-69.333 0 -124.5 28.833 -165.5 86.5s-61.5 138.834 -61.5 243.501v125c0 99.333 21.667 172.833 65 220.5s99 71.5 167 71.5c40 0 76.333 -8.33301 109 -25s58.334 -42.334 77.001 -77.001
c48.667 68 105.667 102 171 102c62 0 112 -24.667 150 -74s57 -122.333 57 -219v-66c0 -178 -43.667 -307.667 -131 -389l-61 19c91.333 76 137 200.333 137 373v61c0 96 -15.167 162 -45.5 198s-62.166 54 -95.499 54c-54 0 -109.333 -34.333 -166 -103
c16.667 -51.333 25 -106.333 25 -165z" />
    <glyph glyph-name="uni10D8" unicode="&#x10d8;" horiz-adv-x="552" 
d="M60 423c0 103.333 20.333 180.666 61 231.999s92.667 77 156 77c62 0 113.333 -25.667 154 -77s61 -128.666 61 -231.999v-52c0 -138 -23.667 -263 -71 -375l-65 15c54.667 74.667 82 194.667 82 360v52c0 94.667 -13.667 162.667 -41 204s-67.333 62 -120 62
c-54 0 -94.667 -20.667 -122 -62s-41 -109.333 -41 -204v-52c0 -164 25.333 -285 76 -363l-66 -12c-42.667 113.333 -64 238.333 -64 375v52z" />
    <glyph glyph-name="uni10D9" unicode="&#x10d9;" horiz-adv-x="582" 
d="M522 224c0 -78 -21.833 -137.168 -65.5 -177.501s-98.5 -60.5 -164.5 -60.5c-62 0 -116.167 19.833 -162.5 59.5s-69.5 88.5 -69.5 146.5c0 42 10 84 30 126l48 -21c-14 -32 -21 -67 -21 -105c0 -52.667 19.833 -92.834 59.5 -120.501s78.167 -41.5 115.5 -41.5
c40.667 0 79.667 13.167 117 39.5s56 77.833 56 154.5v11c0 109.333 -51.667 171.333 -155 186h-86v45h87c76 4 114 43.667 114 119c0 32.667 -15.333 74.667 -46 126l52 19c32.667 -61.333 49 -109.666 49 -144.999c0 -69.333 -34.667 -116.666 -104 -141.999
c97.333 -45.333 146 -114.333 146 -207v-12z" />
    <glyph glyph-name="uni10DA" unicode="&#x10da;" horiz-adv-x="1114" 
d="M1054 524l0.00488281 -32c0 -78.667 -30.333 -157 -91 -235l-62 14c65.333 76 98 151 98 225v28c0 110.667 -45 166 -135 166c-44 0 -78.333 -18 -103 -54s-37 -73.667 -37 -113v-142h-49v141c0 56.667 -11.167 99.834 -33.5 129.501s-50.5 44.5 -84.5 44.5
c-34.667 0 -63.167 -17 -85.5 -51s-33.5 -75 -33.5 -123v-141h-48v141c0 40 -12.333 78 -37 114s-59.667 54 -105 54c-34 0 -64.833 -15.5 -92.5 -46.5s-41.5 -75.167 -41.5 -132.5v-45c0 -86 39 -158.333 117 -217s189.667 -96.5 335 -113.5s243.333 -65.167 294 -144.5
h-87c-8.66699 46.667 -52.334 76 -131.001 88s-149.667 13.833 -213 5.5s-130.333 -26.5 -201 -54.5v54c48 17.333 111 29.666 189 36.999c-118.667 30 -207.834 75.167 -267.501 135.5s-89.5 130.5 -89.5 210.5v44c0 53.333 15 103.5 45 150.5s78.333 70.5 145 70.5
c36 0 67.5 -10 94.5 -30s49.833 -53 68.5 -99c12 50 31.167 84.5 57.5 103.5s55.166 28.5 86.499 28.5c33.333 0 62.166 -9.5 86.499 -28.5s43.833 -53.833 58.5 -104.5c10 46.667 29.667 80 59 100s63.666 30 102.999 30c126.667 0 190 -69.333 190 -208z" />
    <glyph glyph-name="uni10DB" unicode="&#x10db;" horiz-adv-x="594" 
d="M285 451c-44.667 0 -84.333 -17.999 -119 -53.999s-52 -86 -52 -150v-15c0 -60 17 -108.667 51 -146s74 -56 120 -56c52 0 95.667 13.5 131 40.5s53 79.167 53 156.5v20c0 59.333 -16.5 108.166 -49.5 146.499s-77.833 57.5 -134.5 57.5zM60.001 247.001
c0 60.667 20.6689 116.667 62.002 168s95.666 77 162.999 77c78.667 0 140 -35 184 -105v162c0 48.667 -14 84.334 -42 107.001s-74.667 34 -140 34c-54 0 -93 -6.33301 -117 -19s-36 -29.667 -36 -51c0 -18 2 -32.667 6 -44l-49 -14c-4.66699 14.667 -7 35 -7 61
c0 30 16.167 55.833 48.5 77.5s83.833 32.5 154.5 32.5c84.667 0 144.5 -16.167 179.5 -48.5s52.5 -82.5 52.5 -150.5v-307c0 -83.333 -19.5 -144.333 -58.5 -183s-96.5 -58 -172.5 -58c-64.667 0 -118.834 24.167 -162.501 72.5s-65.5 106.166 -65.5 173.499v15z" />
    <glyph glyph-name="uni10DC" unicode="&#x10dc;" horiz-adv-x="596" 
d="M480 232v18c0.666992 67.333 -15 118.333 -47 153s-75.667 52 -131 52c-50 0 -91.833 -17.833 -125.5 -53.5s-50.5 -86.167 -50.5 -151.5v-23c0 -64 14.833 -112.833 44.5 -146.5s73.5 -50.5 131.5 -50.5s102.167 18.167 132.5 54.5s45.5 85.5 45.5 147.5zM536 232
c0 -66.667 -20.832 -124.333 -62.499 -173s-98.834 -73 -171.501 -73c-72 0 -127.833 20.667 -167.5 62s-59.5 101 -59.5 179v384c0 76.667 45.333 115 136 115h182c31.333 0 47 7 47 21h66c0 -42 -37.667 -63 -113 -63h-184c-55.333 0 -83 -21.667 -83 -65v-225
c42 67.333 100.667 101 176 101c82 0 141.5 -23.5 178.5 -70.5s55.5 -105.167 55.5 -174.5v-18z" />
    <glyph glyph-name="uni10DD" unicode="&#x10dd;" horiz-adv-x="867" 
d="M407 261l0.000976562 239c0 66.667 -13.333 114.834 -40 144.501s-57.334 44.5 -92.001 44.5c-40.667 0 -77.667 -16.833 -111 -50.5s-50 -101.5 -50 -203.5v-38c0 -160 51.333 -290 154 -390l-63 -12c-96.667 104.667 -145 238.667 -145 402v38
c0 111.333 22.5 188.666 67.5 231.999s93.5 65 145.5 65c32.667 0 62.834 -10.5 90.501 -31.5s51.167 -53.833 70.5 -98.5c18.667 44.667 41.667 77.5 69 98.5s56.666 31.5 87.999 31.5c53.333 0 102.666 -21.667 147.999 -65s68 -120.666 68 -231.999v-38
c0 -163.333 -49.333 -297.333 -148 -402l-66 12c105.333 100 158 230 158 390v38c0 102 -16.5 169.833 -49.5 203.5s-70.167 50.5 -111.5 50.5c-33.333 0 -63.666 -14.833 -90.999 -44.5s-41 -77.834 -41 -144.501v-239h-51z" />
    <glyph glyph-name="uni10DE" unicode="&#x10de;" horiz-adv-x="579" 
d="M475 547c0 -64 -35.333 -108 -106 -132c100 -40 150 -113.667 150 -221v-11c0 -49.333 -19.833 -94.5 -59.5 -135.5s-95.167 -61.5 -166.5 -61.5c-67.333 0 -123 20.5 -167 61.5s-66 91.833 -66 152.5c0 48.667 12.333 94 37 136l48 -19
c-20.667 -38.667 -31 -77.667 -31 -117c0 -55.333 18.667 -97.5 56 -126.5s78.333 -43.5 123 -43.5c46 0 86.167 14.667 120.5 44s51.5 65.666 51.5 108.999v10c0 106.667 -47.333 173.334 -142 200.001h-46v47h34c78 11.333 117 47 117 107c0 45.333 -47.167 73 -141.5 83
s-141.5 42.333 -141.5 97h55c0 -34.667 45.833 -57.5 137.5 -68.5s137.5 -48.167 137.5 -111.5z" />
    <glyph glyph-name="uni10DF" unicode="&#x10df;" horiz-adv-x="594" 
d="M519 220c0 -80.667 -23.3311 -139.834 -69.998 -177.501s-101.334 -56.5 -164.001 -56.5c-60 0 -112.5 18.167 -157.5 54.5s-67.5 86.833 -67.5 151.5c0 40 7.33301 80 22 120l50 -32c-12 -26.667 -18 -55.667 -18 -87c0 -53.333 17.5 -93.833 52.5 -121.5
s74.5 -41.5 118.5 -41.5c44.667 0 86.5 14.833 125.5 44.5s58.5 77.834 58.5 144.501v464c-91.333 -12 -191 -19 -299 -21c116 -24.667 174 -72 174 -142c0 -30 -14.5 -57.667 -43.5 -83s-70.167 -38 -123.5 -38h-77v54l77 -5c38 -3.33301 66.833 2 86.5 16
s29.5 34.667 29.5 62c0 32.667 -19.333 60.167 -58 82.5s-82.667 33.5 -132 33.5v49c145.333 3.33301 269.666 16 372.999 38h43v-509z" />
    <glyph glyph-name="uni10E0" unicode="&#x10e0;" horiz-adv-x="887" 
d="M773 297c0 62 -15.3359 110.001 -46.0029 144.001s-67.334 51 -110.001 51c-39.333 0 -73.166 -16.333 -101.499 -49s-42.5 -68.334 -42.5 -107.001v-125h-50v125c0 38.667 -13.667 74.334 -41 107.001s-63 49 -107 49c-40.667 0 -77.667 -16.5 -111 -49.5
s-50 -81.5 -50 -145.5v-17c0 -86.667 53 -177.667 159 -273l-71 -12c-94.667 91.333 -142 191 -142 299v12c0 38.667 7.5 82 22.5 130s51.667 101 110 159s177.5 105 357.5 141l13 -54c-231.333 -30 -369.666 -95.667 -414.999 -197c62.667 32 106.334 48 131.001 48
c46 0 80.667 -10.333 104 -31s45 -52.334 65 -95.001c18.667 42.667 41 74.334 67 95.001s60 31 102 31c68.667 0 120.834 -22.833 156.501 -68.5s53.5 -98.834 53.5 -159.501v-12c0 -108 -50.333 -207.333 -151 -298l-70 12c111.333 94 167 185 167 273v17z" />
    <glyph glyph-name="uni10E1" unicode="&#x10e1;" horiz-adv-x="596" 
d="M536 208c0 -56 -20.833 -107.001 -62.5 -153.001s-100.5 -69 -176.5 -69c-74 0 -129.5 23.667 -166.5 71s-55.5 108 -55.5 182v483h51v-483c-1.33301 -71.333 14 -124 46 -158s73.667 -51 125 -51c50 0 93 14.833 129 44.5s54 74.167 54 133.5
c0 62 -25.667 108.333 -77 139s-77 64.334 -77 101.001c0 31.333 5 68.333 15 111l54 -16c-12 -34 -18 -63 -18 -87c0 -32.667 26.5 -65.167 79.5 -97.5s79.5 -82.5 79.5 -150.5z" />
    <glyph glyph-name="uni10E2" unicode="&#x10e2;" horiz-adv-x="683" 
d="M330 685c-68 -7.33301 -120.501 -39.3301 -157.501 -95.9971s-55.5 -127.334 -55.5 -212.001v-38c0 -99.333 22.333 -175.666 67 -228.999s99.334 -80 164.001 -80c68 0 121.667 26.667 161 80s59 129.666 59 228.999v38c0 83.333 -17.833 153.666 -53.5 210.999
s-86.5 89.666 -152.5 96.999l15 -394h-61zM59.999 377.003c0 98 25.667 179.167 77 243.5s114 96.5 188 96.5l-12 31h64l-10 -31c66.667 0 126 -32.167 178 -96.5s78 -145.5 78 -243.5v-38c0 -102.667 -22.167 -187.167 -66.5 -253.5s-115.5 -99.5 -213.5 -99.5
c-88.667 0 -158 33.167 -208 99.5s-75 150.833 -75 253.5v38z" />
    <glyph glyph-name="uni10E3" unicode="&#x10e3;" horiz-adv-x="620" 
d="M545 203c0 -74 -20.333 -128.668 -61 -164.001s-99 -53 -175 -53c-64.667 0 -118.5 20 -161.5 60s-64.5 94.667 -64.5 164c0 62.667 15.667 116.334 47 161.001l46 -26c-24 -34.667 -36 -78 -36 -130c0 -65.333 16.5 -112.5 49.5 -141.5s72.833 -43.5 119.5 -43.5
c53.333 0 97.166 11 131.499 33s51.5 71 51.5 147v380c0 66 -29.667 99 -89 99c-33.333 0 -56.166 -12.667 -68.499 -38s-18.5 -52 -18.5 -80v-123h-47v123c0 28.667 -6.66699 55.5 -20 80.5s-29.666 37.5 -48.999 37.5c-18 0 -32.333 -4.16699 -43 -12.5
s-27.334 -12.5 -50.001 -12.5h-47v65l52 -21c14.667 0 28 4 40 12s28 12 48 12c36.667 0 67 -37 91 -111c18.667 74 58.667 111 120 111c89.333 0 134 -52.333 134 -157v-372z" />
    <glyph glyph-name="uni10E4" unicode="&#x10e4;" horiz-adv-x="846" 
d="M415 525c0 46 -12.833 84.832 -38.5 116.499s-60.5 47.5 -104.5 47.5c-43.333 0 -80.5 -12.167 -111.5 -36.5s-46.5 -66.5 -46.5 -126.5v-24c0 -61.333 14.333 -105.666 43 -132.999s65 -41 109 -41c43.333 0 79 13.5 107 40.5s42 71.5 42 133.5v23zM472 523.999
l-0.00195312 -23.002c-4.66699 -61.333 -24.167 -113.5 -58.5 -156.5s-83.5 -64.5 -147.5 -64.5c-58 0 -106.833 22 -146.5 66s-59.5 96 -59.5 156v24c0 58.667 18.333 107.667 55 147s89 59 157 59c68.667 0 121.667 -28.667 159 -86c40 55.333 97 83 171 83
c57.333 0 102.333 -17.667 135 -53s49 -76.666 49 -123.999c0 -76.667 -40.667 -136 -122 -178c72.667 -24.667 109.667 -74 111 -148v-47c0 -46 -23.667 -89.667 -71 -131s-115 -62 -203 -62c-84 0 -151.333 15.5 -202 46.5s-76 65.167 -76 102.5v42h57v-42
c-1.33301 -27.333 17.834 -51.666 57.501 -72.999s93.834 -32 162.501 -32s122.5 14.167 161.5 42.5s58.5 63.833 58.5 106.5v43c-0.666992 86.667 -40 130 -118 130h-50v45h52c85.333 5.33301 128 57 128 155c0 40.667 -12.833 73.167 -38.5 97.5s-57.167 36.5 -94.5 36.5
c-60.667 0 -110 -28 -148 -84c14 -33.333 21 -59.333 21 -78z" />
    <glyph glyph-name="uni10E5" unicode="&#x10e5;" horiz-adv-x="594" 
d="M519 198c0 -72 -21.332 -125.335 -63.999 -160.002s-99.334 -52 -170.001 -52c-61.333 0 -114.166 18.333 -158.499 55s-66.5 84.667 -66.5 144c0 52 8.66699 92.333 26 121l49 -28c-14 -18.667 -21 -49.667 -21 -93c0 -46 16.667 -83.333 50 -112
s73.666 -43 120.999 -43c48 0 90.667 12.333 128 37s56 68.334 56 131.001v227c0 23.333 -25.333 61 -76 113s-101 77.667 -151 77c-23.333 0.666992 -41.333 -6 -54 -20s-19 -35.333 -19 -64c0 -26.667 6 -50.667 18 -72l-53 -18c-14.667 30.667 -22 60.667 -22 90
c-0.666992 40.667 11.333 71.834 36 93.501s56 32.5 94 32.5c67.333 0 143 -48 227 -144v172h-53v40h103v-527z" />
    <glyph glyph-name="uni10E6" unicode="&#x10e6;" horiz-adv-x="852" 
d="M792 515l0.00195312 -31c0 -68 -33 -133.333 -99 -196l-60 13c69.333 51.333 104 111.333 104 180v30c0 61.333 -14.5 106.333 -43.5 135s-63.833 43 -104.5 43c-42.667 0 -76.5 -15.5 -101.5 -46.5s-37.5 -63.5 -37.5 -97.5v-118h-47v118c0 34 -12.667 66.5 -38 97.5
s-61 46.5 -107 46.5c-42.667 0 -77.334 -15.667 -104.001 -47s-40 -74 -40 -128v-25c0 -136.667 85 -238.667 255 -306s262 -131.333 276 -192h-84c-18.667 54 -47.834 89.667 -87.501 107s-86.167 21.333 -139.5 12s-105.333 -36 -156 -80v64
c41.333 32 101.666 49.667 180.999 53c-199.333 72 -299 187 -299 345v21c0 58 17.833 109 53.5 153s83.834 66 144.501 66c73.333 0 130.333 -40.333 171 -121c32 80.667 85.333 121 160 121c70 0 121.333 -20.667 154 -62s49 -93 49 -155z" />
    <glyph glyph-name="uni10E7" unicode="&#x10e7;" horiz-adv-x="594" 
d="M519 187c0 -66 -19.668 -116.001 -59.001 -150.001s-95 -51 -167 -51c-59.333 0 -113 17.833 -161 53.5s-72 86.834 -72 153.501c0 10.667 2.33301 26.667 7 48l54 -14c-4.66699 -13.333 -7 -24.666 -7 -33.999c0 -50.667 17.5 -90.5 52.5 -119.5
s77.167 -43.5 126.5 -43.5c52 0 94.833 11.667 128.5 35s50.5 64 50.5 122v183c-42 -64 -100.333 -96 -175 -96c-67.333 0 -119.666 18.833 -156.999 56.5s-56 96.167 -56 175.5c0 85.333 31.667 159.666 95 222.999l46 -19c-57.333 -66 -86 -134.333 -86 -205
c0 -76 16 -127.167 48 -153.5s68.667 -39.5 110 -39.5c45.333 0 85.833 18.333 121.5 55s53.5 78.667 53.5 126v228h47v-534z" />
    <glyph glyph-name="uni10E8" unicode="&#x10e8;" horiz-adv-x="611" 
d="M484 399v203.002c0 37.333 -6.33301 61.333 -19 72s-32.334 16 -59.001 16c-23.333 0 -43.666 -10 -60.999 -30s-26 -37.333 -26 -52v-31h-54v31c0 14.667 -7.16699 32 -21.5 52s-38.5 30 -72.5 30c-36.667 0 -55 -20.333 -55 -61v-66h-56v71
c0 35.333 10.833 60.666 32.5 75.999s47.5 23 77.5 23c48 0 89.333 -29 124 -87c32.667 58 71 87 115 87c47.333 0 80.333 -12.5 99 -37.5s28 -56.833 28 -95.5v-373c0 -76.667 -20 -136 -60 -178s-97.333 -63 -172 -63c-66 0 -121 24.167 -165 72.5
s-66 106.166 -66 173.499v16c0 60 21 115.667 63 167s97.333 77 166 77c77.333 0 138 -31 182 -93zM302 451.002c-45.333 0 -85.333 -18 -120 -54s-52 -85.667 -52 -149v-16c0 -60 17 -108.667 51 -146s74.333 -56 121 -56c50 0 92.667 15.167 128 45.5
s53.333 80.833 54 151.5v21c0 58.667 -16.167 107.167 -48.5 145.5s-76.833 57.5 -133.5 57.5z" />
    <glyph glyph-name="uni10E9" unicode="&#x10e9;" horiz-adv-x="596" 
d="M405 593l-51 0.00195312v28c0 21.333 -8.66699 38.166 -26 50.499s-43.666 18.5 -78.999 18.5c-40 0 -70.5 -13 -91.5 -39s-31.5 -63.333 -31.5 -112v-124c57.333 68 120.666 102 189.999 102c68.667 0 122.5 -20.5 161.5 -61.5s58.5 -90.833 58.5 -149.5v-16
c0 -108.667 -42.667 -207.334 -128 -296.001l-59 11c87.333 90.667 131 184.667 131 282v18c0 54 -15.833 96.167 -47.5 126.5s-70.5 45.5 -116.5 45.5c-46.667 0 -90 -20 -130 -60s-60 -80.333 -60 -121v-296h-51v543c0 49.333 14.5 93.333 43.5 132s74.167 58 135.5 58
c54 0 92.833 -12.333 116.5 -37s35.5 -49.667 35.5 -75c0 -10.667 -0.333008 -20 -1 -28z" />
    <glyph glyph-name="uni10EA" unicode="&#x10ea;" horiz-adv-x="634" 
d="M545 524c0 -56.667 -38.001 -103.666 -114.001 -140.999c95.333 -44.667 143 -96.667 143 -156v1c0 -78.667 -23.667 -138.667 -71 -180s-106 -62 -176 -62c-79.333 0 -143.666 27.833 -192.999 83.5s-74 121.167 -74 196.5v177c0 100 31.667 197 95 291l50 -24
c-60.667 -76 -91 -163.667 -91 -263v-182c0 -69.333 21 -125.833 63 -169.5s93.333 -65.5 154 -65.5c48.667 0 92.167 15.833 130.5 47.5s57.5 72.167 57.5 121.5v36c0 22.667 -18 49.167 -54 79.5s-71.333 45.5 -106 45.5h-66v42h66c33.333 0 63.333 11.667 90 35
s40 52.666 40 87.999c0 26 -25.833 55.167 -77.5 87.5s-77.5 70.5 -77.5 114.5l55 6c0 -36 26 -70.167 78 -102.5s78 -67.833 78 -106.5z" />
    <glyph glyph-name="uni10EB" unicode="&#x10eb;" horiz-adv-x="594" 
d="M285 445c-44.667 0 -84.333 -17.999 -119 -53.999s-52 -86 -52 -150v-9c0 -60 17 -108.667 51 -146s74 -56 120 -56c52 0 95.667 14.5 131 43.5s53 81.833 53 158.5v9c0 59.333 -16.5 108.166 -49.5 146.499s-77.833 57.5 -134.5 57.5zM519.001 232.001
c0 -82 -19.498 -143.499 -58.498 -184.499s-96.5 -61.5 -172.5 -61.5c-64.667 0 -118.834 24.167 -162.501 72.5s-65.5 106.166 -65.5 173.499v9c0 60.667 20.667 116.667 62 168s95.666 77 162.999 77c78.667 0 140 -35 184 -105v343h50v-492z" />
    </font>
</defs>
</svg>
